<mxfile host="Electron" modified="2024-02-14T08:16:50.193Z" agent="Mozilla/5.0 (Macintosh; Intel Mac OS X 10_15_7) AppleWebKit/537.36 (KHTML, like Gecko) draw.io/23.0.2 Chrome/120.0.6099.109 Electron/28.1.0 Safari/537.36" etag="geqdGqUIGUa3BLvo_QcL" version="23.0.2" type="device">
  <diagram name="Page-1" id="B0m_py_ju9GX3tWFT3hO">
    <mxGraphModel dx="4130" dy="1898" grid="1" gridSize="10" guides="1" tooltips="1" connect="1" arrows="1" fold="1" page="1" pageScale="1" pageWidth="827" pageHeight="1169" math="0" shadow="0">
      <root>
        <mxCell id="0" />
        <mxCell id="1" parent="0" />
        <mxCell id="EB-71riCrNHVFmaNxJ81-4" value="" style="html=1;shadow=0;dashed=0;align=center;verticalAlign=middle;shape=mxgraph.arrows2.bendArrow;dy=8;dx=38;notch=0;arrowHead=55;rounded=1;rotation=0;fontSize=9;fillColor=#f8cecc;strokeColor=#b85450;" vertex="1" parent="1">
          <mxGeometry x="150" y="290" width="100" height="120" as="geometry" />
        </mxCell>
        <mxCell id="EB-71riCrNHVFmaNxJ81-5" value="" style="html=1;shadow=0;dashed=0;align=center;verticalAlign=middle;shape=mxgraph.arrows2.bendArrow;dy=8;dx=38;notch=0;arrowHead=55;rounded=1;direction=south;rotation=0;fillColor=#f8cecc;strokeColor=#b85450;" vertex="1" parent="1">
          <mxGeometry x="410" y="310" width="100" height="100" as="geometry" />
        </mxCell>
        <mxCell id="EB-71riCrNHVFmaNxJ81-6" value="" style="html=1;shadow=0;dashed=0;align=center;verticalAlign=middle;shape=mxgraph.arrows2.bendArrow;dy=8;dx=38;notch=0;arrowHead=55;rounded=1;direction=west;rotation=45;fillColor=#f8cecc;strokeColor=#b85450;" vertex="1" parent="1">
          <mxGeometry x="280" y="480" width="100" height="120" as="geometry" />
        </mxCell>
        <mxCell id="EB-71riCrNHVFmaNxJ81-7" value="&lt;font style=&quot;font-size: 17px;&quot;&gt;User-Interaction&lt;/font&gt;" style="ellipse;whiteSpace=wrap;html=1;fillColor=#f5f5f5;fontColor=#333333;strokeColor=#666666;" vertex="1" parent="1">
          <mxGeometry x="260" y="260" width="140" height="100" as="geometry" />
        </mxCell>
        <mxCell id="EB-71riCrNHVFmaNxJ81-8" value="&lt;font style=&quot;font-size: 17px;&quot;&gt;Algorithm&lt;/font&gt;" style="ellipse;whiteSpace=wrap;html=1;fillColor=#f5f5f5;strokeColor=#666666;fontColor=#333333;" vertex="1" parent="1">
          <mxGeometry x="120" y="430" width="140" height="100" as="geometry" />
        </mxCell>
        <mxCell id="EB-71riCrNHVFmaNxJ81-9" value="&lt;font style=&quot;font-size: 17px;&quot;&gt;Data&lt;/font&gt;" style="ellipse;whiteSpace=wrap;html=1;fillColor=#f5f5f5;fontColor=#333333;strokeColor=#666666;" vertex="1" parent="1">
          <mxGeometry x="410" y="430" width="140" height="100" as="geometry" />
        </mxCell>
        <mxCell id="EB-71riCrNHVFmaNxJ81-10" value="&lt;b&gt;Data to&amp;nbsp;Algorithm&lt;/b&gt;" style="swimlane;fontStyle=0;childLayout=stackLayout;horizontal=1;startSize=30;horizontalStack=0;resizeParent=1;resizeParentMax=0;resizeLast=0;collapsible=1;marginBottom=0;whiteSpace=wrap;html=1;fillColor=#f8cecc;strokeColor=#b85450;" vertex="1" parent="1">
          <mxGeometry x="250" y="650" width="170" height="380" as="geometry">
            <mxRectangle x="270" y="690" width="60" height="30" as="alternateBounds" />
          </mxGeometry>
        </mxCell>
        <mxCell id="EB-71riCrNHVFmaNxJ81-11" value="&lt;p style=&quot;line-height: 180%;&quot;&gt;- Representation Bias&lt;br&gt;- Measurement Bias&lt;br&gt;&lt;b&gt;- Capture Bias&lt;br&gt;- Device Bias&lt;br&gt;&lt;/b&gt;- Aggregation Bias&lt;br&gt;- Sampling Bias&lt;br&gt;- Exclusion Bias&lt;br&gt;- Attribute Bias&lt;br&gt;&lt;b&gt;- Labeling Bias&lt;br&gt;- Confounding Bias&lt;br&gt;- Cause-Effect Bias&lt;br&gt;&lt;/b&gt;- Simpsons Paradoxon&lt;br&gt;- Longitudinal Data Fallacy&lt;br&gt;- Modifiable Areal Unit Problem&lt;/p&gt;" style="text;strokeColor=none;fillColor=none;align=left;verticalAlign=middle;spacingLeft=4;spacingRight=4;overflow=hidden;points=[[0,0.5],[1,0.5]];portConstraint=eastwest;rotatable=0;whiteSpace=wrap;html=1;" vertex="1" parent="EB-71riCrNHVFmaNxJ81-10">
          <mxGeometry y="30" width="170" height="350" as="geometry" />
        </mxCell>
        <mxCell id="EB-71riCrNHVFmaNxJ81-15" value="" style="endArrow=none;dashed=1;html=1;rounded=0;exitX=0.465;exitY=-0.012;exitDx=0;exitDy=0;exitPerimeter=0;" edge="1" parent="1" source="EB-71riCrNHVFmaNxJ81-10">
          <mxGeometry width="50" height="50" relative="1" as="geometry">
            <mxPoint x="330" y="640" as="sourcePoint" />
            <mxPoint x="330" y="600" as="targetPoint" />
          </mxGeometry>
        </mxCell>
        <mxCell id="EB-71riCrNHVFmaNxJ81-16" value="&lt;b&gt;User to Data&lt;/b&gt;" style="swimlane;fontStyle=0;childLayout=stackLayout;horizontal=1;startSize=30;horizontalStack=0;resizeParent=1;resizeParentMax=0;resizeLast=0;collapsible=1;marginBottom=0;whiteSpace=wrap;html=1;fillColor=#f8cecc;strokeColor=#b85450;" vertex="1" parent="1">
          <mxGeometry x="590" y="200" width="170" height="340" as="geometry">
            <mxRectangle x="270" y="690" width="60" height="30" as="alternateBounds" />
          </mxGeometry>
        </mxCell>
        <mxCell id="EB-71riCrNHVFmaNxJ81-17" value="&lt;p style=&quot;line-height: 180%;&quot;&gt;- Historical Bias&lt;/p&gt;&lt;p style=&quot;line-height: 180%;&quot;&gt;- Population Bias&lt;/p&gt;&lt;p style=&quot;line-height: 180%;&quot;&gt;- Behavioural Bias&lt;/p&gt;&lt;p style=&quot;line-height: 180%;&quot;&gt;- Content Production Bias&lt;/p&gt;&lt;p style=&quot;line-height: 180%;&quot;&gt;- Temporal Bias&lt;/p&gt;&lt;p style=&quot;line-height: 180%;&quot;&gt;- Social Bias&lt;/p&gt;&lt;p style=&quot;line-height: 180%;&quot;&gt;- Self-Selection Bias&lt;/p&gt;&lt;p style=&quot;line-height: 180%;&quot;&gt;&lt;b&gt;- Selection Bias&lt;/b&gt;&lt;/p&gt;&lt;p style=&quot;line-height: 180%;&quot;&gt;&lt;b&gt;- Framing Effect Bias&lt;/b&gt;&lt;/p&gt;" style="text;strokeColor=none;fillColor=none;align=left;verticalAlign=middle;spacingLeft=4;spacingRight=4;overflow=hidden;points=[[0,0.5],[1,0.5]];portConstraint=eastwest;rotatable=0;whiteSpace=wrap;html=1;" vertex="1" parent="EB-71riCrNHVFmaNxJ81-16">
          <mxGeometry y="30" width="170" height="310" as="geometry" />
        </mxCell>
        <mxCell id="EB-71riCrNHVFmaNxJ81-18" value="" style="endArrow=none;dashed=1;html=1;rounded=0;exitX=0;exitY=0;exitDx=4.688;exitDy=24.188;exitPerimeter=0;entryX=0.005;entryY=0.139;entryDx=0;entryDy=0;entryPerimeter=0;" edge="1" parent="1" source="EB-71riCrNHVFmaNxJ81-5" target="EB-71riCrNHVFmaNxJ81-17">
          <mxGeometry width="50" height="50" relative="1" as="geometry">
            <mxPoint x="630" y="430" as="sourcePoint" />
            <mxPoint x="680" y="380" as="targetPoint" />
            <Array as="points" />
          </mxGeometry>
        </mxCell>
        <mxCell id="EB-71riCrNHVFmaNxJ81-19" value="&lt;b&gt;Algorithm to User&lt;/b&gt;" style="swimlane;fontStyle=0;childLayout=stackLayout;horizontal=1;startSize=30;horizontalStack=0;resizeParent=1;resizeParentMax=0;resizeLast=0;collapsible=1;marginBottom=0;whiteSpace=wrap;html=1;fillColor=#f8cecc;strokeColor=#b85450;" vertex="1" parent="1">
          <mxGeometry x="-160" y="200" width="170" height="340" as="geometry">
            <mxRectangle x="270" y="690" width="60" height="30" as="alternateBounds" />
          </mxGeometry>
        </mxCell>
        <mxCell id="EB-71riCrNHVFmaNxJ81-20" value="&lt;p style=&quot;line-height: 180%;&quot;&gt;- Algorithmic Bias&lt;/p&gt;&lt;p style=&quot;line-height: 180%;&quot;&gt;- User Interaction Bias&lt;/p&gt;&lt;p style=&quot;line-height: 180%;&quot;&gt;- Presentation Bias&lt;/p&gt;&lt;p style=&quot;line-height: 180%;&quot;&gt;- Emergent Bias&lt;/p&gt;&lt;p style=&quot;line-height: 180%;&quot;&gt;- Evaluation Bias&lt;/p&gt;&lt;p style=&quot;line-height: 180%;&quot;&gt;&lt;b&gt;- Negative Set Bias&lt;/b&gt;&lt;/p&gt;&lt;p style=&quot;line-height: 180%;&quot;&gt;&lt;b&gt;- Deployment Bias&lt;/b&gt;&lt;/p&gt;&lt;p style=&quot;line-height: 180%;&quot;&gt;&lt;b&gt;- Automation Bias&lt;/b&gt;&lt;/p&gt;&lt;p style=&quot;line-height: 180%;&quot;&gt;&lt;br&gt;&lt;/p&gt;" style="text;strokeColor=none;fillColor=none;align=left;verticalAlign=middle;spacingLeft=4;spacingRight=4;overflow=hidden;points=[[0,0.5],[1,0.5]];portConstraint=eastwest;rotatable=0;whiteSpace=wrap;html=1;" vertex="1" parent="EB-71riCrNHVFmaNxJ81-19">
          <mxGeometry y="30" width="170" height="310" as="geometry" />
        </mxCell>
        <mxCell id="EB-71riCrNHVFmaNxJ81-21" value="" style="endArrow=none;dashed=1;html=1;rounded=0;entryX=1.015;entryY=0.107;entryDx=0;entryDy=0;entryPerimeter=0;exitX=0;exitY=0;exitDx=4.688;exitDy=24.188;exitPerimeter=0;" edge="1" parent="1" source="EB-71riCrNHVFmaNxJ81-4" target="EB-71riCrNHVFmaNxJ81-20">
          <mxGeometry width="50" height="50" relative="1" as="geometry">
            <mxPoint x="310" y="290" as="sourcePoint" />
            <mxPoint x="360" y="240" as="targetPoint" />
          </mxGeometry>
        </mxCell>
        <mxCell id="EB-71riCrNHVFmaNxJ81-22" value="" style="shape=image;verticalLabelPosition=bottom;labelBackgroundColor=default;verticalAlign=top;aspect=fixed;imageAspect=0;image=data:image/png,iVBORw0KGgoAAAANSUhEUgAAAr8AAAL0CAYAAAAFhl9BAAAAAXNSR0IArs4c6QAAAGJlWElmTU0AKgAAAAgAAYdpAAQAAAABAAAAGgAAAAAABJKGAAcAAAASAAAAUKABAAMAAAABAAEAAKACAAQAAAABAAACv6ADAAQAAAABAAAC9AAAAABBU0NJSQAAAFNjcmVlbnNob3Q7yyoSAAAB1mlUWHRYTUw6Y29tLmFkb2JlLnhtcAAAAAAAPHg6eG1wbWV0YSB4bWxuczp4PSJhZG9iZTpuczptZXRhLyIgeDp4bXB0az0iWE1QIENvcmUgNi4wLjAiPgogICA8cmRmOlJERiB4bWxuczpyZGY9Imh0dHA6Ly93d3cudzMub3JnLzE5OTkvMDIvMjItcmRmLXN5bnRheC1ucyMiPgogICAgICA8cmRmOkRlc2NyaXB0aW9uIHJkZjphYm91dD0iIgogICAgICAgICAgICB4bWxuczpleGlmPSJodHRwOi8vbnMuYWRvYmUuY29tL2V4aWYvMS4wLyI+CiAgICAgICAgIDxleGlmOlBpeGVsWURpbWVuc2lvbj43NTY8L2V4aWY6UGl4ZWxZRGltZW5zaW9uPgogICAgICAgICA8ZXhpZjpQaXhlbFhEaW1lbnNpb24+NzAzPC9leGlmOlBpeGVsWERpbWVuc2lvbj4KICAgICAgICAgPGV4aWY6VXNlckNvbW1lbnQ+U2NyZWVuc2hvdDwvZXhpZjpVc2VyQ29tbWVudD4KICAgICAgPC9yZGY6RGVzY3JpcHRpb24+CiAgIDwvcmRmOlJERj4KPC94OnhtcG1ldGE+CuXX9JkAAEAASURBVHgB7J0JvE1V+8dXkgohIXOGQl7hFaIyJFORejOUSJEhJKQSTURzouFFA69KpUFzkTJkKBUpMlSIhJS58Pa+/u7/fJ/edey77z7n7nPvOefue+7zfD7n7nPWXnvtZ/32vnv/1rOe51nHpIXEqCgCioAioAgoAoqAIqAIKAJ5AIF8eaCP2kVFQBFQBBQBRUARUAQUAUVAEFDyqzeCIqAIKAKKgCKgCCgCikCeQUDJb5651NpRRUARUAQUAUVAEVAEFAElv3oPKAKKgCKgCCgCioAioAjkGQSU/OaZS60dVQQUAUVAEVAEFAFFQBFQ8qv3gCKgCCgCioAioAgoAopAnkEgv5+e7t6923z99dd+qmodRUARUAQUAUVAEVAEFAFFIEcRqF69uilXrpynDr7I73PPPWfuu+8+zwa0UBFQBBQBRUARUAQUAUUgbyHQpvVppkyZQoHs9ObN+0258s3N+PHjPfXzRX7POOMM88ADD5jrrrvOs5FUKKR/zZs3N40aNUqF7mgfFAFFQBEILAKvv/66+fe//226d+8eSB2Z6XzrrbfMqFGjAqnfH3/8Ya6//nozffr0QOqHUpdddplgGFQF//GPf5g33njDHHPMMYFU8ZZbbjF9+/Y18K8gylNPPWXattllihXZHUT1zOIlh83GTVUi6qY+vxGh0R2KgCKgCCgCioAioAgoAqmGgJLfVLui2h9FQBFQBBQBRUARUAQUgYgI+HJ7iHi0x47ly5eb999/P92eJk2amAsuuCBd2eeff27mzp1rjjvuOHPsscea//73v6Zu3bqmTZs26eoF8YdXH5165suXz5QuXdqceeaZ5txzz80wrfLtt9+a+fPnm06dOoX8Zco4D03o9++++86sXbvW9zkKFy5sWrZs6bu+VlQEFAFFIN4ILFu2zHzwwQcRmy1UqJApX768adGihSlZsmTEeonaEXT96Pe4cePMgQMHPCHgfVWqVClTs2ZNc95552V4X3keFOdC1S97gAYdvxVf/2Y++viniJ0sWPA4UzbkO9y0SVlTosSJ6epxXN26JU1JV3m6Sln4EXfye8IJJwih/eyzzwwf5OmnnzZvvvmmadCgQVjF//u//zP/+c9/zLvvviu+X/gHFShQILw/yF+8+tivXz/DQxghO8arr75qtm/fbv72t7+Zl19+OUxy8XPD12jv3r1mxYoVZurUqUnrKnr885//FJxPP/100WnlypXmt99+Ex148HFd1q1bJ/rxQFy9enXS9NMTKQKKgCLgRgByhpHk008/NUuXLpXd+LsWLFjQHDx40HzxxRfmwQcflDrDhw83N954o7sJ8/PPP5vnn39ensUTJkwwF154YYY6WS3Ijn4YfXg/4gO9adMmU6FCBYOxqFWrVqZ58+ZZVSnDceCXP3/+cPBP7dq1xbCRlpYm76mZM2cKRjVq1BCMGExY4R09adIks3HjRimqXLmy+Gp369bNVsn2Njv6uU++ZcsW07ZtWzNixIi4+ZRnR78hQ4aYH3/80dSrV0+MYvhrM2CCA8yaNcutfpZ+Z0c/TsjAiP+LefPmmc2bN5tTTjnF8L90+eWXZ0kf90H58h0T+v/MZz7/fIdZtnyH7O55bc3Q/3B+c+jgYfPVV7+axxZvM8flz2cG31jH9Ot7ltQJ3Z5myE0L5XupkgVNwUL5zfEFjg0ZTI/6afe+rpZp07qi+5SZ/w7d/JlK6OZPe/bZZzOt56zw+OOPp4X+SdJOPfXUtBIlSqSF/qnSQqA6q8j30aNHpw0aNChDebIL7r///rQQWY/ptPSRvvEJEd10x/7yyy9pIeuv7LvkkkvC+/7888+0OnXqSPmVV14ZLk/Gl4EDB8q5Qw+x8OmuvvrqcB/27Nkj5aFBSVrI0V6uXYgMh+vqF0VAEVAE4oHAa6+9lvbCCy/E1FQo41D4WRUasKc7dvLkyeF9ISIZ3hcixWl///vf08qWLRveHzLEhPdH+hIyTKTdfffdkXZ7lmdFP57JvD9CxCMtZHRIe+ihh8J6hgKKPM9D4e+//54WIp8R93vtOHz4cLjtUDBVuir79u1LC828yv5zzjkn7ciRI7I/NIsrZTfffHMa7wJwCRlFpCxEiNO14f5x6aWXuoui/s6Kfu4GQ8altNAMgC/9Qga3cD/d7Xj9zqp+V111lehjuQLb0OAiLUQ0vU4TLgPz77//Pvw7sy9Z1Q8+cNZZZ6VVrFgxLRQAmBYiwmmhAaTovGHDhoin5X9u04/3pu3dNcz35+67/ro2YLDh+4Hpjpvw6EVhnJ6fdrnsW7e6f7jMiZ/9XrVqubSVK/qma8fq8947g9PgaJEkoT6/jRs3NmPGjBEGvnPnTtO1a1cT+ifLnJGnQI0Q6TfVqlWTnmCZwMqNYN1+8cUXJXvGE088IWXJ+oOF99prrzWM3KMJo8g77rhDrMAhQhytqu5TBBQBRSDHEbjooovCOmCptHLFFVeYEMk269evNyeemH461dZJxtZLP6zWWFwR3o/kJCXCH6ssQnpRLMPJkCJFiojLA+cKEZ6we5zFEgslFm5cE0MkSVRyuzcmUs9I+rnPeeuttxpmM5MtmekHdkhoEGY6duxoPvnkkwyuoInUOZJ+oUGOzJQwS/3www/LrPTxxx8fdjPi/yZZ0vLCo9bb2R9uktNu2fJ76L47JuQOUS5k3T0tlF3ir0/ZsoXFkvzPJ5qH7seTsqRi3N0e3Fr06dNHHjxM74dGMZIubcaMGTIF467r/g1ZYwqehwT+SEzFBDUtiVt3pjTsjcPDzLp0MP0GEWZ66ddffw35t5QIH8p0Az65oRGcpDepWrWqJ05Mm+B3DDHleKYo8Ju2ZDvcoOsLD9jQCM9V6v2T6beTTz5Z3B4g8ujPg5h/YlwmEPSlLDSyEh3Yx5QTUyi4dzQPTdvRXx6mPDArVaoU8fpt27bN4JNM3+nHaaed5q2YlioCioAiEAWB0OxaeG8QnyNWP0hG8eLF5T3g1LNZs2ZC4HiO8g4hdiTZYnXEVRGCbmN2eD5bNzlLgpOtG+ez+jnPzXoEX331lalVq5YhriYnxa3fPffcY3r16iWuOTmplz231e/jjz8WVyL4Q8hSL7v5/uijjwqGTZs2tYckdfuf/xyR8/0UIr+Nziltpj57NPZo/fq9pmOXD8zouxvJvqwqlnDyi2KMYCFKBLgx4sGXBAftSAJJw1+HUSe+Ozwg8JshiAy/LYhZkIWHQ8idQ0guq4tw41uh/O233xbCiFXiySeflF2PPPKICU15GW42SD795QbFAos/sZUFCxaYG264QQIDGUW+9NJLEjxHWWiazlbz3D7zzDOCoedOj0LwZ6CCpdpagNHPWitCriLyHd+70BSNYXTJdbMkGUsGgxXI86JFi+TcWGF4OFmB9HLsRx99JP98DAy4T7CU4J/MC0JFEVAEFIFoCDC7ZgV/2aCJl36QDAKfMRjgD2oFgw+Cj67T99buT8QWUksMCsLz2hpJIGz49vIcJh6E9xSknHfxsGHDEqGKZ5uR9LOVIb3k6n/vvfc8fb5tvURtM9OPOCDefRiDuKbMiidzUBNJPxvTQ3wP713yHhPofvbZZxus6NyjyZKvVvwaPlXzZn+tynZWrRKmQvmjlt2QN44ZPmKJufyyqqZL5+zlP04K+QVAiFe7du3EsgmBxao5YMCAcGftF6yI/MMRLEcQA9+RoUOHyg3TunVrMclnNnVv20vWFpLOA4JpBKy+fCCn3PD2QYIu4IC1NuRDnU41ppDoO9khbrrpJnmw8ECE/HIj1q9fX+ozIuOfxzl4IIDOj1SpUsVPtXAdyCuEmmkaO/IP+WeH9w8ePFgGKEuWLAk/pLmu6AMO14ZcLOz146HUs2dPuQfeeecdE/J7lofpNddcI0tn33nnneGHFhiNHDlSpv+8glfCCugXRUARyJMIECDGzBREjBlFBui8Z1iIyT5zchIYv/pBOvhYwUjE8xS5/fbbzUknHX3x2zrx2DLD+Morr8g7BwPEnDlzBEesubyfId5WeK+NHTtWDC0YdjBGsQBIrO8T256fbSz67dq1S64770TeP8mQWPRDH97bvDuZ1YQTcG3vvffehN2rfvWjHoLbA26YGOfIxAUH4Z0NT0nUPfjOuxtN0aLHm0OHDodmOPaaV1//IfQ/nM9071Y99KkhelWrVky29s/z09cZrMHTpmZ/gJvPNproLQDygLL/6IDsFemIZdhmiXBGGmLthQRiFbZ+SInWOZb2Z8+eLTfNl19+aX744QfpGyNl0u/07t1bpvNte1hI3YJvNPXwi0bor3VjsBHOlPPwweWBKYrHHnvMYAnGVweimSjBUmujo4kItcI/S5cuXcLEl3Jn30jlZqV9+/bSH1xYeHAiRJaykhISCgqQLX9CgYBiMeYhoaIIKAKKgBsBLH3ffPONuAXgy8vsGs9JCEUQJCv6MWPGO4BnJIahUDBcwroC2QE//GMhjxhvIL0QHzIUuQVfZN41zFTu37/fnH/++VLfXS9ev/3qxzuWVdAw0Fx88cXxOn2m7fjVj4awnC9cuNDcdddd8m7DqIcllhlwMpgkQvzqx7W3glW/YcOGQtKx7PN+ZuY3UfLNyp3m29W7zIaN+8wJJ+Y3t49oYD6afZm58/aGnqfcuu0P8+j4r8wFzSuECHkBzzqxFB4d3sVyVBbrQuj4ByOtGT6hpKvBoolrgBXrq8N0ebFi6Vl/0aJFpRoEOegWQfrFw4sbHjcHLKfRUsMwDbJjxw55iK9Zs0Yspz/99JP0l4eiFdwhGJXxT2P/cbAwT5kyJaF+slh5mRbBKgH5ZhCDBZd/ar+CpQArDS4QiJ1y4bv7QY8VnIGOiiKgCCgCbgSwojln1Nz7c/p3rPoxU8YzlrgHlo3F8MN3LLGJCNRjyh13xMyE5zAxJhiveObjqofxAl9RpsXxT3b6K2fWnt/9fvWzfcDdLpniVz9ILm4EWMut8L62gtsLs73xFr/6Wb24x5yDHq51KGOVuOUQt5UI6du7ViiW6ygumZ3jhZDV92AoLdrf65bIrKqv/Umz/FptsN4yeoTcMsJ1kyf8RxH+6fg4xQa7WWdt574gfnc+nK2F00tP/ID4B2AwgM8rwYEQROfx9jgsvhBQpk1YEIR/LKatvFxI7DHx2ELObZ5mLM7kfeT8sUx98SBAbOSrnQWgLJSSxEycODH8we8tJ6J20UVFEVAEFIFkIoBlFWMG7m8QXyyaWDKx4OWU8C5q1KiRuBLY2Tp0sTE36Ij1OKcEAxrvjVWrVsn7M5SizfCx7w1mRPnN+zGnBMspVmmna6INfkenTaHczjkpNmjROWOLPtbXNyfvPzcus2ZvliL3Ihjuen5/J538ohgELtJIzfqWUo8sAU6xv53BAQR6VQplEQjljXRWDcR3J+GN5qMM2SWBOIEGJDy3fkv4DbsFizIWASzA06dPl+8EeGAldlqI3cfF4zeWCQR3FXS2vyO17Ry8oJu16lv/ZawGVhgAkLXCfvjnIwBQRRFQBBSBVEaAuA5mRCFIGINwJ4MM489siWZO9J+ZOd5LPMdZlMEKwVtWnFZMW5asLSSS2Uj8q4kTsR9rHGOm1cbYJEsn93l4ryGkD7VCgKMVsljlpHTo0EFOzzW1uFFg3SGs62VO6si5f//9P2br1j9EjaJF4hMEH3fyC8kBSKbwIW+k82KE5hYC2JhCcQsk0fqv4hvDsfzz4ZwP6YMgMu2PcB7KeUgw7Z8soY9MBTEytoIOlPGBiJJ2Bf0RUoOFFpOQ74cOHQo5eB+S77TDdzutRRv2wYJ/lSX7BEHQLoL1lOADm26GwARWnMOi7vwHk8oR/jBit7o6+xBKnC7lWOS9hGBDplMQViGy+Si96lLGyJs+IvgTMY3C9SO7A4K7i72WDIa4VxAeGPgA5/SoWJTRP4qAIpCjCNjnlfM9wjOKZ5hzgO2lpH1WU5d2EF7y/LbPYa/jYinLjn5M2+PmgDAjOmrUKHF9I96B56PfZ3pm+oIdfbbCe4Tfzue/3We3EDOe1wjWS4T3unW3Y0VQpyFKKmTxT1b0YwaRd5D9YDRiJtJmCCKwnN/O4L0sqic8JFb8OBfkkhnrzp07y6m5X8nQhHB9CQKPh2QFP85L4HnLli3lPU1MFkJ6PSy+3Htud0SpkIU/ofVRQjztv+bPf//1P0gTB0OBbpS5Jvg9W9++/SgnOTG0Klw8JD6tODRhFAaxhZBxoUmKzYVnqtwt48ePF6JjlwW2+yFNZBrgJiEfLheBD4FQZAWwvsD4q0AqCYAja0CyBMJNH53C9JBTcEc444wzZJlKXBJsxCT6Ll68WJbmJJoSEosFl4cKS0CDF743rFFPSjHIIcsSsw8yiEWUfxpSgeEDzQCjTJkyMv3jPH+07//6178ER0bOXCN0RQhi4KHIQ4/UY27hn5h/BqztmVl9ORZ9LS4Qa+4Drp/1M6IOpBfLPdNDONszEOA8zA7g2qGiCCgCeRsBno88J3j28azimUWgLcSN2SRmiyIJy8zjmwoBsscTaIRlleesV9B1pLYilWdVPwwdvAMjCc/FeAkua7wrcCuENBJUzju2R48ehpSVXgKJ5B1E3AokjilynulgSWAeOFoXNq/jYynLin7u9nl/8J6x15nsD/QNsh5t5tXdjtfvrOrHu5SBDFiROcEO2sCTTEqWy3idM5ayrOrHOZh1IG0d+pCVgvuSe4+BWWYGLr86ksnhnjGfh+6XY0zhQscZHFp7XvdRiHQfMZ8u6hziBCdEbapMmYIhTplf/vfLlS0Uta7fnceEHiTpHWs9joSkQc5II5NsYeTODWOD3RJ1fnIEsiiDJWuJOk+0drkU5NPlAe/0C3Iewz83RJoACYgzdd2DB2f97H7HGs2UF6N8Hnr4WOGX9uGHH3o2jb+VzQyB5RoySxt+/smxoNA/P3U9T66FioAikCsQwEiCtap79+6B1BeXNfxcR4UssUEUrJDEiEC8kyFYyZmu532DscXG30Q7N4HtTl/haHVzYh9uJuS19dOX7OrHu50ZTfgMgwg/1mgGaGSywIiWDEE33FwwvDkNVJHOzYxF2za7TLEiR91gItWNR/lvvx0KDWyOyZQo23MtXnLYbNxUVbJX2DLnNu6WX2fj8fiOxTfRxDceesajDf4JM7vprAWZEbedkorHuSO1waifkSEuHIxWIb/uHMWRjqWc6+eXzDJi91s32jl1nyKgCCgCikD8EMCIERT/z/j1Knkt8W7PSf9tPz3lXc1sQFClZMn4Lk8ed5/foAKnemUNAZv+hKkjfLSvvfZasZB7tUYdZx5gchfjp62iCCgCioAioAgoAopAUBAIvOU3KEDlVT3wUWaqC986gh7wNY4kWKXxWcb/CGEaxaaui3SMlisCioAioAgoAoqAIpBMBJT8JhPtXHgupkIILuGTmZCX2Cs3cWbH6X5FQBFQBBQBRUARUASShYAv8osvJla8nEwWnQxAWLYx1fuYDBz1HIqAIqAIREOAYDdSjgX1eUtmBPw0g6ofQeD44QZVP649gdi5Qb9kBLxF+1+ItI+gOPLtJjKgPdK5/ZSTGWr7L/8NBa76opF+moxrnYMHj4TT3nk17CvbA0vw+bH8eZ1AyxQBRUARUAQUAUVAEVAEFIFkIkCgfq9evTxPqQFvnrBooSKgCCgCioAioAgoAopAKiKg5DcVr6r2SRFQBBQBRUARUAQUAUXAEwFfzhr4ZrH6R6tWrTwbSYVCkq4TrBXkPHepgLP2QRFQBBQB0iKyQhsLCwVRfvzxR7N06VLTtWvXIKonC4RMnDgxvDx8EJVkhbCRI0cGUTXRCf1YOTCoPr+sxNqmTRtTtmzZQGLIQlctmh8ILXpyJJD6ff7FH2brtqPLKbuV9EV+cWzGuT6ViSFBfaVKlUrpProvvv5WBBQBRSAnEFi1apUQuKC+U1jRDAmqfqzwxsqZQdUP7Pbt2xdo/QhwB7+gkl9WPC1fvnzSVnjjmsUiCxYsMCcV+cPkP3ZPLIclrW7akcPyjIl0QnV7iISMlisCioAioAgoAoqAIqAIpBwCviy/2ek1oz9SdgQ1XUdW+vbZZ5+Zr776SpbuZdR45MgRSdtz4403msWLF5tvvvkm3T7O0a9fv6ycKlcdw/rl999/v6RnYenlW2+9Nar+TzzxhGFWwUuY6vn73//uuaQm50n2aD0V72Mv3LVMEcjNCJCS85///Kc57bTTzD/+8Y/AdSXo+gEY7y+WsB8/fry8uwMHoiqkCMQBgYRYfvkH/+mnn8xLL71kzj//fPP222/HQdXgNMFURKVKlcxTTz0lPk2//PKLqVmzpihYsWJFefDyAMbfiTx9Z5xxhuxjGuPCCy80rVu3NhA4v7JmzRq/VX3Xy6ou0U4AIWWFt4ULF5q5c+dGqyr7ILf4k+N79cEHHwiGderUMTVq1JAV5Zo2bWoGDRokOaZtY2+88YapXLmy1Ldlidqm+n2cKNy0XUUgJxD47bffTIcOHczWrVtlmxM6RDtn0PVD9xdeeMFcG1rCvk+fPkp8o11M3ZfrEUiI5ReCMnv2bCGBEMNYiF5uQLRChQqGz1tvvSUkv3v37qZq1aqiOuSXz2uvvSYJvlkemLoIOOBnlC+f/zEHD/IxY8aYl19+WdqI15+s6OLn3BdffLHBEX7dunWZVmdgBG7jxo0zkF6c+62wjDI6MsAAP2tFJjk+/nj4vCVaUv0+TjR+2r4ikCwEtmzZYjp16mSuvPJKM3To0GSd1vd5gq4fHcHS++qrr4qxineYiiKQygj4Z2ExoHDFFVcYIhUhfipHEcD9gyjnJUuW+J62X7Zs2dEG4vgtK7r4PX0s5D6a+0LLli3llDjWW7nqqqsMkdjJWHRF72OLum4VgeAi8Ouvv5qOHTsajBBBJL5B148ry0zl9OnTzbvvvivGm+BebdVMEYgPAgkhv/FRLfVawZJJhC5LZzoFK+bXX39tli9fnm7Jz927d5tHH33UWTXDd/yN165dazZv3uy5jzbwV0WwwuPugETShX20+d133wnJ5LdbaA9Sbtt174/X7y+++EKaatiwYbhJ0iNxXlwSnEJ/Vq9ebdavXy/6O/fZ77jiMPhgyU0sMSqKgCKQuxHgWUU8Bc8IXKSCJkHXD7wWLVoks2+Q3xIlSgQNQtVHEUgIAkp+EwKrd6MtWrSQAK5u3bqFKzC1fs011wjZJIiOvJcsyQf5ZAoPUgtha9++vXxWrlwZPva9994Tn2q2M2bMMJdeeqm4HFAB0nveeedJKpc777zT9OzZ01xyySWmcePGkl/TSxeOmzNnjvjt4vuFW8dll10mZezDZQN/MPJL4tPbrFkz88ADD7Ar7sJAYNq0aaZBgwamf//+0j65mKtVq2Zq164tfsX2pEzV9e7dWyzq5KOmb+BnhQHH5ZdfLhhBfMEXHH7++WdbRbeKgCKQCxF48sknZSCL61QQJej6YYgZOHCg5PE/88wzgwih6qQIJASBhPj8JkTTADfat29fyYPsVPH77793/pTv8+fPl6k5Ah+sEBQ3depUc+6550oRPrBvvvmmkFaIKNN5BQoUyODz+8knnxjOCwm1Dy2IMSQZkoglhKwUBNfhL/zcc88Z3Agef/xxsYx66bJixQpxVXnssceEeKMQukEWaQeS+fHHH5sbbrjB1K9fXwLUWDeb79ZFwfYr1i1BcjfddJMctn37djNv3jzTpEkT8/zzz5uCBQtKOT59kF+CBp0ChhB98ODDcViBwA955ZVXpM/Wb5h2IMdYi1UUAUUgdyJAVgIG35MnTzbHH3984DoRdP0ADDeRk08+Wd5LgQNQFVIEEoiAWn7jAO7TTz9tsL46P1gWvaRkyZLpiiFg9957r5BYArk4zg+RJAgOq6glvjSKRZTfBC5YYeEOyDOEEYvz559/bk444QTZ7dbloYceMkWLFk3nT9ujR48wET7nnHMkMK148eJyPISYxU8gzdkVMjvg4sEHso6LAunSyAgBrlbcOlOOdZoMEVaI+ObFw5QjwpbVmiD++AsjWJN1ik+g0D+KQK5AgEGxddtC4VtuucXUq1cvMJkdgq4faSVxfbOCIYNn6+jRow2LPKkoAnkJASW/OXy1efBgscXFAasvKWZ4oEcT0oPh30ouS7eQGQGi53xJkEnBj2UEv2PSiDkD1njBoBPC8s/kf+SBSeAZ02X44PKJt6Av2DAtN2DAgAx+0s7zPfLII4LZkCFDZDnSWbNmCeG1GBAcBwYMGLCIM0jYs2dPBmu9s039rggoAsFBgAExaRRtDATPOAbdPCOCIEHXj3cGbmp8cIlDcF/DKIKrnYoikNcQUPKbw1ecBw/BY/iGYcEk+OC6667z1ArLMO4BWIshqNay6axM9gQ3GbWWWmc9r+9kgLCE0Ws/WRew0OI3SwoyiDCW4kQJltnTTz9dUpt9++23nqehr/gz33bbbZLqiJeQ06eag6gDYSffNPWY5oPUY/lQUQQUgeAjQG51nnfM3mzatEmIG/nTzz777EAoH3T9MCaccsopQnwxAvA85V2D0UVFEciLCCj5zcGrzsOcIDRIHmm1GIlD3rDA2mwGkFzrm4q18qOPPhK3BazDZHlwC/l1a9WqlaVpLPxmN2zYED63bRviCCkmmIwXDn52J510kryMIOQIPsS4VMRTSBGEPgiLingJeKAfFiHyBiPOHMCsOIffMnmX8aseNmyY6IpfsM0m4dWulikCikBwEOD/lRXbyPPNYJdc4u3atQuMgkHXD6CI3cDA8eKLLxpWI8Udzo+LXWBAVkUUgTgikFDya1N62W0c9Q5EU5Zk/f777xn0sfvs1lag7sGDB+1PsWK8//774d/HHXecTM2zRZiut2nMIMXVq1eXckgcRJfRuxWIIIFcZHewQoYGtw52n1sX/GAh2pMmTbJVZLUkfJqxKKMHD08rBN1BfvmwCp0l6bTLef2Ixc6SfXsM03SjRo0S0o0lHMsKYtu1GG7cuFHKrV4MKGygG22DEWVYqq1VmwEFPm6QfT9i71+79XOM1lEEFIH4IoDFsnDhwmK15H+ahXCCJEHXj3gQ0sLxnF61apXM4oGniiKQFxE4ymTi2Hsi9SdMmCDT4/xzYdFkpN6qVatA5mKMtetkDyB7AkST/vFAKVeunCFtGaNq8iWS7YF9pAarUqWKlNN/Aq4gYWRlmDlzprgNkFaMDA20gS+b04+NaSmyP5BVAfJJ+0jzkLvElClTDJkZOC8WEYK82I8FFL+uzp07S95biCvBafjEsgIbLw63LpwDoo3uY8eOlYcj7gGck3NAGFmGmGTo+AAXKVJEHqJc5xEjRkjGB1K24UNm+3jBBRdItga7wp0bZ/SzKck4P0QV0o+bAnl4IbxYdK0bA1Zx/HvJ/gDBhwiz78svv5SlpDn3Dz/8IFkjIM6sGIeFgyAP3DOsfxsWc/THhSOapPp9HK3vuk8RCBoCBMDitnTHHXeIOxTBsEGSoOsHVrh78azFdY3nr4oikFcROCY0Csw03xPTyjt27Ijoi5oK4DGVD6Fs1KhRUruza9cu8cWCZEKKCWJzR95CBiGU7LOZGpxK7ty5Uwhj2bJlncXZ+k46NkgyD3S3QCbRo1ixYrILi6j97q6brN9YjskQwUADss9vcCtUqJAEy+GmwQCBOmXKlMlxfZOFi55HEQgiAgz2+X9kVbZYhGfktFD+b9zFyGSTKGGWjTznDKJjkWTpx2ze9ddfL8aKWPSjLu5ePLMxiCRSiGEBw6AKbjQYjnhfBFEYqJC6E1fDIAqzqW3b7DLFivwVQBk0HRcvOWw2bqoa0eCaEMtv0EAIsj4EISBemRus3vhmWXcHW+bcJiJll1dKMXvO0qVL26+yzWniixJYjMmWYYXf1nXE6gcRdqaGs3V1qwgoArkDAQwDkQKCg9CDoOsHRs4VM4OAmeqgCOQEAgn1+c2JDuk5FQFFQBFQBBQBRUARUAQUgUgIKPmNhIyWKwKKgCKgCCgCioAioAikHAJKflPukmqHFAFFQBFQBBQBRUARUAQiIaDkNxIyWq4IKAKKgCKgCCgCioAikHII+Mr2wCIBw4cPT7nOa4cUAUVAEVAEFAFFQBFQBFIPAXKBP//8854d85XtgaURWRCgS5cuno2kQiELNlSuXNlUrFgxFbqjfVAEFAFFILAIsLwu6QiDlqvXArZ9+3azevXqwK6ARhpH0ogF+Z1M/vqrr77aQhq4LTntyRMf1FRns2bNkswcNiNU0AAkZV6XzieYSqcdGzTVRJ+FC/eYn7dViaibL/LLAgHkVbzqqqsiNpTbd5D/NSfy/OZ23FR/RUARUARiRcDm+Q3qO4U8v6wQGVT9yPP78ccfB1Y/7odXX3010Pqx5D3XN6jkd8WKFaZt27aBzfPL/0e5crtMoYLBzPN70kkFDIbbSKI+v5GQ0XJFQBFQBBQBRUARUAQUgZRDwJflN6u9ZnS6Z88eE2l526y2m9PHsZzu4sWLPdXASs5CCqwUl1MjShbtu//++w2rx7FC26233uqpa24pfOKJJ8zhw4c91WVVO6ZOq1WrlmE/OCTzGqTq/Z4BWC1QBBSBLCGAqwdLxLOoESuMqSgCikDOIJAQy+/u3btNjx49TMeOHc2wYcNMvXr1ZJlIlstNBSlXrpysuDZjxgxz3333SZfq1KkjZZD9/v37i6/YDz/8kCPdhfDVrVvXLFy40MydOzdLOqxZsybDcSzdeeGFF8qymD5Wxc5wfFYLILd//vmnYP3BBx+YmjVrGvCuUaOGwXewadOmsoQhLxYrLFuJDzf1Ey2pfr8nGj9tXxHICwiwZHyHDh3M1q1bZZsX+qx9VASCikBCLL8DBw40rOt9xRVXSL/x/aGMtdwfeOCBoGLhWy+sjXxwSN+4caOQfBsod/HFF5srr7xSHNVZtx4LsV1m1/cJ4lARPT788EOzbt26mFvj4TxmzBjz8ssvpzsWwrt//36TL19CxkzpzuX8cf7558vSxePGjRPS26ZNm/BuojnRi3XGmWGwVm7utUOHDhmssYmWVL/fE42ftq8IpDoCW7ZsMZ06dZJ3w9ChQ1O9u9o/RSDwCMSdxezcuVMc8bGAWmF656STTjKvvPJKxOlrWzc3bSNNqWMZ/tvf/ibE+JtvvsmxLmWVpC5btsxT5/z585tPP/3ULFmyJKnuBCgTCWv2tWzZko1ZsGCBbPlDIMOPP/6Y8GjovHS/h8HVL4qAIuAbgV9//VUMJBhDlPj6hk0rKgIJRSDu5PfAgQOiMGlYrGD5xA8WK9ymTZtscUpvrVsAhNEKbh9r1641mzdvtkXhLfuYPudBiWC13Lt3b3i//UK7lDOFZsWWbdu2zRZF3e7bt89AcNm6BR0effRRd7H85jxcXy+9Musbx+zYsUPawX3Cr66eirgKSbmCNGzYMLyHVED0z+kKwU76QAqj9evXm0huOGT+gOSjIxabaKL3ezR0dJ8ikLcR4BnTr18/eTYNGjQob4OhvVcEAoTAUWYWJ6Vw5CdnrjM3HURk1apVpmDBgqHUGOXidKbgNoOvL/3F77Z27dqi6HvvvSc+q1jBeSBCrgYMGGCYwodwkkru+++/l+AtXCggzaQSwc3gzjvvlIcnRK5FixbiyoDfKzhTdsEFF8ixDDAoiyS0deONN4pvMlbh3r17yzTcbbfdJod899134jsLOWeQ0r59eynHr5l+cG6IIz64uFRYidY3p374C59zzjnm888/NxBg/HVffPHFbOX6XL58uZk2bZpp0KCB+FqjE2mUbr75ZiHq+GVzXgT3G/RGB3DCvQN3ierVq8t+iCx5KQlWrFKlisxUzJw50yxdutSUL19e6rj/6P3uRkR/KwKKgEXgySeflAE0zyEVRUARCA4CcSe/dA1i5hR8Y7FkDhkyxJx44onOXSnxnf6VKFFCfJqx7EK+8EV96KGHxD8WotW3b18JPoOgIitXrhRySV0slrgS4KcLuYRs1q9fX+rdfffdpmvXrgaCybGLFi0SgoZ1EsGqjl8x/tW//PKLlEX6A/kjN+QNN9wg7XOdevXqJd9xHYAEzpkzR6boChQokMHnd/78+YapO6fV2U/frH6fffaZEHXrS8w5J0yYYJ577rlIKmcoJ4jvpptuknIS0c+bN880adJEVnFhcIXgW0f2B0t6pTD0Z+TIkbJYC9eCD8dhjaHPCG45DEys3zDtMCDAWhxN8tr9Hg0L3acIKAJ/IYDLGzEukydPjppvVPFSBBSB5CMQd7cHdxcgSlgWSdZsSYW7Tm7/DWE64YQTTLFixcT/FN/Tf/3rX6ZkyZLSNYLHsExa4kshllR+jx8/Ptz94sWLi7XYEl92QPSwnvIAtUI6NbfYc7nLnb+xeJIlgfMgrVu3lsEIybT9ivs8fvtWqlQpIZFYm62cfvrpmRJ2W9duyeyAWwYfSDSDANK5YY1mgGDFrSflBGGSIcIKkde8oLh+CFusvI8//rj4C1NG5g4GNn4lL9zvfrHQeopAXkKAwTgzWlZuueUWyXTEc0ZFEVAEgoVAQskvpO366683jRs3NlOnTs2RrAfJgBtC1q5dO/mwSlzp0qXDpyVFF9ZcpsfdQnYCyJbzgemuA9FlCh43CSuRgr8ildvjzjrrLPPss88KSSQgjCwFuKTwyYrE2jfcOZxBeFitaSM7wgouo0ePFj9k3Ei8/JFt+4888oi8jJiBwJqOxR7Ca/FnqVAGBxB6rPEMUAjc9DtbkVfud4unbhUBReAvBBiI4+Zm4yV4rmNU4NmkoggoAsFDIGHkl6lippTPOOMMIVwQHaaQSUGVlwQcIHzWuujsO2TVD/HkWIhVNMlsap5jsUhD1AnkwtcVIuxlRXaeB3cVXA28JNa+OYkv7fnR2eu87jIss1iR0RU/Yi8B5549e8osBO4MvKxY190p1MF6/Pbbb0u9k08+2WC9wVUkM6Ever9nhpLuVwRSEwFiAnhOM2tEvMTEiRPl3Xf22WenZoe1V4pALkcgYeR31KhRkgsXnydLepjiP3jwYC6HLDb1cYdgkQ98gd1CDt5atWqZY4891r0r/JsgNR6mtGGF+m7iyFr07jJb327xH2YwwjUh9RwPawgjgj8vgWgI18u2heXzo48+knL3n+z2zd1eVn+TIWPDhg1yeKVKlTyboQ8QWywz5A1GnDmAWRGP2QnWez/33HNlcRYwwS/YZpPwbPh/hXq/R0NH9ykCqY0AzwmCmTHuMMgmsJbZQBVFQBEIJgIJIb+TJk0SIkG2AixnRN7jO0l6LetvGkw4YtOK/iF2G+loVrmD6BKsZgUyhiWcTA5OIUuEDWajnIUdIKIjRowIV8PK8PPPP4d/k12CTBEsZ+wUmy2CMoguWRycqdcIVoP88mFFN0t4mfq36dgg1TYbAu3QpnMA47dvkHg+TqEtS76d5V7fLcZuCzhuExBPXBeuu+66cFYGey6rK4uRILb/4GED3Wib60MZFnHrBsEggIHGeeed56VSuCyv3O/hDusXRUARyIAA7lKFCxeW2SeeJQQ9qygCikAwEcgfb7WwUmJhhEhNC6WgcgoWtVQQchg//fTTQjh52DHdTQo3rIa4d7gFP+ApU6aYxx57zLDsLtYBAq1I82WtkPYYUsQNHz5cLMJYM/m8+eabYrG1dUjHhRUTf+qqVasKcSXbA9kKaI9gO/axyANEjlRozz//vGSRYF35Pn36mCJFisg1ItsCxJogOywWCCvUcU4yQUCC0ZOHeatWrcJtkgaNOpn17fDhw2IBgaCjS7NmzQQ7Uq5B2GnXtkFfvKRz584yUGAf54SogjNuCuThZTCARde6MeDSgH8v2R8YXECE2ffll19KxgeyQKAPwYQQZ9LNoQ/ZMnADYT86Ya0HJ1xFIkleuN8j9V3LFQFF4CgCBN4S3H3HHXeIGxZBuCqKgCIQTATiTn6ZdrYLNQSzy9nXiqwBfGIRsl3wYUUwSBvLI3sJ5ZA3SB2BVl6ZBnjI4r9LZgGINIFztEs2DfxUcWmYO3duhuYJcuMDybPZKajE9ByZKqzgP0taMsgzgXrURbzapDxa37C0OnMCUx/xKvtrT8a/DCpiEYLZ+LiFAQCWYyzrBBHicw2x5XoUKlRIguUgxGBKnTJlyqTDxd0ev/PC/e7Vby1TBBSBjAiQzYZnHnnbMwtAzni0ligCikCyEIg7+U2W4rn1PF5k1vbFuh3wG0KbmTjTeUVr192OMxsF+5zE19Ylz6/T3cGWR9vGokO0dhK5D4ux08LMb2uttzhAhJ1p6RKpj7atCCgCqYMAblK4X6koAopAsBFIiM9vsLscPO2wPL7zzjviCoHvLdkGrK9q8LRVjRQBRUARUAQUAUVAEci9CKjlNwDXjql4XAzIU8tUGX6k+MKqKAKKgCKgCCgCioAioAjEFwElv/HFM0utMc0+ePDgLB2rBykCioAioAgoAoqAIqAI+EdA3R78Y6U1FQFFQBFQBBQBRUARUARyOQLHhIKs0jLrAyuBOfPMZlZf9ysCioAioAgoAoqAIqAIKAI5hQBpTKdPn+55el9uD0zLk/uUXLKpKiw6wepnpK5SUQQUAUVAEUgcAiyeQ6xDgwYNEneSbLTMIkIrV640F198cTZaSdyhLO5DXvcePXok7iTZbPmZZ56RnPLZbCZhh2PUIzNHUFPSsZ4ACyw5szolDIwsNLxkyRLTpXMBc1qFY7JwdOIP+WTRXrPl5yoRT+SL/JI3lgUOWL4xVYXV1ho3bmwaNWqUql3UfikCioAiEAgEWPCGfNpBfadAzlkxM6j6sTQ7Cx0FVT9usueeey7Q+pH3HfyCSn4//fRTWaAKo1wQhfUcTj11V2gdgN1BVM8UKnicIWVrJFGf30jIaLkioAgoAoqAIqAIKAKKQMoh4Mvym9Ve//7772bHjh2y/KxdJSyrbQXpuGXLlplFixZ5qkQ/q1WrZljKmRXa/AhWkAceeMDs3r1bVn4bNmyYn8NStg5u6Pfff79YXljNjpXroskTTzxhWEbZS1gxj2VGuSZu4TzJHPWTvm7r1q2yqIZ7oRG3bvpbEVAEUg8BXD1YYp6VM4NstU095LVHikB6BBJi+YXEXX311WbIkCFm0qRJpl69embgwIHmwIED6c+eS3+VKlVKVj9j2d377rtPTOt16tQxfAoXLmxGjx4tLhSLFy/21UNWBcL3bf78+fLxdVA2K0G48eNu3bq18RHzmM2zxXY4hLRu3bpm4cKFEZdUdrYIucUHjmvxwQcfmJo1a8q1qFGjhvn2229lCeNBgwaJj6E97o033jCVK1eW+rYskVvuFZY8nThxounXr5+pX79+TEs8J1I3bVsRUAQSjwDL0Xfo0EEGwGxVFAFFIOcQSIjl9/bbbxd/rhdeeEF6xgiXD5bQRx55JOd6G6czV6xY0fAhSO6HH34wnTt3NhBiKwRJnHXWWebaa681y5cvN0WLFrW7Im4hoTi4//TTTxHrxHMHhHf//v0mX76EjH+yrSoYfvjhh2bdunWZtnX++efLksXjxo0T0kuEp5WLLrpIyP1TTz0lS0ZbKzL+hocOHTL4ziVa1q9fL4M/iDmkF+Hl16tXL/P555/LzEiiddD2FQFFIOcQ2LJli+nUqZO58sorzdChQ3NOET2zIqAICAIJYT78oy9YsMD88ssvcpJatWrJ9ptvvkkp2CNNmZ9yyilCwvbt22dWrFjhu89YgJMl+fPnNzjUE7EZqR/J0iXSeWIh5tH60LJlSzkF96SVq666SlbV69Kliy1K2BZXBwYbL730Uvgc/E+wrPXatWvDZfpFEVAEUg8BAoM6duxounfvrsQ39S6v9iiXIpAQy++ECROEWFi/RvuCZ3o6LwjuHfSZSEOm753C9Pzq1avFPcLLD9XWxSqJ+0i5cuVsUbotxBqrM5GgfizL6Q4O/YCMoSe+siVKlEi3G99Usl8ULFhQfNOcOzmOc+O7ZlOw2LKDBw+KzzL1aWPv3r0GQo9+DISo7yT42e2DU69o37/44gvZ3bBhw3A1iCfnP+644+Rjd9CXNWvWmOOPP95UqVLF0zKOdZ5USKTFw32kQoUK9nDPbbNmzczTTz8trjC2AvcHhB1XGRVFQBFITQR4DuLmxLMH1ysVRUARCAYCCbH8nn766ZIajS5CMiDDZcqUMTfffHMwep1ALejvXXfdJaTy3nvvNcWKFQufDQLUtGlTs3TpUsO+tm3bSlBXuML/vuC7yhQZ02P4rzqtx7gq4E6B7+jcuXMNxIpgOSu33HKLuFyceeaZ5pxzzjFYHRDcKijDDxZi26JFCwkC69atmz1UtqTPwY2A7YwZM8yll14a9k2F8KI/hBv9EMqaNGkibXXt2lXKIO3kJ6xevbq58847Tc+ePcXflVRy4JNZH6SROP3B7WTatGniU92/f39p9fXXXxd9a9euLX7F9lSvvvqq6d27t1jD7777bsEIrKwwWLj88ssFl23btpkHH3xQCC1EODPB7ccOBgmWxOp+2223pXOXyawN3a8IKAK5C4Enn3zSMBOKS5aKIqAIBAeBhFh+6R4k56abbhKfRkgDZMrpFxscCLKvCT7O5EKmz2SC2Lx5s5kyZUq6BOkzZ840EKp58+YJCYWItW/f3owfP96MHTs2rATHExj1/vvvSxlT9gweyJmIQNA+/vhjc8MNN4j/KOQY31F8San78MMPCyHD2sB3izk+r/ibvfPOO6HcfKdKYB3TcARhWPnkk09M3759hVRDlBESvaMnhBHrBcSNYEbrm4zllMA+FkCxbi7Fixc3n332mRDul19+WXRHt8cff1wswpn1weqTlS1Bctx3yPbt2wVvyDk5HbFkIxB3rO4E/Dll5MiRQtrBgA/HYa2ZM2eOVCOpPJYc6zdMO5BjrMV+5N133zX4wRPYSLtWTz/Hah1FQBHIXQjg5odhYvLkyTKTlLu0V20VgdRGICGWXyBjyp9RL4QK6+EFF1xgnD6XqQQrVtxHH31U+otV9+233zaDBw82WEIJrEIY+UNULalkyhuSC5F1CtPtffr0CRdhRbekkkKsuUyVQzARLLoEEjqtwwRTYWknw4AVrsONN94oxNeWWbcF+3vMmDFiIbU6Uo51lN+QdCtebhbutqgL8eY+gGRiYSa4i1RwfvpgzxXrFss014IPxBuSDtnH5YYBmBUvfS+77DKxjNs64MgLDMKLsOX6QuJ//PFHKWMQ43YbkR0ef7jeEH8CJbGq43eM5VxFEVAEcj8CDLZxg7LCLByZjjSzg0VEt4pAcBBIGPm1XcTaRt5a/EGxUOLLmuqChRSrIMSW7Bb0nYh/VgzCamg/BJvhA4vF2ApZJJyBXlhW8RO2QhYJlmWEyEGeSCHH8c42CGbDqovF0hJnMkkwZR9JrC8y+Sfdgk8rpM8+2CMFl3mVQ9Qh9E7x0wdn/ex859yknsP/eMCAAbKN1B7XipcVKfoYuMyaNUsIr+03wXH0h0EC15iBwZ49e3znc7bnxQ8cIgwJZoCooggoArkbAQba/F8z6EZ4XmKQ4NmjoggoAsFDIO7kF6LHdO7s2bPDvcUyVrVqVcOiFywbmRfELpNMsBUEFosnZQ899FD4wxQ4BNi5BJ+T+IKTe0od6znWTXxOcWWACHtZYiG/HEuGATDH1zfaohvU5dzWyum8RpBaJ7l27rPf3Xracmuhtr/Z+u2D85jsfOf+w4LOwIu8v15C//BNxg+XgQsvM7c/NHUYdGDZp97JJ59ssO64rffu9klxBqF2Yoj1G8FNQ0URUARyNwLly5eXZyezQps2bZKYDGIjzj777NzdMdVeEUhRBOJOfvH/hNRFyufLIhB5QfB5RVhIAfLLIhZfffVVhq5DpKxlMcNOjwL8hnmo4kuGnzFk1VrT8SXFtQBhZbNWrVqZ6dOnm2mhgK9rrrnGo7WjRZBzrJ42M8fRPUZy7ZKay2ZqYOsmuxBsd5mzDed3v31wHpOd7wT9bdiwQZogQ4OXYIWF2GK5IeAPceYAZsW5qVOniisJq/cxmwHe+AXbbBJe7VJGmy+++KKQfnedvPL/4O63/lYEUgkBngMEteLmxiCaHOXt2rVLpS5qXxSBlEIg7uSXKW2EgCwrBIDxgUDh95oqgiUbcVr0+A0Zwt+2SJEiYvGjDLKEtRayawW/UQLjLKkkCwIfp3AOS24huuCIW4MVfHnZz4cUXU4CSlYIIo1Jreb047XH0jaWeivoyKISzqWbIYUEdZG1wQpWDmeGA1Kuff/99xkyV9AXJ4Hk+Fj6gH5uPKwO7q29Fm4fWtw5Ro0aJQOM6667LryghG3X9n/jxo3SpMUWPW2gG22DC2VY2+1gBUs5147MFtEE6w9p07DYW+G6IcnIM2zPqVtFQBFIHAK4QzGYZXaJZwUL7KgoAopAMBE4yqLipB+BVkzFk2kAQoQFkmhXiO8zzzwTJnpxOl2ONMPSuKQag1QiBErZNFZYGSFgWF1HjBgRzpOLtRAL7GOPPSaZHFgIA8LFOu/k2sVKAImEWNm8sASogSEP0ubNmwtRJg0axxAUB7mG7JINgnOR8QGrgxWCDLF0OgPo2Ed76Af55nxkc3jzzTfD50BH+ogVg4AvrJbWGsrxZHvASnr99deLOwukm2wPZEOgHsfj14yfMy4TBOUx7c+qbRDGzPqAlZogOasf/SBbQ6R8uqywZ1OS0Q+IKtZ2BiWQf8g61lfrxoBLAzMT+KND6iHC7Pvyyy8NGR84N9cC9x2IMyvGcS3wn8bFhP1cD6zkXAMnqQUft3AOBi3gxbWlX+hJSjx8f1UUAUUg9yNAYC3uUHfccYe4WeWVvPa5/8ppD/IiAseEyFOmeZogOjt27DBYzvwK1jJyrEIGmaYnOMhaOP22kcx6uBFAaKyvbiLPTXoxCCgPy6wKRAxXBZtHmIAu+93ZJkF2EO1YZefOnUIeGbxEEvoBQYaUUh8rKn6wuGP4Eb998NNWvOowcCFDBJZaiDu/IdGFChWSYDn6Rp+pw0DPC/NIukCW+WAd4sXolXEi0rFargikEgKkTuT/iNiEIApuXAQJM/iNRTAmYORgUGvTTMZyvN+6zKgxmMatLaiCUQgMgyq4qWDk8QrUDoLOxJOQchP+FERhFrRtm12mWJHdQVTPLF5y2GzcVDXi4jJxt/xaFCAJkEmVjAjEg/RYS7NtPRIJywrxpU0/6buc/fBT3+pqt377YOsnY4vFmOBMK/zmg1iMIcJebiT2mEhbjsnKcZHa03JFQBEIFgIYeGIxEgVLe9VGEcg7COTLO13VnioCioAioAgoAoqAIqAI5HUElPzm9TtA+68IKAKKgCKgCCgCikAeQkDJbx662NpVRUARUAQUAUVAEVAE8joCSn7z+h2g/VcEFAFFQBFQBBQBRSAPIeAr2wMpykgBpaIIKAKKgCKgCCgCioAioAgEHQHSstolx926+sr2QOYGcsF27drVfXzK/CadG5H4zkj/lOmcdkQRUAQUgQAhQE5t0giS/zyIQipDUnWSDiuIQpq45557zvTr1y+I6olO5HsfPHhwYPVjKepBgwYFNtXZjBkzDDnus5MSNZHgs8Jp507HmgrlM82Wm0g1Irb9ycJ9ZvNP5SLu90V+yUvK4gUsVpCqwtLD5F5NRp7fVMVQ+6UIKAKKgB8EWFgGAhfUdwp5flnFMqj6kef31VdfDax+3AMsBBVU/NBv0qRJol9Q8/yyuip8JKh5flms6ZRTdpkCxwUzz++JJ+Q3BQoU4FJ7ivr8esKihYqAIqAIKAKKgCKgCCgCqYiAL8tvdjvO9NayZctM48aNs9tUII9fuXKleeeddwzW40OHDpmzzjpLpssYtbEKzxNPPBF1BBLITsWoFFNIrG7kFpK+s8RygwYNZEU09/54/saaxFTb7t27Tc2aNTMs6xxfWrjrAABAAElEQVTPcwWlLe4tlsf2ElbnYzajWrVqGXazsGNOWDxS/VmQAWgtUAQcCHD/szz9aaedFliXCoe6+lURSFkEkmL5feSRR8yYMWNSDkRIx8MPP2w6dOggROLZZ581s2bNEsILCbviiitk+USm9+ItW7ZsMSwhnUhZs2aN7+YhWRD/++67z7z99tviP12nTh1TvHhx8/7775uGDRsa7oNESsGCBYXs4b/96aefJuxUXrhA/C+88EKZRvOxYnjcdAP3P//8U3D/4IMPhPSDe40aNcy3335rmjZtKn5tvHStsKRn5cqVDfWTLan6LEg2jnq+3IcAy8Hzrti6datsc18PVGNFIHUQSDj55QUcKdout8N4zz33mIceekiIx+233y5Ejz5VqVLFvPTSS+bAgQMJ6+K4cePMDz/8kLD2eUDHMmBp0qSJIbISqVWrlmnbtq1p0aKF6d69u2ENcIIlH3zwQfPyyy8nTOf8+fNLYCbkL1ESCRcIL5bnffv2JerUnu3ii3/NNdfIPvrdpk0bwf2iiy6S69e7d29D4MT48ePDxzMYY6CC32AyJZWfBcnEUc+V+xDAWEHQOD6wGEyYEVNRBBSBnEMgoeQXy+jdd99tateunXM9TNCZceOA1PFAu+qqqzKcJV++fObee+/NUB6vAqKlEyn0L54CKUPefPPNeDbr2VYiXyyRcIF4Y21esmRJ0t0JorkvtGzZUjBasGBBGCvuV4IVunTpEi5L9JdUfhYkGjttP3cj8Ouvv5qOHTuKIWDo0KG5uzOqvSKQIggklPw++eST8oItVapUisB1tBtEsh45ciRs7Ty65+i3unXreqYp2bt3r6TR+c9//nO08v++YZXbtm2bTGVTtGvXLnPw4MF09V544QXz/fffpytz/yBS+bPPPstgffbTPj6z8bbWgxUCSbSC9RFLKsLUPed1SzSsnHWxYoKVl2CVpR2mHa3YMrB2C7p+9913QhCd+6LhQntY+jmPW2hv7dq1ZvPmze5dcg9xzI4dO2Qf7hNeOmU40GfBF198ITVxO7HCfYeF2ukKwT76sHr1arN+/XrRy9Z3bkkBBclHR6xZfiWVnwV+MdB6eQ8B/vdJR8b/H2m1VBQBRSAYCCSM/ELOVqxYIX6vwehqfLX45ptvpEEIbjQhIAlfVASS07NnT3PDDTdIAODAgQMNH+sTPGXKFLGSM32N7zCWOSznZ599dvjBeddddxmIBMLDFMvzbbfdJr/5AyFhyvuBBx4Q8tu8eXMzbdo02e+nfUjflVdeKUQNkkP7fAjqy47gZ4qF0rpGMA2PewT4Pf/886Zbt26mevXqBmKPZIaV1WXVqlXm4osvFkwnTJgg1hWIvxUIHn6vpIvp1KmTFFOGmwaBYO7c1XPmzBGd0OOtt94yl112maEsM1xw8aA9+uEU/I9xTWCL+8Gll15qPvzww7Ae6MZxQ4YMMVZ/vhOwx/9PdoQ8pVx7gg379+8vTb3++utyPmZjFi5cGG6etEm4SGC55p6jP/TZCsT+8ssvlz5AfHFhIYDVibWt696m+rPA3V/9rQhYBHhW80zGTU1FEVAEgoPAUTNcHHVitHvHHXek8zOMY/M53hSBZljAIHPFihWLqg9JqhGsaj169JCMB1OnTpVj+/bta6699lrJSkDC8uuuu85AfCGvECHIF+1DviBVZI7Az7hdu3ZCSCHW9erVC58fUseUNsFOliCzn8A7Ai38tP+3v/1Nzsc0HTnysuKji4Vz5syZ0meI0qJFi8TyiU70DWH6j6wYkM8XX3xR3CHwE2Yg4Acr3Eo2bNggWIwaNcr06tVL2mU63xJRCo477jg5P6Sba2bLFi9eLLj88ssvUsYfyCb1CFZkAIBwrSB6c+fOjYoLCb/xb3Zalz/55BPDNeZYFlBBGEQwmICEYg2yemCl516xeOOuwD3AfeFXILM33XSTVN++fbuZN2+ekHwGF3YAxgAAsk1wnlNYwfG8884TfdGZwQGDK+495JVXXhFr8K233iq/aQdyzLWKJqn+LIjWd92XtxHAQIIRYvLkyeb444/P22Bo7xWBgCGQLxH6PP3000JKypWLvLpGIs6brDZPOOEEA/nixe+eOo6kAwmrITgQYOujyZbfs2fPNiRVR+xqLljZLLE+/fTTZZ+TqEmB6w9ZFdatWxe2cLK7WbNmhhX6rM9ndtp3nS7iT6bVwejEE0806I61mjRwbh9T6w4DWYWcQd769Olj/GJFQB7nsNZkFCKLgSWaTgWLFi3q/CnfS5Ysma6M4EXqOfXk+lginK6yxw93e+iH1dWpDxZXfjsD0MCBewnLqxVwy+x627p2ixUZdxU+kGjIPtebjBBYnq249aQcCzeDJisMlnh5Q14RtkuXLjWktGOAgWBNLlGihHyP9CfVnwWR+q3leQ8BBpzOdI+33HKLGCf4X1JRBBSBYCEQd/K7adMmITGQhlQVrIkVK1aU7mU27YtVkwciU9CIPU5+hP6UL19evrpTc0HirHA+BL/YaGJdE7DSYaHjM3z4cMMgxPqU2uOz0r49NrNt6dKlZfCDhRqXBCy80VZaOeecc9I16Rcrgs8gbBYf24gdXNjfbL3K3OUMQMCFgY0VXmAQ8liFa4X/LPk83VKhQgUhks4XJfeF87z0KbPr7W7X/Rtr0+jRo8WFZMCAAZ7+yPYYUpAxS4DLBdZ43G4gvFZHBgTMSkDosVhD4vfs2SODD9uGe5sXngXuPuvvvIkAg01cuGysBANFZpL4/1NRBBSB4CEQd7cHMiAw7d25c+dwb7EgEe3NVCmECL/X3C5YZnnQMbVctWrViN1h+h+XBUu+3NPElvC4iY4tp2H3Me6TYdXF/5JlqBFcTki3Fk1iaZ/ANLJLYFlMhJAL2CmxYGXrOo/3+92NK8F4luz5aSMaLrQNxtZy6mwPnd3Bjs7rQV23bs7jY/mOZRYrMn63pBrD/9gt6EJQDuQfVxrq4B/u9CWnDtZj7gNmMFjUhYEBgzebUcLdbl55Frj7rb/zHgL8H/C/zswI7z4CookzIF5DRRFQBIKHQNzJLz6p7hd+q1atxEKEFTSRaaiSCS9TviwSwPQ1QUx2Ct+pA5Y/rKDIueeeK0EPRP07rb+4KSCZBc5Jpf/9sUTJEiR8g3nI4rOJYDl1kl+Cx3A7wL3Ar3AO2z4WPlwREkV+3Tr5xYr+YjHnfrOY0JbV29ku9527HLLnzD5BewSj4critCZD+vBVpg2/uOD2gSWV6+0WrjnBfsn4XyDNEr7RSKVKlWTr/sO1pY8EvVly7MwBfP/994uuvODxKef64LPNYJZsEpHIb155Frjx1N95DwF85P/xj39I7ALGHRbCufHGG/MeENpjRSCXIHB0fjdOCkMamG51fkjVhZWMMifZiNMpc6QZ/HEhC5AcrGYQTKfgDjFs2DBz5513SjGW2ebNm5tnnnkm7CeMNQ3rGITDElMWSkDslu92JTcwRPAZBWebOguCg19v/fr1DQMN/CxtXepDQqxF07Zrt+x3t08ZU9y2fUgimRgyE0uYbHuZ1bc62ONsfb9YEQBIG6woZwVd+bjTnkHcnC4qLBCCNdRZjwENBHnSpEm2OUnFBp6WqEbDhX4709Jx/SG6BPxZgWgSKGbvC8rpg8XC1qMt5zW05V5bi7fb/5zZBIIBufYEO4IBYs9ldd24caOU2/9NBhM20I226QNl3Kv2PmIQACZ2wCUNuP7klWeBq9v6M48igEsQs2/MsPD/YoN78ygc2m1FINAIxN3y6+zttFCaJVJG2Qh4IsyJJCf7QCpImTJlJKsBbgZYXvGVxMcTUsXInylk6iAQAfCgLgFaTIkxfYzPKothMBVOZgEyIhD8RRlWQ+phXaaMFFSk9oLQ4MPJw/bdd98Vn1rOARmhDaarmXrDmkxwEpY6SHEs7RPkxYIUZFGABGO1jyZcU3w8efjj5sKDn+wH7tRftg2mBSFT9IvUbxB6ew4/WNEOgVxkMmDFJHzs8CsmrRAkj99YJJme5xxgjnUTwoybCtcHnfGPZvBBVgWI7fTp083YsWMF55NPPln6TvYHK1648KIDX7CGHJLNAewY7OA+wPGkeiOTBdjQT86JKxBuQBBxjiM4EaKNxYh7iHZtG5Fca7jONiUZ54Sogh8DK4sF7jn2OuCbiH8vmEDAIcLsw52BjA/8j6IPWSO4z1icBH0IviMYkP3oxL1ZpEgR37MB3Pup/Cyw94du8y4CBJfy7OUZj6sRzycVRUARCCYCx4QsXdFzFYX0hjQQMIX1KFWFlDS81Bs1apSlLkI0IB5YyggGgqxE8keF1DAVjfsD1vCsCtcE657TjcK2BZnCosdUN2QoKwKBgtBB6LFw54T4xQos6Cf+w9bCy3dInlMYiEFCCTrbuXOnWGohuVjOnUI9zm2zYzj3ZQUXzsVxZcuWdTYVqO9YjskQgcsM9y6/0blQoUIyswFGYEcdBnU2G0mgOqHK5AoESPXHvcQAOYjC7BHuZAwAYxGeuwz0LrnkEk9XuFjailaX2TIG8gzWgypkkAHDoApuKjb/fBB1JKYCYyEGsCAKxqu2bXaZYkUyLk4VBH0XLzlsNm6qGl4jwa1TfneB/s4aApApPn6EKeN43NBexMyeHytwds+BJdWPu4M9ZyK2frFyYmGn9730cab5ipamy1nP3U5WcIl2Lnf7OfWbwYPTwsxvO3CyRBci7EzdllO66nkVgSAiwHM3lY1EQcRcdVIEsoJAvqwcpMcoAoqAIqAIKAKKgCKgCCgCuREBJb+58aqpzoqAIqAIKAKKgCKgCCgCWUJAyW+WYNODFAFFQBFQBBQBRUARUARyIwJKfnPjVVOdFQFFQBFQBBQBRUARUASyhICvbA+kX7r99tuzdAI9SBFQBBQBRUARUAQUAUVAEUgmAqTmnDFjhucpfWV7IL9nx44dA5uWxrNnMRaS8oRVt6pVqxbjkVpdEVAEFAFFIBYEyHFOGj1yWwdRSPH4+eefG/J6B1FIEzd58mQzZMiQIKonOrEy5IgRIwKrH+lNhw8fHjElaU4rTu751q1bh9cKyGl93OdnIaROlxtTrtxh965A/F7wyX6zaXPliLr4Ir+kN2rQoEF46dOIreXiHYsXLzY1a9bMcp7fXNx1VV0RUAQUgaQiwKIpEDi7nHZST+7jZCzWQy72oOpHnl/yCQdVPyAmTWJu0C9SPn4ft0lCq7ByKQtVZTdlaaKUXL16tSlabJfJf2ww8/yecHx+WfgqUv/V5zcSMlquCCgCioAioAgoAoqAIpByCPiy/Mbaa1aGOnDgQLoVoJjiOnTokCyRGmt7QatP31hW2K+w0k1OrZDmV8fs1mOhQKa5du3aJaui3XrrrVGbZOlnlvf1ElZBY2nQnHZBoS+s/sZCG1Z+/fXXhK7cZM+jW0VAEUg9BHg3/vOf/5RVM1lhTEURUATSI3D48BHzzLOrQ4uGFTbt20V2W0h/VOy/jr7VYz824hFLliwRU/0555xjevXqZTp16mTOOusss2LFiojH5KYd+IMNGjRIlm6EDLHEMD7DlLEUNOSY5XZZwpOyrVu35qbuZUlXpo6Yolm4cKGZO3dupm1AbsHtvvvuMx988IG4nNSpU8fUqFHDfPvtt6Zp06aCHS8LKywdigM7flA+VuW2h2V5e/XVV8tSv5deeqncx/gn6upNWYZTD1QE8jQCLJneoUMHeR+wVVEEFIH0COzcech07TbbbP/lgLmobaX0O+P8KyGWX0gKsnHjRvPTTz+Z2rVrm2eeeUYITZz1z5Hmdu7cKQTsxRdfDJ8fK+b8+fPNxRdfbK666iopHzx4sAQKUt+5bGz4oBT7Qt8//PBDs27dukx7hi8YmIwbN85Aetu0aRM+5qKLLhJyy9rhLBltrcgQ3v3796ezxIYPSsAXZiqYsfj0009N8eLFTZcuXSRAIgGn0iYVAUUghRHYsmWLGIEIoBs6dGgK91S7pghkDYGt2/4w1/T8yFx+WVUzoH/trDUSw1EJIb+cn9RoWMmOP/74qE7HMegamKqQ2fbt2/vSp127dob6eUWcLgKZ9TlaoEHLli0N5HfBggVh8ps/f34hohwX7djMzut3P4GevLR+//33dC48fo/XeoqAIqAIMDtItiRmkpgJVFEEFIH0CPwWsvj2uGaOueKKaqZv71rpdyboV0LcHqyuJ510UsoRX/qGBdJvBCb1rG8r0/xfffWV+f777y1Esj1y5IjZu3evuEpQgOUc0uWc8scK6eU+wbG7d+82PGAR6tFWJKH+2rVrzebNmzNUsW3t27dP9hGRba34tjJ9J8pz/fr1hvqJki+++EKabtiwYfgUnBuXEq/+ofOyZcuM1T180P++EB399ddfm+XLl4u7xbZt29xVPH8fe+yxSnw9kdFCRUARyAwBnpH9+vUzPMeU+GaGlu7PiwgcOZJmhg5bZOrVK5U04gvOCbP8Eiw0evRoSRfD1HWPHj1M9erVU+Ladu7c2Xc/mjRpInVZKGTKlCnmmmuukfyR+ATjNlGkSBFzwQUXCCHGnxU/afJLQjpxH5g+fbr4EeNHjSUSf1iOw2cW0nvJJZfIsfyuWLGiwTqKpRL3gDvvvFMeulZZ/JHxsSXQgocy0/kDBgwQlwPawkoNqe3atau0wbmwsJIGrkCBAubVV18VtwZ0/OSTT4SMY52N93WFoJLGh/R6/fv3t+qbFi1aCPGmr7hXIPTzxhtvFB2wOvfu3Vtyc952223h4/DHBjPcFqh/ww03CC6PPfZYuE6kL7NmzTKknGEAc95555lrr702KVbnSPpouSKgCOQeBJ588kkxZERKtJ97eqKaKgKJQeCZKavN1p//MFOevjAxJ4jQakIsv5AQiBZ+nP/6178kEIqgISyOeVFmzpxp7r77biF0kE2IHRbF8ePHSy5EyCUEmMTvBQsWNC+//LIQzVKlSon/cIkSJcz7778vZWRCsKQNP1RIMSTxu+++M9dff70kPofo1atXT0isxRyy2rdvXyHgt9xyi/iujhkzxvTp08dgZaUtzg+x5PwQfBKoQ36thXfkyJFCAmmHc0DQ42HNIEjupptukg/EG99hci4TMHjqqaeGbxl8qgl2cwqE/OOPPzatWrUK9wk/YsqsoPewYcNCUypXSH/vvffecJ9sHa8t/r4Q8bFjx5oHH3xQ8Lf+x171tUwRUAQUAYvAN998Y1hI4a677hL3P1uuW0VAEfgLgW9X7zITHlthbr2lXuh/5NikwpIQ8ouFDMtco0aNhORBpEj15bTGJbWXOXwyyBhk7swzzxRNIJRYbJ0EDaLLtD6WSyunn366WGCdZQSJbd++3VaRLcSVTAv169cPl0MmcZtgFSAEogtJtjpQRiAivyHhVtADKy9W6G7duokV2qZpI2Ub2RisELHMA96SY1se65bMDo8++qh8IN4ESUJ6IeIMopxSsmRJ50+xlBMwBwYI5PjEE09Ml1kEXCG8ZKHALaRx48YGn+LMBEv9HXfcYRh8nHLKKeKzx8CFAYeKIqAIKAJOBHguO93EMDJghNDMDk6U9HteRmDHjoOh/5G0MAR33b00xENKJDyzQ/iEji8JIb+QO0iUU6pUqRL2t3SWp/r3gwcPiisBbiBYDe0HAoX1F+uiFdwWnAFjrJDjVeY8xh7r3rIkNZjj2oCvMX66p512mruaZFNYunRpuoc2ZJJARbc88sgj8jDHIoyFFpcAiK/zge8+Jiu/OTcuM/j2Yin38vG17ZJC79lnnxWSTJaNgQMHCqZOjGhr5cqV4g7B4AFrNy+lzKR06dLpqoAngqVeRRFQBBQBiwCDdgwQDOIRnqmk9uTZo6IIKALGzHxjvWnS/HUzcdJKgWPZsh1m5aqdZuTwBjkCT9zJL0QFH1C3lRfLGSTMBmblSG9z4KQQWCynWMEfeuih8OeFF14QCyJWVitO4ksZFksIslso9yMQU6y/1KdtLwstAxUnUaRda0V1noM6PXv2lOtK3mYe9liGEyVYW7F8Y6nF9ziSkA0CyzEBbPgfQ4Qh/k5p3ry5BMPhf4f1etGiRZnm62W6EqL8888/h5viHka8Ag/DlfSLIqAI5DkEypcvL8/Xxx9/3GzatMlMnDhRgqLPPvvsPIeFdlgR8EKgbNnCof+RNDP56VWh2d3fzbNT15iqVYqGUp2W8Kqe8LK4k18snQRcQV6cAjlhvXQeEnlJIL+4G5DlwS0EUsXbamrPQWAXD2EsnJBvttb/19ZhS1BdrVq1PEm2s95HH30k1lUsG3a9djIoWGF1t3gKg6QNGzZIk5UqVYrYNL7UZNSArJJdBIIPYUbwEcYCg4sJ9yM+v7yUIO5kfnBm03CfgCnMYsWKpbPEW9LrdP1wH6e/FQFFIO8hQGAzgcT//ve/xUiA2x8BxCqKgCLwFwKNG5WWFdv+/PP/zMBBC8y8+VtM61YVcwyeuJNfArIY7UI4rEBiCBwich9LYyrKnj17pFt26+wjwVaQf8iuFVaJw6fUWnYhq3ycYrM2OMuoY8mds3zVKkZTP4WL8DPG4jtixAgpQweILlZPKxBaAuXICmGF9p2k1pazYAlCNgkEkjlnzhz5jp52YQsvnaWSxx/qIm4SygzBqFGjZGBArmjngIljGGAh6EDKNqsTZQT2gQ+fNWvWCAYMAggYtMKAhNRDbCMJwZq80LifrRBcB4kma4SKIqAIKAJOBIirwMDDTBXPJhbrUVEEFIGjCNw+ooEpXOg4s3bd7tD/SFoo9ibnyO9fTOaobnH5hnWNzAOQ4DJlypipU6dKiq9UW9mG9FdYEyFrP/zwgzz4nnjiCTN79myxtr722muC57nnnmumhQKlyNIACWP6HDLJGu+0gYWA47ECs4QuadFI30U+YB6iXmVM5UOemZpHaHP48OFixWWwwefNN98M5yO29dGB1F9YKAhWI2sDllxSnRGYSKozBigEjuHbS+YFBBeHL7/80pA5gWA49CWoDpIKUSTrA+WQevpB9ornn39efIqlAdcfzgXxRtAT8gwZxb2CHMcQXqzM1rUCHMjoYNtnkRGOI3UbOOLHS9o4CP+ECROE9BMASGo53CBwMyF7RLly5cQanJkvHv2mv7h4EByH5Z4BHH1yz2q4uqY/FQFFIA8iQJAu7n4EyeKyRcCuiiKgCBxFoGTJE82QwXXN2Pu+NFUqFzW1z0rvIXC0ZuK/JYT8EhiEVRDCAJF55513JHAr8d1J7hmwOJLGzI9AoPiwvjtEzpnCy+asdbbjt8weg4WS6XzwJtuBF0Fr27at4cOKc5BMp1UTP1+yIUQS9kP8sNJiYeYaQ5Lxt6UtchCTy9mv2IGB3/r4LHvpR5AbHxbkwL0DVwWEAYX9Tt5kBgdYiSHmpC6zFvdo58elAh92rMn4O+PPZzNfRDtO9ykCikDeRIDMPLwXmPlM1VnOvHlltdfxQuDq7meG3r/5QlzktND/SLxajb2dhJBfqwZ+pn6i6m39vLB1p+qKR5+dAXAsKJKZeBHjzI6x+7HOWmszZfyO5j5gj0v01p2ZwRJfzmsD1byyXWSmF+2Qo1pFEVAEFIHMEGBQjauWiiKgCHgjcOyxx5irux9NmepdK/Glcff5TbzKegaLABZXrOq4L+Dfik+x9Ye1dXSrCCgCioAioAgoAoqAInAUgYRafo+eRr8lAgFcEPCBJRcuU2wEduFSoaIIKAKKgCKgCCgCioAi4I2Akl9vXHJFKX62gwcPzhW6qpKKgCKgCCgCioAioAgEAQFf5JfpdZL9f/bZZ0HQOSE6EIhGxgGn/2xCTqSNKgKKgCKQxxEg+JT3SlDfKcyokQEnqPqRrYdPUPXj9iaTUZD1Y+YU/YIamLhv3z5ZmZQA9SAK6Vu/Wr43lGXpr9SjQdNxxdehVKrHRM4mcUyI7GW6XBgpp+K9iEHQgFJ9FAFFQBFQBBQBRUARUAT8IdDywgqmdOlC/ionudaWLftNufLNJcWs16l9WX6rVasmK2ilchQrK4SRC5dliFUUAUVAEVAEEocAObexXHbv3j1xJ8lGy6wA+dZbb0ke82w0k7BDWYiIXPrTp09P2Dmy2zBLyYNhUIUV+ch5H1TL7y233GL69u0bztUfNByfeuop07bNLlOsyO6gqSb6LF5y2Gzc9Nc6CF4KarYHL1S0TBFQBBQBRUARUAQUAUUgJRFQ8puSl1U7pQgoAoqAIqAIKAKKgCLghYAvtwevA/2WsaIWK4KxXG0QFkPwq7efeosXLzaY/nFMZ/EKVhWrXr26mTdvniz366eNRNVBN1aJ27Vrl+hy5plnRjzVsmXLzKJFizz3s6IZbi8s0czKcW7BZTzZ00apfE+58dXfioAikDoIEGTFcuwsuMO0exCFvPHPPvusGT9+vKxWF0Qdg6yT4pe9q3P48BHzzLOrTYUKhU37dpWz11iUoxNm+SWSd/jw4Qa/n+eee062s2fPjqJK7tr1/vvviz/OyJEjZaGJe+65xyxcuFCWtYTsx1MgexdeeKFp3bq172wUPFwLFChgWEaYqMxoUqpUKSHt1L3vvvvkuDp16hg+hQsXNqNHjzaNGzc2EGqn4C9VuXJl88EHHziLE/Y91e+phAGnDSsCikCOI0BGoQ4dOpitW7fKNscV8lDghRdeMNdee63p06ePEl8PfDIrUvwyQyj6/p07D5mu3Wab7b8cMBe1rRS9cjb3JsTyS4qTyy+/XKyhECQsvgSTkTWibdu22VQ5GIdDCK+88kpjLarlypWT/m3ZsiXuCmJd3b9/v8mXz/9YhWWOe/bsaR5//PFM9alYsaLh89FHH5kffvjBdO7c2UCIrVx88cXmrLPOkofi8uXLTdGiRWUXASuHDh0yBF8kWvLCPZVoDLV9RUARyBkEeC906tRJ3hlDhw7NGSUyOSuW3ldffVVWCuV9oBIbAopfbHi5a2/d9oe5pudH5vLLqpoB/Wu7d8f9d0LIL6MfTP/k0LOuDnXr1hUyHPce5ECDEFHyQOLq4BTIKRkx5s+f7yzO9vf8+fObTz/9VNwLYnExYJ35WCRS26eccopYgXGPWLFihQxkaPeqq64Si37BggVjOU2W6qb6PZUlUPQgRUARCDwCv/76q+nYsaO5+uqrc9wdLhJYuGKQOQJXuRIlIudGjXR8Xi9X/LJ3B/wWsvj2uGaOueKKaqZv71rZa8zn0Qkhv+PGjROyhJ+vlQkTJtivuX570kknGQgh7hxt2rQxVapUCfeJVGk7duwI/7Zf9u7dazZs2CAWVNwRvISlibG8sh93AitYfg8cOCBJw90PJvyNOeaMM84IW2TtcfHacu61a9eKXgxirOCGwPkZ4NhBDvvQd82aNeb4448XbLws1riGsHBKpUqVDG4dWKqjSarfU9H6rvsUAUUgdyLAM71fv36mYcOGgSW+xHvwfMWVz/1+yZ2oJ1drxS97eB85kmaGDltk6tUrlTTii8b+59F99g/ixwc3AAgvvkPkIyQILFUECynBCpDZZs2amQEDBhgsk0xtFS9eXNwNbF8hvbgf3HDDDQbL6cCBA+WDy4BT5syZYyCWtENuRHylKUNatGghQWfdunULH4L1Gd+siRMnmrlz54oe5CqOt0Bw77rrLiHe9957rylWrJicgjydBMLVrl1bfJ3teZk26927t1myZIm5++67RffvvvvO7hYSj0vMjBkzxBf5wQcfFH9iiHAkyQv3VKS+a7kioAjkXgSefPJJeS9ALoMovJ94J/Gsti58QdQzqDopftm/Ms9MWW22/vyHGXtP4+w3FkMLcbf8rl+/Xk7P9Ak+TkOGDBGSiIUUn5hLLrkkBvWCW5UAN6az3nnnHQkqI1gMCydE15JQLKA9evQwZcqUMVOnThW3BZJWQ1oZFGA55hhcCZgSe+yxx8QnjF5TH2JIkBtuFCSDJ2DCCiTz448/FlJdv359U7NmTdOrVy/D95YtW9pqWdrefvvtBus2xBfCzlKkU6ZMMfj+WuHaQn4JxHMKAYDnnXeeBAPS1yZNmojFwxL5V155xWANufXWW+Uw2oEcg1UkySv3VKT+a7kioAjkPgRw/eNdMHnyZJkFC2IP8D8++eSTA7vYSBAxc+qk+DnRiP37t6t3mQmPrTCPPtIk9D8Sm5tm7GdLf0TcLb+MhBAIX6tWreR71apVxTI5YsQI+Z0Kf5jmhxBi4eQBB6knLRhlkFiEADL8niHA1p+WLb/JfMEqQshDDz0kLgtdunSR3/yhDgF1Vtz+xeecc464lmBpRiDJpCKDSGdXsPASnIjVYunSpRIAMXjwYNO1a1dZlcm279aJcizWNWrUsFUkqpmXAIQXYUubBOLhN430798/6nRbXrmnBAz9owgoArkSge3bt4sLl1WeFbrq1asXmMwOBA3/8ssvVj0xnrz33nuSzSfW+JBwI3noi+KX/Yu9Y8fB0P/IUUPXXXcvDc0el0h4ZgcvzeNOfsuWLSvngZw5Bd9Opq+///57Z3Gu/W7TmWH9JMgNS+0nn3xiTj31VImYpWNkRkDckbPWF5ogNgQSjI+v0zeWByfW4UhC9gVyMfLwIvCMqSsstXziLfirYaHF0vzII49EbZ79PPCx+EOWZ82aJYQXv14Egk8KtTFjxogfHG4Te/bs8cwhbE+UV+4p21/dKgKKQO5C4OWXXxa3NYwGCAN8DBFkBQqC/Pnnn2KAwk1v9+6/lqPFZY6Zu+bNmwdBxUDroPhl//LMfGO9adL8dTNx0kppbNmyHWblqp1m5PAG2W88Cy3EnfxaYmctkm6dGB3ndsH94P7778/QDQg+JBGCzz+Ltfa6p/QtyaUOQjYHSw4zNBqhYMGCBaZp06biN8tCGxBhm4IswiHZKiaQD/niiy8itgPxxu3jtttuExx4ITj9lDmQOhD2t99+W+ox5QbRh1hHkrxwT0Xqu5YrAopA8BHgGcWsFjNamzZtklgMgpDPPvvsQChP8DFB2hBfDA/ffvutLGzknF0MhKIBVULxy/6FKVu2cOh/JM1MfnpVaOGz382zU9eYqlWKhoxhOZNdJO7kl2hRIvftlLaF7Pfff5evWEpzu0BmifC0fXL2B1cAHjL8s7AqGkKmBKesW7dOftrMCfjIEjzH6j9OgSRGIsUEKPBwxeUC/1wevOTcRfAR/vzzz51NZfs77huIMwuFu1HcPNAZ68f5558vu505gBkwYCHHPxpshg0bJrriFxyNVOeFe8qNpf5WBBSB3IMAzzCCoAlkxgBAzAsrfgZJiCHB0PLiiy+aG2+8UbL3ZDc+JEj9S7Quil/2EG7cqLSs2Pbnn/9nBg5aYObN32Jat8q5fNJxJ79YO8lswLSPJYeQMlwCLrroIvEFzh6EwTgaFw4Cw5xuBhDQmTNnyiIRaMmqaEwpPfPMM2FiS30stZBDsjgg+LxCqCdNmiS/+cMqQE8//bSxvlhgefDgQdnPeQhC40FmBXzBmQ9pxmiPjBCI3dq6kbb2ejn7RF2IKYS1SJEi4s5gj7ftWr02btwou6xe6GkD3Wgb0k8Z/bekHis4fWQAEEnyyj0Vqf9arggoAsFHAIsqK2JiVeU5x/suSEI2B9Ku8W5YtWqVzByir4o/BBQ/fzhFq3X7iAamcKHjzNp1u8UK3LJlzpHfo+wpmsYx7iNzwVdffSW+qPh4QgjxhQ1qupcYuycPD6y7+KJCYkndxfQ9y/wS6Me0P0JQ3LRp08wdd9wh2Ryw1GJBJSCMoDLrFoEPLAnGx44dKw8l2oLcEjjHQ5TAQSzpEMb27dubN998U5YhJrE2fsGQUh5opJYjqJCMDzzUmIJjAYo777xTrM9kYvASVuHD/2v16tWym6C10qVLy3cyWmCRRgfaZtlkBJcG/Htt+xBhXBy+/PJLw3nwJSP/8E033WRGjRol+ZCxNhBwgXuG9TXDKo7+uHBEk1S/p6L1XfcpAopA8BHgHcezn+f96aefbv7+978HTmlczHh/sOQ9K3mqxIaA4hcbXu7aJUueaIYMrmvG3velqVK5qKl9Vs64PKDXMSHSdDT0zq3p/34zlY2lk8CuWGTlypWSxooHAQTP+rrG0kay6uI+gJXW+rZGOy+QMbon6AxLK6NoyCojw1q1vFcngcTi2kDwGy4RkQR/YuryIPUjkEmyTNj8u2RGsN/9HJ+IOpBlAgJZ/AOCz2+syYUKFTLoh5sG04PUYbAQi7656Z5KBLbapiKQCgiQJ5xnACkcgygEIZNvnYF7LIKBAoMH2X+cS8TH0oafuriTkT8fo0mswkwez2EyBCVSMKKAYVAFNxUMP9YI5VfPZOEH0SZdKEazIAozuG3b7DLFivwVQOlXR7I9vPTyd6Zt29NMyRIn+j0s5nqLlxw2GzdVjbi4TEIsv1ZLIvn5pJrwzwLxRUgvRjYEPtEE4u/nJvZKHxatXWuhtXViIZL2mHhvsXiT3s4Kv/kgVj+IcFaSqqfqPWWx0q0ioAjkXgRw4YrVSJTs3mb2rkq2PrntfIpf9q7YscceY67ufjQdavZay/rRcff5zboqeqQioAgoAoqAIqAIKAKKgCKQWASU/CYWX21dEVAEFAFFQBFQBBQBRSBACCj5DdDFUFUUAUVAEVAEFAFFQBFQBBKLgC+fX4KVyDYwd+7cxGqTg60TOEaQw4EDB3JQCz21IqAIKAKpjwALAREIG9R3CgHMZLoJqn4ECxJsHVT9uIODfH2d+sUa8Jas/04WJCG4zq4mm6zz+j0P/yNLFu8LBbD/tb6A3+OSVW/pF/tDuaxPjng6X9kexo8fL6m1IraiOxQBRUARUAQUAUVAEVAE8gwCbVqfFkr5WiiQ/d20ab8pX+ECWXTLS0Ffll+7kljQo1i9Oui3LJZUZ37b1HqKgCKgCCgCGRFI1VRnGXuamJLspDpLjEYZW03VVGcZe5qYklRNdZYYtDK2+leqs8oZd/yvRH1+I0KjOxQBRUARUAQUAUVAEVAEUg0BJb+pdkW1P4qAIqAIKAKKgCKgCCgCERHw5fYQ8egIO1j9rHjx4rL8b4QqKVG8ePFiwyon+/btMyxO0a5dO1O9enUzb968iKuKODvO8R9++KHZtWuX1M/Kog/O9oL6/YknnjCHDx/2VI8lolkGtFq1ap77k1HIqkwLFiyQJZeTcT49hyKgCORNBAgCY1l6lolnhTEVRUARyBkEEkJ++eeeNWuWqVSpkizl64ymrFGjhpkwYULO9DaOZ33//fcNPjkzZ86Ulcq2bt1qHn74YXPzzTebjh07+joTD8ACBQqY1157TY6JJ/lds2aNqVmzZjo9IHksackqRJBu53VJVzHOPyC3EP1x48aZunXrCkas+Pbnn3+aTz/91AwePFjWmX/00UfDK8ElU1eiaa+88kq5X4sWLWry50//bzF27FhTv379OKOizSkCikBeQoCl63v06GFq1arlyziSl7DRvioCyUYgIW4PpLE59dRThVwx0iVVGp/ly5ebZs2aJbuPCTnf6NGjhTBZwlquXDmJKoTo+ZUKFSqYnj17+q3uux5EfMyYMRnqp6Wlmf3794ulOsPOBBacf/755pprrpEz1KlTx7Rp08a0aNHCXHTRRaJn7969zYwZMwxZRawkU1fuV0hvwYIFzZEjR8L368aNGw0phVJxiW6Ls24VAUUg8Qhs2bLFtG/fXowPGEkwQKgoAopAziGQ3sQVBz0gLYUKFcqQfxALKe4AqTDVA4Ek7zGuDk7Jly+frOs+f/58Z3HU74l4CC5btszznFg0sbRi8U2W1dcqEu18LVu2FPcRXA9uvfVWOSSZukJ+ma2AlFthsHbJJZeYxx9/XKzztly3ioAioAjEggD5gpkNvPrqq9XiGwtwWlcRSCACcbf8YunFkucURr0TJ040pBNLBTnppJPMKaecYp577jmDddApjRo1yuBuwP6ff/7ZfPbZZzEtopHZMXv37jUQXayTVkiMjfuAlzAwYREPjnMLFs+1a9caEle7hX0cs2PHDtmFS8K2bdvc1bL8m0TeSMOGDcNtRNMVH2v6zdZLSAPEgiXMNOBakZmu+Gk3btw4XVNYzrt06SI+3Ol26A9FQBFQBHwiwLOzX79+8mwbNGiQz6O0miKgCCQagbiTX3xYO3TokE7vIUOGyPQ2pDEVBCsmFuwNGzaIG8eAAQPMCy+8YCD5BPo5XRkoY3of4g/5bd68uZk2bVpUGDI7Bstznz59TKdOnczSpUvNyJEjTa9evcyqVavEFQMCi4WXaTY+K1eulPPhakBgWbdu3dKd/7333jO4JrDF/eDSSy8Vn2AqMZhp2rSpHMd1xF+7e/fuhu/4FK9YsSJdW7H+gKCCR4MGDUz//v3Dh3vpSr//n71zgbtqyv//cp9IikI3dHG/RElCKnSn+qlQERmFpCQiSQkhpSkmTYpQImNSqFTSveimQhckk4QpRWTMvzH/5/0168x+9rP3Ofuc5+zz7HOe7/f1ep5zzt5rr73WZ++zz2d91+f7XTfccIMMpFjZCAmNe0D1t7/9TSQWGzduNKtWrRK8H3/88Vi9Xm/QQZcqVSq2C0w//vhj8eLHNuobRUARUASSRODpp5+W3wXiHdQUAUUgOgikXfbg7hpePQjUBRdc4N6V1Z8HDRoky19OmzZNAtYIWkP2APG1hIx+d+jQwRDkx0MQq1mzprn66qtlgABRdluQYyDbn376qQSRETg2YcIE06tXL/FUzpo1S6bYGIRMmjQpX/XIMSCuBF5Ymz9/vunatavIVKx+GbIMaSYRPd5YgtVoM+S9YcOGsXqRK0CG8YAHtQULFpg777xTim/fvl2kMPXq1TMvvviiaG5tPV5tnTx5spkzZ47p3r27BKBBviH9BKPRFoyBwHPPPRe736pVq2amTJliqw30OnToUMEzUGEtpAgoAoqABwJr1qyR34LRo0dL4LdHEd2kCCgCRYRA2j2/7n4QxESEa64ZpHPcuHFm8eLF8oBDH/qHP/xBto0YMUK6S0aIDRs2iIfW9h9vJR5w9K1elugYvJlkamC1PdqAMWWPt/bMM8/0qjLfNrdOmel9vK6W+FKYAC8+OwPQjj76aIMUwSlpqV69uvnmm2/y1Z/oA15kZBn8Qc7JtEBwJIGCeJ6d5m5rnTp1DAFzdtCAx7ZEiRL5vM+08ZFHHhEy/8svvwg2lhg76/Z7jycbzzuEXE0RUAQUgaAIMJhHEmaNbEA4O9wzoXa/vioCikDRIRCq55epYzx1gwcPLroehnRmSNtxxx0ncgCkBJDRLVu2iMcUDyXpu6zc4NVXX80XAEhmCKufdTcv0TFWr4tH0xrvx44daz8GfkUPyzVq165dgWPIRIG0gIe5Dcqjv3i3rdl0ZfZzKq+HHHKIIXMGXmY82sgvSpcu7VkV5J5+4mVHmkB2BptJxB5AXfzokLqM9iGfePTRR+3uhK94svnBUlMEFAFFICgCDOSRgpHqkucPzycG0jNnzgxahZZTBBSBDCIQKvlFEoCVLVs2g10K/1TIBiBUzzzzTL6TkdcYHS6ZAyCWJUuWlP3333+/qVq1ar6yfh8SHYO2GHN6GPzqYjvez+XLl4tu110OLylklqAMt6Frhlg6zUl82c7x6TDuD7zIZF1ggRQIsJfhLUfrTOQ0i4vgQSdYzWkN8jTVBMNRFkkHnnQGJshBEhn9xavOOdQUAUVAEQiKQKVKleQ5SnYYnAkEeJ944ommVq1aQavQcoqAIpBBBP7nxgvhpOhS8RrmSqCbhQjSt3DhQrNnzx67KfbKVD2ZIPBoXnjhhbKdoC6n4b0l7ZuXJTrG7kdO4TTqhOxhkFRLTHft2mVmz57tLBp7j0wDLydZHtxG/SRjt15f9/50fiYVEMGDGAMIPxswYID8oKCp5p6CtEPuMTTCeFuQn0Cm0SjzA4RHhswPaKkTGW1gUOHneU50vO5XBBSB4okAMimCoMm8Q9wHg2hW/FRTBBSBaCIQOvnNNeJrLyOyhX79+uXzjkLGyGdsZQQEYjVq1MiMGTMmRtI4nmA567klgwFmXxMdgwf5yiuvlDqtBILjSZy+d+9e3oou1qYsg/g5vaMQdluOsr179xZdMmTeGmSZbAn9+/e3m6R9to12I3VZ8mm3+b3agYKbhOIhHzhwoOCBhxYPijVnW8GWPjlXX4Psc37+WNEOwo/0BG+vNaQPBO1ZfbTd7vX62WefyWZn5gevcrpNEVAEFAE3AsRPMHPH7BXPK7L8qCkCikA0EQhV9oDXEV1mrhkkC+9uhQoVZIoeMlqmTBkzffp0U758eXPvvfdKl/GaknmAzxBilvZlcQwyX0CK8UqSWQCMIJp4YG22Ar9jqJjMERBvpv/xOJBrmCA1+7BF70qGAzIhQBgnTpwoD2POyfkh3mRzoAwyAQL3CNIjTRieC6KUOQb5wb59+8SDgRef4wjYg8z36NFDZAo85G0dTh2y85rTd8g0xjnxKkNGkRkQXAbhJQDOpmCjTq+2oh1HUoIsAYLKdUCj27dvX8n4wCpyrNSGNAQNMdpqvMHogIMYOZKxXLxng/RfyygCikDqCBC4y3MbmRsyrmRW+0z9rHqkIqAIpIJAqOTXpv9KpWFRPobMB/SNACwC28ivC8kkywBSAachLYCgQRwhqUzrWy9k+/btDX9ui3cMZTl+yJAhnnWynwcvackguscff7xkoWA7AWxe1rRpU8Pfjh07hJBC6q3haWUKz21e29xl7GewSsaQbXi1lbRx/JFhAoysPIHpRfv+/fffl4EJ1wPMH3744cDSDeo+9thjJUgumfZqWUVAEVAEQIBsODwzkV/FW9VS0VIEFIGiRSBU8utMn1W03Uzv2Xmo2bRipNpiWt25OpnX2fACEwCRjCU6Jt5+8vw65Q5BzpstgYkQVKdZ4ss2PPIYpD9ZY1DhXOI42eO1vCKgCBRvBHgmI99SUwQUgWgjEKrmN9pd19YpAoqAIqAIKAKKgCKgCBQ3BJT8Frcrrv1VBBQBRUARUAQUAUWgGCOg5LcYX3ztuiKgCCgCioAioAgoAsUNgUCaX6LyifZ/8803cxafr776ynzwwQeGBSzUFAFFQBFQBMJDgJUlSXsY1d8Ufg9Yrjiq7SMrz88//xzZ9nHnRPn60j54Ddc3qoGJcJEFCxZIdiTaGzUjL/6cObvN4SXzL4YVlXZ+sHy3KXm492qxtHG/vHRRCZfpIlsBmQzUFAFFQBFQBBQBRUARUAQUgRbNT8hLKfr7SrZRQ2Pz5h9NxUoNJZ2sV9sCeX5JncWqWrkcxUr/yFd7/vnne+Gk2xQBRUARUATShAB5uPFeXnvttWmqMb3VsDjQG2+8IQvwpLfm9NT2008/mVtuucVMmDAhPRWGUEvr1q0FwxCqTkuVrMhHbvuoen7vvvtu07Vr16SzRKUFnACV/OUvfzFNm+w0pUv9nh8/wCEZLbJo8T6zeYt/1ifV/Gb0cujJFAFFQBFQBBQBRUARUASKEoHIk1/3crhFCZaeWxGIKgL6PYnqldF2KQKKgCKgCEQNgUCyh2QbzdrmRx55pCz/m+yx7vKXXHKJLBcZpcUHlixZYlhJzFrbtm1N5cqV7UdZ233u3LmGhSZYqpcVy5iiiooh887kVM+iRYsMUyQ//PCDKVeunCyXzAIcYHT77beHAsuKFSvMwoULPetmdbiTTjpJlplmkRK3ZQqfXP+euHHVz4pAcUeAQSpLtLMID9PuaskjsGbNGjN27FgzfPhwWU0v+Rr0iCgjsG/fb+bZsR/ncaqS5vIWVUJraiieX77cF1xwgWhoIa12+Vxe77jjjsCdWblypUQ6Tpo0KfAxmSgI0T3ttNPMlClTzODBg83NN98sJNee+9BDD5Xld5944gkhYOXLl7e7Mva6detWs2fPngLnQ+NUpUoVM3369AL7wtjw9ttvi27pvvvuM9OmTTODBg2SCFaW//z73/+e1Cn9+uRVCUtQQ7BZWplrxECkRo0a8leyZEnz4IMPmrp16xqIudMyiU+uf0+cuOp7RaC4I0D0fsuWLc22bdvktbjjkUr/X3rpJXPDDTeYLl26KPFNBcCIH7Njxy+mfceZZvs3P5tmTU8ItbWhkN9NmzaZY445RryLjHRJKcIfZLZ+/fqBO0TAATZnzhxPIhe4ojQXhPxC6iFXl19+uVm+fLl5+umnY2epWrWqED7KPPDAA6ZVq1axfZl6M2zYMElP5z4fQSa//PKLIWAiEwbJvOaaa4xd6rpixYrmySefNOecc07Sp/frk1dFxx13nGnevLmpU6eO7G7Xrp1hFoG/6667TgYu3333nTxI8UhbyyQ+uf49sZjqqyJQ3BFg4M5vRePGjQ1OEZZBVksOATy9o0aNMlOnTjVnnXVWcgdr6cgjsO3rn8w1ecS3YYNKZtDA8/O+I/uF2ua0k1+mjA877DCRBbz33nsytc309m233WauuuqqwFM9yAU4ngwTv/76a8Y8lcmiTQo4CN2QIUPM+vXr8x2Oh5G/ojAIuZd16NDBfPHFF3ItvPanc9uPP/4o50Lq4DRkIKlkDvHrk7Nu93s/ecdRRx0lXmCI7+rVq2OHZQqf4vY9iQGsbxSBYoYAg+w2bdpIZotevXoVs96np7vMkpHZgry8ODbUcguBf+R5fDtdP8tc1e5E0+3WzAxs0k5+8fTedNNN+a4Mo15GbKQTC2roamvVqmWuvvpqOQSJQRStVKlSZsSIEeLZ7t69uyT2TtROyPyqVasMnj8v27dvnwEzymFoQ2fPnp2vKKQNXavTa2kLMDXkVzceeI5JNUCK5O9Lly6VBOv2fH6vhx9+uIFkvvDCC2bz5s35ipFSDumI2/zqj9cndx1BPpMgnsEKcoizzz47dogfPpBVEvN/9tln+SQusQPz3iDj4L79+uuv5fo597nfF7fvibv/+lkRKA4I4MRBFnfeeeeFFt+Q6zgSu8GsH+S3bNmyud7dYte/3377j+nVe6GpWfNo0/WmMzLW/7STX8gEuianofN96KGHDGQoqEF2CQhgehwZwfz5883330cznxxSjs6dO5u1a9fKlH68Po4ZM8ZcfPHFZtmyZbJwCDronTt3xg5hkHDhhReap556Sqbo8ZYz2r3++uuF7OJNRfNEuXfffVdkJM5BBTILK8EgmIyptnvvvVfqJ7cmgV5MGbFyDEYuwTPPPFNkCUgE8FJgTM8hVTjllFPMxo0bhcw1a9ZMBjCQ3wYNGpjx48dLWb9/eF25hqwEA0bdunUzkFiIPQGRYGaNbX71x+uTPT6ZVwgudTLIwHNfuvTvq8B44UO9kydPlgHd4sWLzYABA+S6gIk1iPSVV15pXnnlFSG+jz/+uOiJIfJ+Vhy/J35Y6HZFIFcR4FnMsw3yppY8Art375ZZY567VjqXfC16RJQReHbcx2bbVz+ZhwfVzWgz005+3a1nyWC8XATABTXKQ7Dq1asnh5AsG6JCwFRUjS8ngWSshkeCdC97/fXXhTxBGiGCvKL9QsuEEXxFPZAnZBQEaiH9aNiwoXh+Ia0QMTTQjRo1Mvfcc48MKniwsg0joGzkyJHyHgL91ltvxTzuZKVwY4j+DF3ujh07TP/+/Q2BYhjZGfBqM+hg8IEcoFKlSkKs77zzTtGtcf5EAxLaw2AILS3BZxx77rnnxgg55+J6x6s/Xp84Poj169dPzo13nsHHyy+/bBiIMJCw5oUP+wjW4/4j4fjEiRPNv//973xenFdffVW8wX369DHUwUzAGWecYfAWB7Xi8j0JioeWUwSyHQGyEuCYYKB9yCGHZHt3iqT9yETKlCkT2cVQigSUHDrpRx/vNH8asdr0ubtm3nckszr40MkvxK5Tp05JXa558+YJ8bVBAXjVMCLxo2pkeGCUzzQXBMtKFpzthaQy1W9HsHhGyXpgiatNn4YnFsPrirH99NNPlyl6vLNkLcBziuGhJV2XU7cqO3z+ufW3dF/N/QAAQABJREFUFIOckpECcmoN0tujRw8JXCRjw4YNG4TY2f14cvHkc63i2UEHHWTGjRtn8JryQ0B/STXGNkgiVpj6453buQ8PL4F2XCO87gRN9OzZ07Rv316IuS3rhQ+DL3stKAde/LBxrTFeqZNBB3pq7NZbb01qiq64fE8EHP2nCOQgAtu3b5eBse0as2o1a9YsMBNq9+trfgRwMHzzzTexjfwu4rzBOWO5QGynvslKBL79dm/ed+R/TqEHBizLm4kuG3pmBy+wQsnza0+ERpIbGA9mMobkgcwQTNlbY+QMweABUxSpw2w74r2i64L0IM5393nv3r2iF61QoYLBQ2iN/vDFZirekmIeAGhlrU6WrBLWIMbkOISoggekm2P5S9UOPPBAGVlDwDj3scceK8tS2hRzyDkwPJxILawR6Pftt9/aj56v6GAJUEBuwR+Bblu2bJFrixcbAlqY+j1PGmAj1wovLVgOHTpUckn7Hcb+d955R9L00V/+ILx4gAneQ5rC9UDawx/3Jx5urxzCXucobt8TLwx0myKQzQjwrETed9ddd4mUjGczDomZM2dmc7cy1nacRWTiYQaSWV+cO0j7Lr30UpHYZawheqLQEHj9b5+Zvv2WmNtvq2Fu714jT8b5rVm7bod5fXKL0M4Zr+JQya+dYk9GpM70+Lp164TYOSP18apBLEh/BsGMqjFFDuEfPXq0eAvtIg54QPF4EuiFpMHL0P9CPHmI4pFkip20XGy3hqeVHIdEDyNNwPvqJMe2nPOVY8hpG2/q7dprrxXPKHIAHkJ4Oi15sxkr7r//fpFAOOuO9568lo8++qh55pln8hU74YQThHgySOChl0r9QfqU76QeH7gWkF8kB37GoIKAFaQsyEguuugi8VpbHTXHUQYPBdkoeHBz3+P1QSZy2WWX+VUd214cvyexzusbRSAHEOC7zoCY3ynSKkLcTjzxRAnazoHuhd4Ffptw+BCoze88ThIC3Z599tnQz60nyAwCFSqUzPuO/MeMHrPOtGpZ1Yx97hNTreoReTPZRRPEGKrs4dNPPxWvpl+gG8FbbiOrAVP5TuJLGQKn2BbVrA+2HwQyQerwCH7yySd2s4H81q5dW7I8xDb+9w1T8HgRwQuyxPF4VSFmTNU7DU0wD1UkBODKA5e8vRj6YCQSnBuzmlMGDIk8w3ik0RETUTs+T4tMgJ01AvAwvPFOIxiBNHZ+xvl5gHkttoG8gIcdD70g9afSJ7922e0QVQyttp9xP0JsuQ4QX8yZIxly/9xzz4nnF11779695TqgV49Hqp3nK47fE2f/9b0ikO0I8H3nNwrnDYG8zBS1aFE0Hq1sxZJYF2YhcfogueO3NIjzIFv7W9zaXff8Y2XFtl9//be57fZ5Zu57W03jRscVGQyhk18/4ssNXq1atXw6U8gwZILtbmNhCUgfU0lMExe1EaQFufUKbkOT65XPEWJEGizIrjU0ouhfkT7gGYZoQbh27dolfUV7a/XDEN0vv/wy38o27If88kd7IJzIJyDblMXI4GCvgx1wIMNwG8FfRCaDr5VgUIYANYgxAWKWaLOdQDRIezxDIkCwmZN80w+C//CQYEHqj9eneOe3xNt5fspDTJEqENTnXHXQjY+VnvBQxmj7rFmz5D11o4VmG154iwVEnetpSb0UjvMP8muvj7tYtn9P3P3Rz4pAriKAx5JZLFJT8kwge41acAR4xjPLxm8Ys78EJttZweC1aMkoI9Cvb21T8rCDzPoN3+d9R/6TN7gpOvIbquwBAocm1cvw+vGDz4IYGMSKkR+id7IIoP1h9IdByJj+J3UU5dFqQoTtdLEUyuA/pAFoeiE/BPOhHyXNldMgvxBT2z/24RnEq0qgF0FeVteLpxcDK9JuMXWGRxT88CSw/fnnnxc5AuelPNIHiBsPCjJM9O3bV0gkXgfKk02ChzFp0mwAHbo09KvsJ7MDRK9jx45ybv6RVQJJAnU7DSKHd5OpfggreXEh7fQHUuxntI0+4lXGa0rgIpG7LK2MLtZKB4LUz0PQq09+5yY4kqlHO1AiaA1JCcZggMELbQe3448/Xrb74YOcATkL+jOIKnregQMHyip/3KPopI844oiYPo38wVwbHt5BLFe/J0H6rmUUgVxBgFVNeaYhD6tevXpKq1jmChap9gO5GLO7OImscyTVuvS46CFQrlwJc0fPs83Dg5ebqlWOMGedWTSSB5DZL4+g/C/0zgcrvJF48JJdlQsSgBcskSbV57QZ3YyMoEGDBqLJzcSJ0cPiHeCBaY2pM7wFkH8IIcaCFBBeiL5zBTkIF55im6MWCYJ9b+vjmuE1TmZFHHIOQ1j9DO8m3lBIMt7leMathRcE8o3HmNE83mhG+KQC87JE9afSJ6/zJLsNskzwHmnfkN/wGW8ygxuwZyDHQIUyEHv3tYh3vmz6nsTrh+5TBIIiQE5tvi/EGkTRmNFDLsYgNxnj+YWDg6w2Nm1kMscHLYv06pZbbhGZWtBjMl0OhwMYJmvMyvFMRf4YpiFTwUnilliGec5k6mYgQHpNHH1RNGY7mzbZaUqXSm79BbI9vDxpY14s0/GmXNkSoXVt0eJ9ZvOWavnSkjpPFqrn1zl17jypvjfGnVILGQLEkAeGJb7ghEeRETBaXIisDVqzXkyLpRfZchJrWy7Razziy7G0LeiXkYeK9ToTPIeHnL94lqj+VPoU73xB90H0nXIcPlvyb7GHCKdyz6dyTNB2azlFQBHIHAI8v5J1EmWuddlxpkS/EdnRC22lHwIHHLCfue7a39O4+pXJxPZQNb+Z6ECunAMpAtpTskOgCcYDyx8jZ6bZmV63xDdX+qz9UAQUAUVAEVAEFAFFINMIhOr5zXRnsv18kFx0qDNmzJD8kHhLyRCB3tfpdcz2fmr7FQFFQBFQBBQBRUARKCoElPwWFfI+50UmYKUCPkV0syKgCCgCioAioAgoAopAiggEIr9oTUmjxQpfuWqsOkZOWpseLFf7qf1SBBQBRaCoESD4laDRqP6mkG2A7EJRbR/BtgS9RbV93F+0MRvaF9WAN4LaSau5atWqov66ep5/48aNed/hvGDvkv/Pc39Rb/zii/9nSh5eybcZgbI9kJrr4Ycf9q1EdygCioAioAgoAoqAIqAIFB8EWl5RNW8l05KR7PDnn+82FSpe6ruibiDPL3pTUoHlchRrplOdRfJu0UYpAoqAIpABBHI11VkGoJNT5HKqs0xhqKnOCod0qqnOCnfW4Ef/nuqssu8Bmu3BFxrdoQgoAoqAIqAIKAKKgCKQawgo+c21K6r9UQQUAUVAEVAEFAFFQBHwRSCQ7MH3aJ8drOp15JFHyrK2PkUKbF6xYoUEnBXYkbeBlcxOOukkWU6X9F9RsUWLFhlc/6zCxqIVLVq0kNXs5s6d67uqiLPtHP/OO+9IPl/y+zoXO2DRC5ZMnj17thzCEsZ+Czz8/PPP5sknnzQrV66UsmeddZYsBfzEE0+YQYMG5Vti2Xl++z5eO2yZMF5ZAS6TwQaFuccy1dbi8t0J437SOhWBqCNAkB/L07OkOtPuaoqAIlA0CITi+eXLfcEFF8hywU2aNMlbxq5p7I+FHLyMpSBZBvm1116T5XwPPvhgU6NGDfkrWbKkefDBB03dunUNRC0K9vbbb8vSg/fdd58sPQzJXLBggSxryRK3QYwHIP2kz0QXO613795m8uTJhtc5c+bIeufO/fb9vn37TKtWrQxkGR0ddV1yySXm8ssvNy+++KJst2X9XuO1w++YoNu3bt1q9uzZU6A4y0pWqVLFTJ8+vcC+sDakeo9lsq3F4bsT1vXVehWBKCPAkvYtW7Y027Ztk9cot1XbpgjkOgKhkN9NmzaJlxKvHiNdUp7wh2eyfv36npged9xxpnnz5qZOnTqynyV9IXH8XXfddUL+vvvuO3PDDTeIp9WzkgxuhIxfc801MW9txYoVxft6zjnnBG5F5cqVTefOnQuUB7M333xTSO25555rXnjhBTlXgYJ5G6ZMmWJIOXLPPfeYAw88UJbcbdCggXnqqae8intu82uHZ+EkNw4bNsx8+umnBY765z//aX755RdJ11NgZ0gbUr3HMtnW4vDdCenyarWKQGQRwAmAQ6Jx48aGGTmWQVZTBBSBokMg7bIHpocPO+ww8+677+br1euvv26QAySa6vGbBj/qqKPEC8zU9erVq8WrnO8EGfzw448/mi+++EKkDs7T7r///pIR47333nNujvve6yG4e/duQ25lu9gFgwI/W7t2rUEKgnfcaXjJzzjjDOemuO+92hH3gIA7ly9fbjp16lSgdIcOHUzr1q0Nyzpn2pK9xzLV1uLw3cn0tdbzKQJFjQBOmzZt2ogTB3mbmiKgCBQ9Amn3/OK1vOmmm/L1jFHvqFGjJF1avh1JfEDXun79epEJnH322Ukcmf6ihx9+uIGM45HdvHlzvhOcf/755rTTTsu3jQ8kTF+6dKmhH0HNj6Q5j0eysGvXLjNy5Ejz22+/OXeZq666qgApTqUdiY6BrDMowUPqtJdeesngyfQyZgLQSnO/uI36mCWgjNs4BxIRBgfYzp07A0k73PV4ffa7x/zaCln9+OOPzWeffVYAe1s/EpglS5ZIm/kexLPi8N2J13/dpwjkGgI8k2+++WZz3nnnBYoDybX+a38UgagikHbyi4YVXZPT0Pk+9NBDBtKYikE+HnjgAYO+9ZFHHjGlS5dOpZq0HQMpxYP9+eefi4yjW7duBqIHuSHQzyllYFuzZs2E+EN+kSSMHz/ety0TJkww1157rey/8847ZaoM8uRnTKPh9X300UfNpZdeKq/z5s0TrG699VbxCnNssu0Icgwe8C5dupi2bduaZcuWGfTPN954oxBTrtfTTz8tzcbbwZTfvffeK5/RJhPASGAeOmlrkF6w6969u5Dp2267zfBnSfW4cePkGLTgM2bMEHI/YMAAU6tWrUL/sPjdY35tRY/NIG/x4sWGNiDPQX5iDSJ95ZVXStAiZP3xxx8XzToDCT8rDt8dv77rdkUgFxHgGcizF/mXmiKgCEQHgbTLHtxd++CDD8S7RwBcMtavXz8hy5ASvIosOwz5iScBSKb+wpYlwI3prGnTpkmQGYFmyB4gbyyYgeHJY8r8lFNOiRHBmjVrmquvvloGCBBlt0F8CRLEe8w5eB/P0LFCprt27WrIFMAfVqFCBTNp0iSpJ5V2BDkG0o+elyDEgw46yEDce/XqJaSUtpP9AtKL/ph+W4MsQ34h69bwoiKPKF++vHnuueckCwR9QuMNwcbLziIrEF8GE2S/eOONN2QgxBKQHTt2NLfccos5/fTTbZUJX4PcY15tpWKI/oUXXii408569eoJAactGMt64vXp06ePfKYeyDH9DGq5+t0J2n8tpwhkMwJr1qyR34LRo0ebQw45JJu7om1XBHIOgdDJ7/Dhwz01n4mQxMNLdL41iAAEBw/r888/L+nP7L6ieIXsQcaZ1l+4cKF4ANE5sw0C17NnT0NGiA0bNpj7778/1kQC/vCA453FM5gOo0500JBQvMRojj/55BMhoWzjXMm2I1HbTzjhBEnTxnUCCwydMZknrFY5Xt9IDec0UrrhGYfQWrkHrxBiAgs//PBDIdA23RvY2RmA6tWrS1WshZ4M+Q16j7nbysnQKyN9scZsx9ChQ4XwMgiC+OINR45yxRVXSGYLPPFly5a1hyR8zdXvTsKOawFFIAsR2L59u/xm2fiJu+++W55Z7pnQLOyaNlkRyDkEQiW/6CFJ0zV48OBCA4dmCu/Z2LFjhWQ4CWWhK0+hArSceF3xYPKHV3LLli3i6WRKHPJLMBqGF9AZAEhmiG+//TbwWSG01Ok0CC/SC6bUqI/AMSQQ/A0cOFBSwzHlNn/+/JTakajtSBQwlr62xnuuTypmcxSDqdMqVaokH8HA6T0mTZo1S76tDthuT/Y1mXsMokuOZiQ9XEv+ILz//ve/ZQYAvTWzAch9+GNAhIwlaJ7qXP7uJHtdtLwiEHUEmGXjWXDXXXcZSC8DXxwSM2fOjHrTtX2KQLFEIFTyiyQAS8bbFe8qEEwGucILXJRGvkY0ts8880y+ZuANhaCTqxUiZjMwQNSrVq2ar2yyH5B/OM1On+NZRH7gJIOUg3yzAMe6detSakeituOBxyB7QQ0PNN5hrylA6+21/bJ14kXF3MTWbmef+xi2pWpB7jGuBUEseKORdFx00UXi8beaZs5NmbfeesuQ7QKPNt8FfhQh85dddlnC5uXqdydhx7WAIpCFCPC9ZvDL85g0nQR4n3jiiRKPkIXd0SYrAjmPwO/MIqRuogdlCsgv0I2AqWQMEoG5iV4ydaSjLGQLqYPX4g1MkTMdDsFDE4pZr6Y9N15T0r4FNfTSPEydf1YyQVu8Foog3RzeYDyOqbQj0TF2P3IKp9E3vM2YJaiWnCJpcJN4e6zVhJPRw2m2/kxl+AhyjyHRgNiyqh7EF/vpp59izWZghG4Zzy/9YqESpCjogoMO3HL1uxMDSd8oAjmEAN9tZuIIziXug1khYh7UFAFFIJoIhE5+/YjvxIkTZcocguA0SyjdJAnSQNlSpUrJ9JLzmKJ4zzQ3AVPOdjLyJ58xI3+MBSoaNWpkxowZIws62HYSDGY9pnYAYF8pY99bLOxxfq9DhgyJSRtsGQga2TEIEEylHYmOwZMNAadvVgLBuUngzmpzGMs1I0kgWBEjQNDeD7aPtiwe4QYNGphnn302lv4MbPFeQzDJpoDZ4+wr2yxOLJoRxGx557XjOL97zJ7LttWmt2NREYzrbgPdqBvCzjbabq8zAwEGgnbQIAfG+Qf5tVi5i2X7d8fdH/2sCOQCAsibmDEj6JjvP4G5aoqAIhBNBEKVPZB/1m8RA7yj/LjjocRYQhbPJlpHjICiY489Vt5Dmsg+AJHs27evrIsuO4roH55M2k9GBYgZJLBMmTLigcXTaqe/ITt4APkMIcZ7yeIYeAPpCzoxtKNg1L9/f8ljTN5eAp3YxipyLFFMui3SYPkZHgc7pY5uFVkGGmFkGbQHS7YdZDOIdwx1oilmAEACdzwfkELSl9mHPj8ESDL4UWDFOhsI5+435JJgxvF5WSuQiLCiH1OGeGHJlEFgGrII2sM5wYZteIkpZ/Ei5RgyDzTPXpbKPebXVuQMYETGCogqel7OS3aOHj16GILvjjjiCNkPqaetDNwuvvhir6YV2Jar350CHdUNikCOIEAwLs96nmEE4Saz2meOQKDdUASyBoH98ohcwtxLTPHi6SSoKxnjBx+P18knn5zMYUVSlvRkkBQ0n4kMyBjdQ+bwNkK48G7i6fRbVQ0PIOQQXbAN0Ep0niD7wZgHLXUShEegGpKL2rVrx7IhOOtJpR2Jjkm0n3sHza47mM3ZLud7vCbkUKa8lz7YWbYo3zMgA3O84JBzPuNNZkCHN5zBHdOglGEQYrNTBGlzNn13gvRHyygCTgQY0PPdsDnNnfui8B49PzItv4G0Xxt5FjKIJ8OLM1uRX/lUtyOzIrUj6SWjajiwwDCqhtMIh4iNN4laO3FokUYTB08UjZnNpk12mtKlvo9i88yixfvM5i3VfNcACNXzCxnMRePLYr2YRO/jbeUvnuEFDuMmdmIMWUxEMFNpR6JjEu236cni4ePcx4ApDKyc50jHewYczmwXfLYDG0t0IcLOaxT0vKkcE7RuLacIKALhIMCzMFknUTgt0VoVAUUgHgL7x9up+xQBRUARUAQUAUVAEVAEFIFcQkDJby5dTe2LIqAIKAKKgCKgCCgCikBcBJT8xoVHdyoCioAioAgoAoqAIqAI5BICgTS/BCYQAEC0fa4aEfsELLEssJoioAgoAopAeAiQDtAGiIZ3ltRrJkiXFTuj+psHdmTJiWr7QB7eEPX2Pf/886nfJCEfuW3bNjN16lRz5JFHhnym1Kon0J97sORh/y+1CkI+asWK7035CiV9zxIo2wOrWJGbVk0RUAQUAUVAEVAEFAFFQBG48v+qmcqVD48kEJs27TYVKl5qyOTlZYE8v6yoRgW5HMWaTKozLyB1myKgCCgCikAwBHI11Vmw3he+lKY6KzyGmuqscBhmR6qzir6dVM2vLzS6QxFQBBQBRUARUAQUAUUg1xBQ8ptrV1T7owgoAoqAIqAIKAKKgCLgi0Ag2YPv0Ql2sNrV119/LcsRR3UVlQRd8Ny9YsUKs3r1as99zo0sVMDyx0VprEaXSeyDYsPSv1dddVUMGtr57rvvmrlz58pqggRLNG/eXHDetGmTrJbE0sZ/+MMfYsdk4g1693379nmeiuWtWcL0pJNO8tyf6Y0sqQw+doGNTJ9fz6cIFDUCBIL9+c9/lt8cprWjZlFvX9Twysb2rFmzxowdO9YMHz7cHHhgqBQrG+GJTJtD8fyyxOMDDzwgSzyOHDlSSEy/fv1k6dfI9LwQDSlTpowsXQsZu++++4Tgs4oZf5APlrN9+OGH5QtQiNMU+lCWbkSvPX369ELXFbSCeNiw3O+uXbsMhBLcnHbPPfeYBx980HTu3NmMGzdOsLzjjjtkmeCbb75Zol4hxumwZDJ6QG5Zmnnw4MGC42mnnWZq1KhhTjnlFFni+uKLL5blE/lRs8b9f+mll5rGjRubAKuH28NSfl21apV8x/r37y9tadeunVmwYEHK9emBikA2IvCPf/zDtGzZ0hAlz2vULOrtixpe2diel156ydxwww2mS5cuSnwjfgFDGZYw8i5btqx55513pPsQAIjMo48+agYMGBBxSBI3jyVt+ZszZ46QMtandy5zSw0tWrQwEP6iNLynv/zyiyE4IlMWBBvWK69du7akSSlVqpQQ3BdeeMHwZ5c1rlOnjuFBgnf4kksukZQ5DRs2LHQ3+GF86KGHzKRJkwLVheeePg0bNkxIb5MmTWLHNWvWTMgtwv/KlSubPn36yD7ud1LAsExz2MZ5WAP+tddei6XE2bhxo2ndurVZvHhxbFvY7dD6FYGiRGDr1q2mbdu25pprrjG9evUqyqZ4njvq7fNstG5MCgE8vZMnTxZOcNxxxyV1rBbOPAKh/Dq/9dZbpmbNmrHeMO3OFNSSJUti23LhTTw5wfnnn28OO+ywIu1mhw4dzBdffJFPXpCpBsXDhmn5Nm3aGH4QMDzlv/32Wz75wAknnCD7zjzzTBlBX3HFFaZEiRKyrTD/kGUka/H6ctlll0l18+bNi1XLVBf3OuQz3rGxAwrx5oMPPpD7zJkL8uSTTxaPfxBpTiFOrYcqApFA4LvvvpPnCU6IKBLfqLcvEhcxyxuBw2/ChAnmzTffNEp8s+NihkJ+6ToPoc8++yyGwtKlS80FF1wQ+5yrb/70pz9Jcm/6V6tWLfEA4m3EmD7//vvv5b39h5fw448/FqwggG7De4tummOxHTt2FKiD/Xv37nUfKjKTH374QZLJ253u+nbu3Ol5rC1Pe0n4ju3Zs8fMnDkzRlptmaCvTMt//vnnUrxu3bpSn/NYL6LotQ0smOpHC+xl4Ij3E+LvNPry5JNPOjcV+j3kEzvvvPNidXFNf/75Z/Foxzb+9w3XAwLOq5fhpWdBmZUrV8o159omMr5bjz/+uAwgKEsdYMP9p6YI5DICfNeRRfH9u/322yPX1ai3L3KAZWGDFi5cKDODkF9mvNWyA4FQyO9NN90kq+M0aNDAQAYnTpxo8Iwx3Z3rxrSHDZBiSh/N6Nlnn21efPFF07FjR4NXjul8jLJghYcQOQjT+5A2a2hfzzrrLJlunzFjhnhwBw4cKIOIu+66Swgznkf0xXjanQ9/8mgSiMXxVv/pVR/nhSQ5j+X8eGOZ1mcQw7Q6Mg7a+sYbbxjOnaxBWHlIWILfqlUrg3d8xIgRpmfPnlJd+/btzeWXXy5/VkKAh5htljSPGTPGoLNdtmyZeeSRR0zTpk0NBN7arFmzBG8wpq1M/7MNXJkS/fLLL8Ura8+zdu1ae2jSrxDU8ePHi4Tj1ltvjR3PdQR7rrc15AlowUaNGiWBffXr1y+QfBuN9vXXXy9thdzz/YHUxjPqqV69uhk6dKhcr0WLFsl5wU8D3+Ihp/tyAQHiLphBQpYURYt6+6KIWTa1affu3ea2226T328C3NWyB4FQNL/oNBH3Q9QgKHjvCLoqX7589iCTREvRMh966KHibWOZZGsQR6btIXUMAKZMmSJkDe8rRtDXhRdeKIMCBgb16tUTEgpZw1hUhOAqSCiDCMgchIb9ECuWCIXkOrdBwgjKQv8GASPwylqi+m655RZz+umnS3HIMJpVdLgYZBFSD8kK4o2Ug/L+3XjjjRIEiCfSS3sM8UXLSzshtpB17P3335dzQi6tDvj111+XhwyBbzxo6CvtQmvFAIBp/uuuu04INUQXY3lNCCSZJMANMn3wwQcH1vxKJf/9xyDizjvvlE/bt2+XzBRcMwY2XH9r7733nmEKlu+ANQY6aMS7d+9uzj33XLlGYMN7K53gfqC9doYErTH3TDw76KCDpC+dOnUSbzjyIgYEBA6qKQK5jABR9SxONHr0aHPIIYdErqtRb1/kAMvCBvEbT5A3z3u17EIgFM8vP/rWA8WPO9PAaDanTZuWXegEbC3aWohYt27dhAQ5p+qPPvpoqQVvIAQJAkUkKIZXkqwB1ohQ5oFpvaNsJ4MEduWVV8Y8eXj6MLIJWO+eDbiDlFkrV66cfRt7jVcfqbIwzs90/hlnnBE7Do81hLRkyZL5tLmxAj5vIHMEPkJMbbt9iibcjHcHYm9H2ODMfQWpxIYMGWLcKdQghZYIJzxBggJ4nJFN8EfAHN5x8MS7j87daW7sCeBjIGO1uVw7NMxOXS7fEwaLEHUCFZGGWGLsrNv9fvny5YYMEz169JA6kaaAi5XKuMvrZ0UgGxHg2cZ9bo0ZKWa8opLZIerts7jpa2oI4Pyxv5HUwO8Oz32yFB1wwAGpVapHFRkCaff8coNANvBWMj0OkcJ7xw3CZ6ZpISi5ZMcff7xkBICUIS2AxLgN8uM2vKgQQzJhoKvlD7x4wLszBZCyzBrePsxrW1DCE+9Yzg3ZdX7RN2/eLNtsG8iY4JQbsB0PuF9QGiQdMue0vn37yjHObX7v0TSjISe3rpVEUJYfHB485JRGK0u/nNjxAxmW4W3ivsb7zsCHzBB2MOI+JzMA5H4kKwOSDQZCtJk/a9RFe/n+cI0ZMIFpPHv77bfF+zV16lRTqVIl8XzjjWDwyZRr79694x2u+xSBrECAwSbPSX5D+I7wHWLgyEAvChb19kUBo2xuA7+rPI+JuSHGAicGEjZmLJGnqWUfAmn3/EJAIClWQwoRYXqXaV9yvBZGY5kN8OJ99CKA1uNn+wDpYWr63nvvFYkCD0+nRtSWs69OQmfJdWFGm1712XPxyjQOHkimFfFGEjzm1NUR0GXJm3111umsy75/4oknYt5fpBPopYIaZJAcyuiEwdj+oe1FM42UgSwLTs9Qorrxrlo9dKKyfvsJcMCjTV0fffSRXzHRvOM5pt+kRoMIuweBPEQJhoO0MiuARhqpSjxDloKsBuKLkSUDMs6Dev78+fEO1X2KQNYgwP2NY4C88Vu2bBHigRwqKkGdUW9f1lzoiDYUR8dRRx0lweY4fnjW83xO16xiRLud081KO/klsIepfrcGC8/nscceK4tD5DKieEyDkNLZs2fLlAlT6HYVOKcmNpHHL2wM8axAniCbaHIZ7RK4Zw1SzMjX+ee+5rasfQUXKwmBoIFVUIP8khuYQDC34fWE9KKfJjDOueAEZZmasqQYgm4HDwzGuA6FMdIY2WA8iKefEVjIjzW4sdgHP+QQZgyNMHgjVYBMX3311YIrAyIGk+7+OM/B982dWgec0UIjUVFTBHIBAbT16NmJl8BpwIwZQbhRsai3Lyo4ZXM7iB3BwUL8DhIzHC5BZGnZ3OdcbnvayS8EBVLBD7rTmKIi+4FTR+rcn43vLVn1S1tFnyAnmC0rH/L+ISPA+DJhkCEb6EZKMYLZMHu8fWUb+zHnNvveEirnfmcaNFvOvlLO1uc8FiILYUNWQDQ1+iY8LkHN9tc5rW+PZaoSD45dFti2xb5Szr639bCNKXw8p5Bda3ikkZpA+NBdQ2yfeeYZu1tWeyKQzg5I0N2S8QGDWAYh4BYfNwllKmxgXlAnxBoPrfW+UjfHWNy5tpzTXmv2M7AAb/5YcY52gy8yBmsQflI48epnPHxJsWPJPeWoi3sJ77GaIpArCOBxY0CH143vFNK6KFnU2xclrLKxLcgaSavH83XdunWSdUgdDNl4JX9vc9o1v3i1mIpmZERQD94uppbJdfv888/nIwDZCturr75qxufpmMlgwM1Ppga0qHwxnN4IvKJMcaPvJMqfLw+jRgyJA4FKRPijGyJLBJkEIFOsIgZ+BIsxBc7xSA/Wr18veJLdgG1kOGAb0+52G4SVHweIJZpiypFfFzIJWYtXH8fypaYNDFL4DDGDgCJR4EsP2WKqnVGvl+GtZEqf3MUYwYAVK1aU9xA9SKAdLNBGMIKcWozAEuIITmwjvRoeZwguWRDAnfRokESmoRhEkGAcg9hCBMGFfhCFy/kob41pKjIoIMVhn70edr/7laWCbfo5jmNQAhmF1DMogPDivbeSFX6UGzVqJDIRCCkeWI5jeWTaSbAjg0CwJIMHumeCQklxhgyC7w5ecTDDG4wOOJ6hg6Qf3DP0jWBTvGIQA7KuqCkCuYIAwaXIxO6//3555hFoGiWLevuihFW2tgW9Oc9znDD8NqhlLwL75f0IF4zOcvWHaWOCsRLpD52HQQ748cZzWLVqVYmId3q+nGWj8J7paDSXTPNn0vAmkjUAjJAE8BnsinJ1OLJyQMpJT2en1CFyeO/JnkDQCeSxKA2SB9G02SvcbYm3H3zxGBOoiI44k0YQIee0gXEMKux7Aggh9JBZ8KZ91mOdqI30Bz09xBxSkKtpBRPhoPuzAwEGeEgYkk0RxfeCATASIZtJJ4weMytEakkcAclYptqHQ4LUlAz2o2rMPIFhVA0ZDbnVrRQvaDvJhMRzG+demAbRxhlkU32Gea5U6sax17TJTlO6VP6Fu1KpK4xjFi3eZzZvqRaLP3Of40D3hnR9xjNIgI9afAQgKzZNGSX5zF9RGt5evJGW+NIWSBjbyFoAsSxqc6cSc7cn3n7uzSByB3ed6fiM7t1plviyDeKLQXqTNbJcODN4JHu8llcEsgEBnkPJOGEy3aeoty/TeOTi+ZyreeZi/4pLn9Ku+S0uwOVyP/lxwYvIVD3eXrzRvA4aNEiCu5AyqCkCioAioAgoAoqAIpCNCCj5zcarFnKb8ZqS3QHPLynqCCQj7Rk5mtFvV65cOeQWaPWKgCKgCCgCioAioAiEg0Bosodwmqu1ZgoBsj0kq8fLVNv0PIqAIqAIKAKKgCKgCKSKQCDyS6CaTcmU6omifhzBUwQjoXdVUwQUAUVAEQgPAbLPIKeK6vOWaH4squ0jWJBMQ1FtH9gRz5AN7Us24I2+ZcLQjxMMz/ckisY9uGnjL6Z0mUA0MuNd+H7Xb54LjtmGBMr2QM5eTZtkIdNXRUARUAQUAUVAEVAEFIEoI8DCJH6ZqVTzG+Urp21TBBQBRUARUAQUAUVAEUgrAkp+0wqnVqYIKAKKgCKgCCgCioAiEGUEAok10HawdGMuL5fK6nM2j22UL5i2TRFQBBSBbEeA5dJZbKZ58+aR7AqrOs6bN09W7YxiA1k6nVSUrGYZVWPFUla/jKr17t1bVkGNquaXFUCvvPLKfPn2o4Tl66+/bhpd+mPeYjP/jFKzYm1ZsvQX8/et/4p9dr8JRH5ZtYaFF9wJ+t2VZfNnvgAszZzLfczm66NtVwQUgdxBwK6sGNXnLcHPLH4a1faxwhtOqai2jzsVgp4N7Ysq+YV3lSlTJrIYkgjhkD/8x+xnfo7kg+k/v+2LGyyosodIXjZtlCKgCCgCioAioAgoAopAGAgE8vymemJSdGzdulUWRSjqJXtT7YPXccuXLzeLFi0qsIvcuNWrVzdnnXVWZEdrBRqtGxIi8NRTT5l9+/Z5lqtQoYI555xzzEknneS5P9Mbv/vuO0Pavih7XDKNiZ5PEVAEgiOwZs0aM3bsWDN8+HCDd09NEchFBELx/EJ6WQq3QYMG5plnnjEXXnihefbZZ3MGv4oVK5qTTz7ZvPLKK6K7gtifeeaZBiJEWjjW/u7fv7/kRs6ZTifZkcLmd/Q6nmmgSy+91DRu3FimJJNsUsrFIbe//vqrXOvp06eb0047zdSoUcOccsop5qOPPjIXX3yxuf322/NNsWS6rR9++KGpV6+euf/++81dd91lmjVrZrZt25Zyn/VARUARKH4IvPTSS+aGG24wXbp0UeJb/C5/sepxKMO6gQMHmilTpkjAwNFHH22+/PJLIQgsi9u0adOsBxiSy9+MGTPM5s2bTcuWLWOidIICTz31VIOYfteuXebpp5/O+v4m2wFIFwGSkyZNSvZQKe93PBo8kuPvv38oYzbftl500UWmWrVqZtiwYUJ6mzRpEisLyaRdf/nLX2SGo0+fPrIvk21lduX//u//JDjn3nvvlfNDgDt16iTLUscaq28UAUVAEfBBAE8vy9lPnTo19nvmU1Q3KwJZj0DaWcS3334rXl5ILsQXO/74403dunUN0Yu5ZH5CeUvwGQAQ0VzcbMWKFYXqst/xTMEtWbLELF682PhhX6gTxzk43vkuu+wyOZLocGuZbOvIkSMNATB4bKy1b9/erF271sydO9du0ldFQBFQBDwR+POf/2wmTJhg3nzzTSW+ngjpxlxDIO3k9+OPPxZPWPny5fNhddxxx5mVK1dKBGi+HTn8Ae+wl9b5q6++MkuXLjU//5w/SpLoXbyeljBv377dc3qfpabtlDbT8d9//30BFP3OQUGWTIREsoQnXkO3+R1L+ziGc2I7d+4scD1pS6L0Nj/88IOB4PLqtnjH400Fs927d7sPE53r+vXrZZbBvRMNLMcwMMOQJNjlS91lU/n8wQcfyGHIXazFa2u8/nN8outjz2Ff161bJ4MBp86XASe2YMECW0xfFQFFQBEogMDChQtlVgvyW7Zs2QL7dYMikIsIpJ38HnrooZ44QdgwS9o8C+XARojW0KFDzcEHH2zuu+++fB5KiCbT5I899piQXzTR48ePl14z5YRu+Oyzz5bj8NyxNB8aV/TDEDaMcmeccYaUe/HFF03Hjh1Ff4xWC4t3DogjeQPRKkP+qB+PPGQ30bHjxo2TQD60rsg9WO56wIABplatWqJ35XhyY15zzTVCQCHXl19+ufzhgcSQLOCdHDVqlEzH169fX7CQnXn/Eh1/ySWXSGAZfXbaW2+9ZZAm8ErfWrVqZd555x0pgv4cTS4BaXfccYfMPlx77bXyHu3u6tWrnVUl/Z4BHdewdu3a5tZbb40d79XWRP1PdH1ilbveeH3nisv3zQWFflQEFIEkEMApcNttt8mzHLmemiJQXBBIu+YXMlSiRAlDnkSnrVq1Sj5Cuk488UTnrqx/j6ezVKlS5h//+Iehn+XKlTMERkEUrUHCOnToIEFSVgdcs2ZNc/XVV4tmuFevXpI1oF27dqIVZhR+wAEHCJmFAO/Zs0eIG+UgyZDjiRMnirYamQVe2UTneOONN8RDanWpbdu2FcKJlzLRsX/84x+lP5B35CvUVbp0aTNr1iwh4Lfccos5/fTT5XObNm2E/Ls1v+jJSG7fvXt3WVAE8sm62ywugnSAIELq8zueYEKIKzhbmz9/vunatauQafvwhmxDvP/6179K8CGZOcAZb3vDhg1jWmTOSV9eeOEFW13CVzypJG/H8MwjKyDQjIGIk4R6tTVR/1999VXf6xOvYRB/vDd4to855hgpar9vtFFNEVAEFAEvBPg9IZcsz1U1RaA4IZB2zy/T/N26dTOzZ88WHSJgMi37xRdfCK4Qulyzm2++2UAo8fSef/75ZsOGDfkIGv19++23ZTuE0xqeTxbWsFrRI488UnZBCC1OBAlef/31QnSth9ZqqfEuQrggZETnJjoHXully5YZNKL2euCtZKor0bE0zBIrvMcQX4zUbph7sCMbXf/q1KkjBNr2k6wNDJSS8b4ysHAagXV4XS3xZR+p5viMl9wamEHyb7rpJrtJ2h6k3bED8t7gRWawwx/kHokCuJARAs+z09xtTdT/eNfHWa/7PQMmJDZ/+9vfYrus5zvTwYGxBugbRUARiBQCpGt0Pu9wRPDMevDBB2O/N5FqsDZGEQgRgbR7fmkrEedM+3fu3Nmg/eUHmIwILIdXpUqVELtTNFUfdthhpmTJkvIHKXr//fdlWh0tqPUG2ql/vHvvvvturKGkTbNa1NhG1xuIFYaUALmBNciU0xKdA7nAa6+9JpkYII1cG7yYENBExzrP47yGVtNsdcDOcu73eKzJH0kbIOFgg77Zapzd5RN95pxozCF/bmPQAM7IRexAAt25kwzS9iDtdtft/ExuZ3488DIz6MMLawcGznK8T9R/rq3f9XHX5fxMX/HEk2EEPPDi402nrqpVqzqL6ntFQBEohgjwnMNZsmPHDpkBwwGB/IxZReR3aopAcUMgFPILiHZqmOl4lrKEoEAQ8VDlskG00Jeii8XjbQkqfcfIw5osIcEjiLkXWrAeVNmZ9y/ROXjwMdJnkQ4kANOmTTN33323qVSpUsJj7Tl4dRJIvKnxDO0p58NjiocbDzWyBlKD4fVG6hDPnMe7y3Fu2mLxce4nO4ObVDvbTdlEbXfWF+89nnM84Js2bZK8vxBgL0vUf9rrd31sRgmvetnGgATPLz9yDDxtxoxckxj59V+3KwKKgD8CDNKPOuooeUbh+EDGhlQql/Lv+/de9ygCBRFIu+yBU6BtRLOKQXwhMHgW8QTHSxklB+TAvyOOOEJ6gRcOwxN3wQUXyHsCpJxGwEGidFSsuINZD7DzeOd7FhPB/M7x3HPPiTeQtuAlRJeKXhUPdaJjnedJ9B6SaYkluY6RwGAEyEHGCPiD+EJabWAWbcFjjvkdLzsd/7i30E2T5cFtSE8IDLReX/f+dH5mVbXPP/9cqjzhhBN8q07Uf36U8NZ6XR/fSvN2MKhBcsMMAj9yfMcY3OBZJwBRTRFQBBQBApxJwUisSI8ePWSQnGhQragpArmKQCjkF63lkCFDYpjh5eMHmUCnXDKC0DD7avuGlAFj1S2MoCqISKNGjcyYMWNihI99rIRnMznwGXNqR8mO8fzzzwuJsbpWsgZg5HZ1GlPd8c4B2eRa2PNBMiGHEN9Ex3Iee177yjbbd0ti2UagHwubYGCAd5dzs825XCbBahzHHyu6WcLsdbxUlveP8+3du9d+FBIP0cWLYQ2yTeYIsmRYo83OdrOdupzttmW9Xm0/Gcg4DU8ri7qAKd4UvOjWnG0N0v9418fW6fVqPTh2kEEqtdGjR8v3DW+PmiKgCCgC/H4Qn8JzlllJZuPsbKGiowgUNwRCkT3gbeKHGH0rU978OJP9wD1Nn61go6+ExDLNzcODADX0pHjtMDIfIHuAxOJ9xLNLVC2eV/TQSEBIaUbQGV4+CKvTtmzZIhkM8CKy2g6RuH379pUi6LQgsJBpBhM80BjJYxDZeOeAiOKVtjovPKZkqeAhyOAk3rHsI0sF533kkUfE24oXl4EO2/Bq8kCFCHL9WeADXCC8tA+iPXjwYEMydaQPnJeHMAMD+gb5ZmYA8zoeYghOYAbRJJsD52iQp1cjDduIESNk2h+ZDZ5yzon8AKlIixYtzKeffirHEWTItcPzwfWjXlsHq7h5GdcLMo1xTsg2emFkCqSWg/Ci9bYp2Pzamqj/YABeXtfHq112G/3k/iNHMgMliC+ruyFpUVMEFAFFwCLAM4FnGFmXvGIlbDl9VQRyHYH98ghIfNFmHgKQOKZU8WwFNcjCRx99JFpEPHmZmH4O2javckzFQ4LI1pAuYyUyHjKQS5spgbohbyyLDLm1AWNsRxoC8YFcQ4TIJICW0+ktpVwQ8zoHEgvkBhBE6ibgzSs4y+vYIOd0loEYQlRZbAF5gtOIOGabPTftsu9tuXjH2zLuV6b/OS7qunK//ge9Pu5+85lZAHS+eJvJ3azJ6r1Q0m1RQYAAUZ5DUU2xhaOA5zCD+Sga33ecLFZemEwbkbnxrCHbTpjWunVrwTDMcxSmbpaEJ04iqlJMBiqk8Yxq3AZOuKZNdprSpQouslWY65KuYxct3mc2b6kWW4fAXW8onl9OwlR3omAmd2Ny7bPV0br7xUDA64Z2jkPQbnqVcdfl99nrHJZgkp3CSii8jvc61qtcvG0EXfldf+dKZNRh2+WsL97xznLO99lC+Pz6b3FIdH2cfbbvmYFg8KamCCgCikA8BJwrUcYrp/sUgVxGIBTNby4DFlbfCI5jdTIM+YQNcgvrfFqvIqAIKAKKgCKgCCgCxRGB0Dy/xRHMwvSZKXum64n4J6iKDAJqioAioAgoAoqAIqAIKALpRUDJb3rxTLk2ArH4U1MEFAFFQBFQBBQBRUARCA8BlT2Eh63WrAgoAoqAIqAIKAKKgCIQMQQCZXsgNVS/fv0i1nRtjiKgCCgCioAioAgoAoqAIlAQAbJn2Vgq995Asgdyw7Zt2zayaWncnUrl8+uvvy45ef0yFKRSpx6jCCgCioAiUBCBJUuWSFrCqGYoIU0jK05GdYVE0sQ988wzkj++ILrR2PLoo4/G8tNHo0X5W0H7yLsf1VRn48ePl3R0UU3d+c4775i2bYypWGFffmAj8mn+/B/NF19W8W1NIPJL6iXyzvql7vKtPYt2sBDHaaedltY8v1nUfW2qIqAIKAIZQ2D79u2S5zeqvyn85n322WeR/c0jzy8L2kQVP24k8tNHuX3k2Kd9USW/5JlmMazCpDwN8wvNOg5HHLHTHHhANPP8HnLIgbKEtx8Gqvn1Q0a3KwKKgCKgCCgCioAioAjkHAKBPL+F6fUPP/wgI0BG0l7GUrBMMbE8q3O1M6+yUdm2atUqM3/+/FhzWGo33uiMETor6mBISFj2V61oEGAVNLz8XsaqcyeddJIsOV2iRAmvIhnfxgqB8aa9WNKYVe3cC2dkvKF6QkVAEUiIAGksWeKdlS9ZYUxNEVAEigaBUDy/fMFZPvfll182F110kZk6dWqB3rGELktHXn311Wby5MmmZcuWZvDgwca5ylmBgyKyATKCNpglOmnz448/7tsyFq/o06ePlNt///3jkmTfSnRHXAS2bt0qy/rGLfTfnUcffbRcOxYS4dqxkhzLb/PHKmkPPvigLA+8aNGiWHXcqwjnWQ40E/cnhBaSftttt5nmzZvH2uF8s27dOtk3fPhwyQ1NufXr1zuL6HtFQBGIEAL/+Mc/5Hdu27Zt8hqhpmlTFIFih0Aonl/Wy545c6aMbr/55htPwsC60G+//bZZsGCBwct2++23C1E+5phjzB//+MdIXwi8bJCN9957Tzy5M2bMMBCWI488skC7J02aJMvOzps3Tzy+hx9+eIEyuqFwCAwbNsx06tTJ1KxZM2FFzDDwN3v2bPPpp5+adu3aGQixNa7rmWeeaW644QazcuVKub4Q3h9//NEweMmEdevWzVSpUkXa50W29+zZYzp06GDuuusuc/3110uTyMjSsWNH8Wr7zbJkou16DkVAESiIAAN0gsYJoOvVq1fBArpFEVAEMopAKL/meHOZ6r/uuut8OwP5bd26tRBfCuF1a9WqlRk7dqzvMVHbgVD+2muvlWlnPIlu+/XXXw2j/YoVK7p36ec0IrB8+fKka/MLcjjqqKPEC4xcZ/Xq1VIvgRtEpy9evDgjwRGkZiESGQLsZdOmTTM7d+6UH1O7HzL81VdfmVmzZtlN+qoIKAIRQIDVOtu0aSO/FUp8I3BBtAmKQB4CoZDfRMhu3LjRoGV0k0J0UETYfvnll4mqiMx+ZB20e+LEiQXahGcbPXA8gyCjId60aZNnMUgYU+C8ehlRvx9++KF4KakLXDE8huiMId/W7DZbhu1orvFa2/rx1DPN7zS/NnIs5/j222+lOMfh4UD2Yu2XX34xTPP5WTJ1O9tt63vppZd8sbNlknn9+eefRT6AHIJIWwzc2G512876Ur0+zjqSfc+MQ5kyZYzTw8vgEeI+Z86cZKvT8oqAIhASAjwjb775ZnPeeefJ7GZIp9FqFQFFIEkEioT8fv7559LMQw89NF9zS5cuLZ8hwNlieBDxuqG3ZJrcacghmjZt6tyU7z1T1RdffLFZtmyZeeSRR6QsHj2MaXam3keNGmXeffddWfr4sccey3c88hKmvRlMQKAbNGgg+mPIJ/UShMdUG8a2evXqSUBX+/btZRukl1Qv6Jf79+9vOnfubK644grRvBJEhfm10Z6DALE77rjD/OlPfxLPRu/evU2tWrXM2rVrRVPL+fF2kEbOelKl4hTq5jzOeh544AHz9NNPS3XIZhhokLcxVaPP1Llv3z65HvZ+vOSSSwQ3ZAXWCnN9bB2pvvL9cH93qItgymz67qTafz1OEcgWBHg+4RBAmqWmCCgC0UGgSMgvmkXM6bnis52KtvvZlg2Gjgs9qNP7i/eawDi/DBYsqjFgwABDIms0nrwecMABhgAmjCBAvHiNGjUy99xzjwQ18QB1evbuu+8+A9lEZtKlSxchbHgaOCcZDZzEm20EcTVs2DAGKRrlpUuXmnPOOcegTUb/CsHkOlBPvDY666MOyBh10G40tAwIypYtK7putoHFiBEjYudOtW7qgWhjgwYNMiNHjpT3Tz31lHnrrbeMe4AgO+P8Y+XCO++803Tv3l0GDARpQvgZeFjD00qwm9MKc32c9aTynu+HF/nlumXbdyeV/usxikA2ILBmzRp5HjGgPuSQQ7KhydpGRaDYIFAk5BfPGgbZc5qdLvcK8nGWi9p7CBnewSlTppi9e/dK8yBREEA/g8jixTz11FOlCMQFr6slt3Xq1BHtqQ2ig3wRGOj0noITHmM8w8gL6tatay677LLYKfEEuq1cuXLuTUJWmeYnowHeTVY2Iu1XojZSEUSXdtx0002xeqtXry4kzLmtWrVqhsT21gpTN9KMdBn4Pfnkk+JBxgNPZpKePXsavOOsomTNjVs6ro+tO9lXvj/okN3G9mz77rj7oJ8VgWxFgOebUzJ29913SxAumYzUFAFFIFoIFPwFzUD7SpUqJWdxPijYgH4V8/JqyY4I/4M0QlwJRsKDyvSz31LJEGT2Q5pJg2aNhycDAqbfyThA8B+BdJAyMGG7lSNwDGm5eMDiecYTCwEnUMqa9aTbz/bVazupvpzeiSBthDBjZE9wZkKgLV7bbNsLWzc64bAMbR5SDbAfOnSouf/++z1PlY7r41lxgI18f+wA0lmc7w/3lJoioAhkFgFmvZg1IwMLz2Se2TgqyHqkpggoAtFDoEjIb/ny5QWJXbt25UPEkt9sTNjfpEkTmeZH+kDgEV5UP4Mc4lk9//zzzZAhQzyLkRoNKQNRwmTGIEWam0yj8SUYjrIsukGAHWni4kX8+3kGrYfZNiZIG21ZJ/FlG+dwe/Xtdl4LWzd1+BlY4AF3Enm/sn7buS6Q3w8++MCviGAexvXxPaFjB9+fDRs2OLb8/hbJQzZ+dwp0RDcoAlmGQKVKlUQqhgwL5wexGsRcEP+gpggoAtFDoEhkD2hMIYju6H2CvSBheNWyzSB0V111lYz4mdInbZufUbZ27doSpOYuw7Q7HnH0wDw80bBCfNHgIm3A0KDiWUAmga4WzS8PW7wPZH6w8hEIqJvsst+9zd0GPgdpo9dxQbals25LvG2fWA/depiDtMWrDBpmzC/VGPvScX2oJxVDB75jx47YdaYOslHgEa9fv34qVeoxioAiUAgECCZmxTakUgQOv/POO/8tTzkAAEAASURBVKZFixaFqFEPVQQUgTARCJX82tRQ9tV2BFLG1DJTQpA6DMKHbIDtltDY8lF8pb0fffSRkE3bPqvxRcfrDOaDmGDWs817AtUg/87V71jmedy4cRJwRsCcU9eJZxfyy98nn3wiBHbLli3i7aU+DFLJtD2vGN4Icr9aY1EHUqrZjBJ2O5kLnG2z2+O10Xp2OZY/p+GBdG/jsyXvlC1M3c56wJr+2vR45NQMspCIDQxzE2W8vUhNkBYwjWmN8lbPzT2bjutj6/Z7JY0a18UtD+JHFckJC3VY48cWaUyi1Hq2vL4qAopAehF46KGHJF89vws8I5o1a5beE2htioAikDYEQpE9zJ07VyLyIXfkH8UryY8zHitSUmF4zm688UaZ2ucHm+h/vJhkMIi6kVWALAGQevpD/0hrhiwB3e0N/80U8Oabb5rRo0cL4QQHiD1Bbs8++6y54IILzPi8DA9kQECugCd88+bNsu475J+ld1kDnql1iBieTbIc9O3b15x77rmS4oyANvLcsswyOZPxBqMDtsYiI7T1lltuMQScQZrxEr/66quymh7nRnOM/hgdMEF1ED67pG68NqI5hYRBqCFneBzJktCjRw/pLw9/r21INSD4ha3b1kO/yJbBDw94J5o1ID0c14tlpzEWWrFSAYgzXnPuU3AmfzP94DMDE/rJvUpgYzquj71O7leuOemRGKhw3ZHQcK1ZOIaZEXS9yGu49/iOQeCRxpDxQjW/bjT1syKQGQRYnZRUi8QJEPTLDKeaIqAIRBOB/fJ+XP+TqGkQKBYySPeyw5yaUTKkjAUFyBnrFYyVqH3p2I+8AEKF3jPTxkIUkCwenm4jswH6YJtzFsJt3+PBhTTjhYSYQdasR9ZZD/UzHVe5cmWZLseDySIJQTyktp54bbRlUn1NR93cn0z7E2iXSUvH9Um1vXiGSV+HvpnsE8lcz1TPqccpAulAgAE7zyRWyIyiIQ9DQjVw4MCkmsdzGKcGkjTnsulJVRKgMDNCODUmTJgQoHTRFMGxAIZRNWQqOEOKinMkwoXAya5du4r8MVHZotiPw6Vpk52mdKnvi+L0Cc+5aPE+s3lLtZjD1X1AKJ5f90n8PnPT4alL5K3zOz5XtrvTaDn7Zb2SdpslvnyG+GKQ3njmrB/veirmrCOV4+Mdk466vQYO8c6Zrn3puD6ptgVvsOoKU0VPj1ME0o8Azod0O4nS30qtURFQBELV/Cq8ioAioAgoAoqAIqAIKAKKQJQQUPIbpauhbVEEFAFFQBFQBBQBRUARCBUBJb+hwquVKwKKgCKgCCgCioAioAhECQElv1G6GtoWRUARUAQUAUVAEVAEFIFQEQiU7YF0Xf379w+1IVq5IqAIKAKKgCKgCCgCioAikA4EGjZsaCZPnuxZVaBsD+QWJSVNp06dPCvJhY0vv/yypFsjD6+aIqAIKAKKQHgIsGgP+anJoR1FI/c5aQRtzvaotZGFfoYPHx7pvPg4zMi/HlV74IEHJC9+VFOd4XQkrzyLVUXRyKvf9sp/m/LH/iuKzTPz5v9kvviyim/bApFfVo4644wzcjppN4twsGCCJib3vVd0hyKgCCgCaUHg888/lzy/UX3eQohYCCeq7SPPL/m9o9o+bhJWKM2G9kWV/LK41SmnnBLZPL+shnpYyZ15K/L+voJtWh4Maazk4IMPiK1261VtTmh+WZVLTRHIBAJ6r2UCZT2HIqAIKAKKgCIQHgKBPL+FOT2rUDECPOywwzyrYWUzlo5lZa6DDjrIs0yijSwpzJKSTZo0SVQ0LfuXL18uU2JelbHwwEUXXSSr1XntT9c2VscLe8S6YsUKs3DhQs8ms+ocK/KxTHGJEiU8y2R6Y9j32tSpU83IkSPNu+++m+mu6fkUAUUgBxBg8Myy9SxMxApjaoqAIlA0CITi+eUL/ve//92go4UIQhrcxjKQLB159dVXiyC5ZcuWZvDgwSbAasv5qlq5cqXZsGGDmTRpUr7tYX6oWLGiOfnkk80rr7wibeZcNWrUMKeffrphOqpbt24y3TNv3rxQmsGSjFWqVDHTp08PpX5bKctz0s/XXntN+nnwwQdLP+lryZIlRS9Vt27dfAMBruull15qGjdunPS1tOdN5jWT9xr32Nq1a2U57mTaqGUVAUVAEWAZd37ntm3bJq+KiCKgCBQdAqF4fiFnM2fOlNHtN99840mCWBf67bffNgsWLBDP4e233y5EmWVqk1ke0q4dPmfOHLNnzx5z+OGHh45mhQoVDH8zZswwmzdvNm3atBHPNSeG9LHm+h133CHEfuLEieayyy5La5v++c9/GgIeINphGt54/mbPnm0+/fRT065du3zr1Tdv3lyWpiYohEEIXm8GLz/++GOeDiiUcVWB7mbqXvv+++9jHt8pU6YYDYwscCl0gyKgCPggsHXrVtO2bVtzzTXXmF69evmU0s2KgCKQKQRCYSh4c59//nlz3XXX+fYD8tu6devYlDmexFatWpmxY8f6HuPegWTivffeE7L866+/hu4JdZ/fT3aAh/Spp54yEHlIfbpJaocOHUQqctVVV7mbFMpnv34eddRR4glGbrB69Wo5NxKXJUuWmMWLF4cuy+CEmbrXpk2bJtcSaQ7kV00RUAQUgSAIfPfdd+IgIWOSEt8giGkZRSB8BEIhv4mavXHjRvP1118b5ANOQwdFipkvv/zSudn3PSSrVq1aQoAoFCVScsABB5iOHTuaHTt2FGgXRH3VqlVm06ZNvn2Lt4MUQRBOr+Cr3bt3G7S6eIe97KuvvjJLly41P/9c+AhN6li/fr2B7J999tlyOjy/bKcdbqPNtI1XL2OQ8OGHH4oXGYy4Rwpr6brXuLc6d+5s6tevL/cnnm41RUARUATiIYCD5uabbzbnnXeeDJ7jldV9ioAikDkEioT8kuYGI4Wa00qXLi0fIcBBDEJC0ADpVKpWrWrIHcn0dFTszDPPlKYg7bA2ZswYc/HFF5tly5aZRx55xDRt2tTs3LlT0uqcf/75Mp2Oznbo0KFyCNIQAstOPfVU0717d/PXv/5VPp911lkiGbH1IjXo0qWLTK1R93333WduvPFGA4nEmHZr1qyZeeyxx4T8NmjQwIwfP172pfIPAk6exH379kk/7LUj+JD2Qvyt0TakEaNGjRLpAASSdjgN+cL1119vIKsMDGjf448/7iyS0vt03Gvbt283aJkrV65srrzySmlHlAZaKQGjBykCikDoCDz99NPy7B02bFjo59ITKAKKQHAEQtH8Jjo92lzMnQHCTq/b/fHqweuJB3PIkCFSDAnFk08+aZiehmhFwcqUKSPNgDxhr7/+uhkwYICZO3eukNlbb71VkliTrPzhhx+WwDFWJAGHu+66S45p0aKFeeutt0Rbi5YYLS3kkqAypxFkhy6XxOxMzU+YMEGm2JBGUBapBDkDeRhjNWvWFI85ARgsYhLE+vXrJ5pqiC8eXDz048aNM2h/rSFDYXqP4A5rrLCCJhvyfu655wrBh5jz3uqhIevPPfecZI/gOHIup4Ng2nupMPcaunLuL4y+kt2CbYMGDcqYtllOrv8UAUUgaxBYs2aNDPJZrICcvGqKgCIQHQSKxPOLtxBDGuA0O40fJOMDmRTq1asXq8N65PAgRsWs1xU9M8bon0ApvLgYJPeKK64QYshn9LIE+yElIME6hseRzBmW+LKtXLlyvMQMTymLdHCsTRdHFgY01Hif8R6TEYOAC2t4XwkOBMeghqeaAQYEGu8yWTx69uxp2rdvn09m4W5fnTp1RBtsSTZBgRBIqxPm/Fxz6ieNGMF8tN8S46Dt8yqXjnuNfjJIwCDRtP/bb78VbbPXOXWbIqAIFD8E7AyR7fndd98tTgb77LDb9VURUASKHoEi8fyycgkGsXOaDQxzyyGcZex7vILoLln+zxqja0gZD6Hy5cvbzUX2SqYLjBRoe/fuFT0zWSL69OkTaxNtZRCANxXtLASVFHAvvviiTPuTaQESGC97AjpZDG+pNd7b4EG8s9irr74ay1jAZzTXkLhUDR0b7eU8yDTItexlEHDKkDKN68P1pb/8WXvwwQcNPxZEQ0PgkU88+uijdnfKr4W918hB/dFHH4mExDbCerW5B0nlp6YIKALFGwHSIJLhhxk7nmM85xjck/VITRFQBKKHQJGQX0tMd+3alQ8RS36PPfbYfNvdHwjmWrdunTxgrFSCMixAwFriTEkjKShq4wGIQeQgdCwMga7XSjW82oeXmNRpEEUkEuRKfuKJJ7yKxrZZb697MGELWM8z5BRtdDqN/kBsWerQz/Auo0emX2T5wOOMrtlpaHyRUlAW7TbeajzZs2bNchZL+n1h7zUILtcL2Yg1SDvee9Y2R7ts8bf79VURUASKFwKVKlUyBLfxG0RKSOIbTjzxRAnILl5IaG8VgexAoEhkDwSokSbLHc1P4BdT4zZQDAgJlnIb3lCmnp3ElzIEv7EtHVpR9zmT/YweFgKLVvTCCy8UglS7dm0J5nLXxbS6k7iiWUarSro0vMGkTItn1I8hbXAaGRcgkna/O0MB+9EfF8bQXWMsuuFnkHh+CCCKEF9+JJA2YGiEGSQg/yhbtqzokPnhwJOCR9tKYfzqTrQ96L0GobUyFWedkHB0107jmjDjwOANfNUUAUWgeCOABI/fHxwzZIVBhuZ+bhRvhLT3ikC0EAiV/Np0V/bVdp1pfqbLmRKCCGGQP4Ki2G6n+Fkggul7SKQ1yDDT4c4pfruPaHxIFtNNVjNr94XxaoOpnKSJhx/9gMxBdp0ZC3r37i2E37niHdPqyBKc+mfIPwFpSAkIHnObHRAgpcDw5qJ5JpOEE2s8xpQhsKxRo0ay35JOjiNgy0m62eZltp9OmQLl8PZybZAWMOVnjfK2bVxfBgLoma1BGGkHf5988onofbds2SLeXlsGbyqyiqBeVdtv+2rrCXKvgQHLNJOFw6k3R3pCfdZzbuvkFW8+9tJLL8mr/lMEFIHijQCzjjwrkEnx3CO7jpoioAhEE4H/MZI0tg9v4p/+9CchejwM8OQxEoaAsegDhjeQiH+mw/GikQkBzx9R/9bwDuMptJH6kDvIJEFM99xzj+TQ7dGjhxQnlReLapDHlvKQaIgw2R/SbbSVPkHcMBZaQMuLl5LgNKbEyb7QtWvXGJGnHARrfF56sREjRgjRo3+sEMda724DG4gXgWlOwyMKKUY3279/f/GMk1aMIDSyMSAtwAtBvaRDsw9gMince++9MiVHTl5IN+3hmvgZwYP00w4k8GJbSQqJ2+kvx/ft21dW8+OBz2fqhlByXfHCs2w1feRaQ5QhmNwfHAcxJ8UZq8NBJEnlhhYZbzA64ESWjnuNwRZLOduBGPcX3nKbpYPlnN9///3YfQj+XEfuM2Qa6H4h/9xzaoqAIlA8EWCGjmcs8rLq1atLCs7iiYT2WhGIPgL75RGR/yRqJqm2CIxCg5lO49SMkiGREDJSeLmlDOk8X7y6mJJHd4qGNRNG0BRkK56kgZzFNkNC0DZBOiG+J5xwgqfXNNH+oOdJpRwBgOiebU5gyL19j+SFwQBeYtrIgidOb3gq53MeE6V7zdkufa8IFEcEGOQyS+Y1sxUFPJBcETtC8HEyxrOLgTEzfwyowzLiY8gARErLqBrOEjCMqiFTwcFTVJwjES4ETuJAw4kXRSN+p2mTnaZ0qe+j2DyzaPE+s3lLtZjD1d3IUDy/7pP4feamY4rfqfH1K5tr293pwLz6lyzxpQ4IY7wvS6L9Xu1I1zbrNbb1WeLLZ4gvBukNw4rzvRYGnlqnIqAIFESA52u6nUQFz6JbFAFFoLAIhKr5LWzj9HhFQBFQBBQBRUARUAQUAUUgnQgo+U0nmlqXIqAIKAKKgCKgCCgCikCkEVDyG+nLo41TBBQBRUARUAQUAUVAEUgnAkp+04mm1qUIKAKKgCKgCCgCioAiEGkEAmV7eOaZZ8wDDzwQ6Y5o4xQBRUARUAQUAUVAEVAEFAEQIA0taWC9LFC2B/Lv3nTTTeaGvJXHctVIT1OrVq1imXkiV6+p9ksRUASiicC7774rKyo2b948kg3ctGmTrD558803R7J9LCJE/vSHH344ku2jUSzqNGzYsEi3j5ztUU11Ri58Fq867rjjIokh6x20+b9/mWOO/n211qg1ct6CvWbzF/4rzwYivyVKlJCk3SeffHLU+pe29rDIAuuz53If0waWVqQIKAKKQCEQWLduneT5jerzltUnWZAnqu0jz+8hhxwS2fZxa7CqZ1Txo32sHkr7okp+WSCMfP3xUpfSj6Iy0pP+ocTOPPx+KqomxD3vQQce4LnWgT1INb8WCX1VBBQBRUARUAQUAUVAEch5BAJ5fguDwg8//CAjQLtEsbsuVjljOVxc+4zE4tmKFSvMwoULPYuwchgrxLFkL57qTNratWtlGeVVq1YZPAYs2sHqMawWxyo8Tz31lDn44IMz2aQiOVdUr48fGF9//bUsS+23nxX2/vWvf8WWdPYrx3auMcsiexlLX59zzjlyf3rt122KgCJQPBBgSXiWemcxH34j1BQBRaBoEAjF88sX/O9//7t5+eWXzUUXXWSmTp1aoHcsA8nSkQiSJ0+ebFq2bCkapnirLbNcJNMUr732mpSFUNaoUUP+mCJ48MEHTd26dc2iRYsKnC+MDZCdJ554QtrO1MnYsWPNjBkzhPCOGDFC+sbyiSzjGYZt3brV7NmzJ4yqU6ozlevDfXDppZeaxo0bm3jXPqUGeRwEoYWk33bbbcZPb8iULPuGDx9uHnroIXm/fv16j9r+twly++uvv8p9OX36dHPaaafJfXnKKafIEt4XX3yxLLPId0NNEVAEih8CLGnP79y2bdvktfghoD1WBKKDQCieXwjfzJkzZXT7zTffeJIa1oV+++23zYIFC8RTe/vttwtRPuaYY3yXh8Q7zN/s2bPNp59+atq1a5dv/XQIC15XAvNWrlxp0PGGaYMGDTJkwoDodujQIXaqqlWrCvFnffcwjWCCTp06mZo1a4Z5msB1p3J9ILw//vij2X//UMZhBdrerVs3U6VKFbl/vMg2gwmu5V133WWuv/56OX7MmDGmY8eOMuvgN4PBIK9atWoS4MGArEmTJrFzN2vWTL4D3POVK1c2ffr0ie3TN4qAIpD7COCoaNu2rbnmmmtMr169cr/D2kNFIOIIhMI48OY+//zz5rrrrvPtPkSgdevWMYkCnttWrVqJ99T3oP/u8BOoI8CGeCC1WL16daJqCrUf7yF9uPzyy/MRX1spZO6RRx6xH0N5Xb58eSj1FrbSZK4PQRFLliwxixcvzkjgwSuvvGIeffRRIcBe/Zw2bZrZuXOn/FDZ/ZDhr776ysyaNctu8nz16zeFL7vsMjlm3rx58qr/FAFFoHgg8N1335k2bdqYa6+9Volv8bjk2sssQCAU8puo3xs3bjToLStWrJivKDqozz77zHz55Zf5tgf98PPPPxump5FDnH322UEPS6ncqFGjDHrleASfNuDJdhrexo8//lj6yfFuQyLBtBhaU2z79u2envOXXnrJkI7HbdS/e/duwxSbNbsNzK1xbiQADBQwPPRIENwG6Vu6dKkB28Ka1/WhbWynzW6jbQwybBvd+4l4/vDDD8XLj+TA2T932aCf33vvPVOmTBnj9PAyMGNgNWfOnKDVFCj3wQcfyLbzzjuvwD7doAgoArmJAM9Z0qXxvWd2U00RUASigUAosodEXfv888+lyKGHHpqvaOnSpeUzBBginIxBFlmIAx0uHldbVzJ1JFN2zZo1UjwRySYQyvYTbfM777xj6tSpY+bPny8kF++xTQeDxhRSDRFkyh0SDHkmoO7CCy8UjfQBBxwg/aQejAcqZO2MM84Qfeoll1xiNmzYIJpTzoHGtGHDhkKUTz31VDkvpLdFixZCwNu3by+64Y8++kg8r+ilGTwwTde1a1eZykfG0aNHD9HJpprr2e/60F4GA2hmbZ+QQXA+cMGDTo5ppgvvvfde6TP/kNZMnDjRXHXVVSKb6N69u/zAIEEpjHHv2evlrAcJDftSMSQ45JGuXbu2ufXWW1OpQo9RBBSBLESABPs8S5lxUlMEFIHoIFAk5NcGaTm9a0Bip43t/kQw9evXzxx++OHiJcVDiMd43LhxvoFMieoLup/2EdBHexORbIintfvuu09ILKSSv3r16gl5tdPpaMEggWiZd+3aZSZMmGAguzw8CQrjvCS+RmsMeUVyAbl2an7JhoE3mvZhZNCA0CJFwbuLHXnkkeLNJchs0qRJ5oUXXpBp+ZEjR4o3G8LMVD/BWnZ1FM5BHQRscHwQC3J98LQyHej0VDNIwMsKoT333HOFyN94443y3soHwPK5556T7B60Bb3tlClTgjQrbhkwxtPrNq510PsSHfudd94pVeC5nzt3rlzrF1980ZNYu8+lnxUBRSD7EcBB8thjj5nRo0dLTt7s75H2QBHIHQSKRPZgU0JB7JxmI+GZCg9ieHiffPJJIWjLli2TrBI9e/Y0eDPDyrBAu0irhkeSdto2B2kvGmcIpTWIJA9Ip/zBEkvInsWHICk8wXg6kSEkMq9Av3LlyhU4jOwMeHkh1gR0vf/++9I3AhHxHhOgYa1+/foy0EhGsxr0+rjbhmcc7bbFApJO+jqnjhvsqZ+VokgvR5YPS4xtm1N55d5Eh+w2tge9L8nswH3JH4MLBiJ48BnYvPXWW+6q9bMioAjkAAIMdJ3SsbvvvlscEzzn1RQBRSBaCBQJ+WXlHMz5oOAzGk7Ma9pZdiT4h64KwobXkGULwzK8qWQ2wBKRUQir7SdtwoN6xx13CEEnLRrE1+6P116IE0ZwWCKzHnR3Oa/tkExWCnIaMgvs1VdflcwEZCe45557RKP97bffOosm9T7o9SFjB2njIIp4oElLhmzC6qA5KWntaCdyCLy+Xbp0yecBT6phjsLcm3Zw5tgs92aq9yX40l7kLGSb8NI3O8+l7xUBRSC7EGCQiwSOAS+GM4bBOt97NUVAEYgeAkVCfsuXLy9IMLXvNEt+jz32WOfmpN6zsARmA4ySOjiJwqy5jTGlHc9Y/xoPLsStc+fOoluFoPOwxNsa1Kx32IuYUQceWYK+/MzPa2m9q87j7LT//fffb4YMGRL7Q0NcWM1qkOtDX/CeEsCGJhoi7PZmN2jQQILhkGXgUUfu8cc//tHZjZTec2+670sqQvJQmPuybNmyskQ4Xmr01WqKgCKQOwhUqlRJHBlIx7Zs2SKxGyxLW6tWrdzppPZEEcghBIqE/OLFJHreHZ1PiinIGJ4/awQ/JWNkJsDI5RqmQQKRMBCkRiobLyOQyxImchPjycQzQE5YzJJ93pN+K57ZADvrAbZ5cS2pfeONN2KeUci23W7rJCuCe5vd534luA4jUMtpeCwTkX1nea/3Qa7PgAEDZD1z9HJouiH+kEYMjTBeFXIoQyjRIRMkyGCCPiYjQ/FqX6NGjcyOHTvy1UM2CgYWSD+sMZiJN9iw5ewr94gN9GS9djVFQBHIHQSI32DFNuR2ODkI3iUuQ00RUASiiUCo5NdO79pXCwHkDO8nC2FYjyZT/8gV2G6JHZIBprRZ0c1pNvDIOQ3Ofry9lGXqGmlBmEagG4FZ6H9JZePuI3KI3r17m/79+0szNm/eLK9WT0q/baAb/UFj6zSnNpSsD+RNZoqfjA0Yr8gvbFo4yBVEEcML4ZRjsCAIadEYXDiNgYWTgNt9BJlBAlncwZJO9hFoF0Sikez1ofzevXvl9OBCnyxObMTjTDv4++STT4TE411Bm2wNLJBV8BrESJ9G39394QcLHTSDFWv8kCF5IMAQ4xiW0cY77RxQ2H67CTgkeeDAgXIc3mmuj5oioAjkFgKsBsmsGTM7PMdY3EZNEVAEoolAwcieNLQT7yBZCfDs8jDAMweBgFDZXId49wjqQqsJqUAegCePKH5reIchdDYrBOmtqAuPKsZ0t/WsQv4gHZyjb9++SadKs+dM5pUpctqNPIDpLQLtSNEG0YSkkYnBSjyQOLAoBf0jwAxCSkYASBGrgZHay2mQOzJC4CVkeWgyItAva+CKfpQH7ptvvpnPW062B8jzLbfcIoMH2oKHFA0vXmfSgaHjJXUXOmACyhgs2OV+GZyQSYHUYmSeQMv2xRdfCOEDXz9L9vrwA0F91A2h5D4gY8PgwYPNn//8Z7k3GMhAMLmf6D/EnOA/ZBDkOv7rX/8qWmS8wUH0ddxvZM/gGlEv14K6GFww61ChQgUJLOQ+5f5lgIX0gmvJPozBGcGCtN8aOJG/GqMPDGYg4hzP+SC8eP2TkbrYuvVVEVAEoo8AQa08M/k9qF69ugS4Rr/V2kJFoHgisF8eAUiYWgEiRaBTOjSVTpg5NaNkyBkE66STToqlO3OWy8R7ptjRkVpNarLnhOBAePD+nXXWWUI6vQLMIOhE/5M7l/18hiBZgk8QF4QMGQNEj7JIOJyeUGfbuC54Fm0AnnMf6cOYhiNbBFP5eFfJCWw9xM6yfu8hpXitIeFBvap+dSW7ndRseNZtOjm86/Y9XmwGR3iJaSODDkh7ugzPMCniCFYj+0QymKWrDVqPIpCrCDBo5dnEoD6KhoSKZzDOiWSMZ9H4vJzeyLIYIIdlzFrh3CAdZlQN5xQYRtWQqeCw8fqdjkKbyRaCAwzteBQNp1DTJjtN6VLfR7F5ZtHifWbzlmoxh6u7kaF4ft0n8fvMTYe+16nx9Ssb9e0QTP4SGQQSKYc1PjtJpXMsAvFKdOO7V5Cz9fLqTCGGVz0Vg1AmakMq9QY5xnr1bVlLfPkM8cWSXQxFDgrwD2+wavYCAKVFFAFFIIYAz8t0O4lilesbRUARSBsCoWp+09bKYlIRcg67EhDaZRvkVky6r91UBBQBRUARUAQUAUUgdASK1PMbeu+y7ARIE9CVouNFDuGXRSLLuqXNVQQUAUVAEVAEFAFFIDIIKPmNzKUwkkrLmU4rQk3TpigCioAioAgoAoqAIpATCKjsIScuo3ZCEVAEFAFFQBFQBBQBRSAIAoGyPZB2Ktmo1yAn1zKKgCKgCCgCioAioAgoAopAuhFg8RkyenhZINkDUffdu3eXvLxeleTCttGjR0uaM1KuqSkCioAioAiEhwALHJHqjHRYUbT169fLIkQ9e/aMYvMkbSX5hMkdHlUjFRu/q1E1Vmll3YCopjoj/SoLW5FmNIrGqqpXtv7FlCv7UxSbZ96b/0+z+Ysqvm0LRH5JuUWS/iCpvHzPFPEd5HElNVgu9zHil0CbpwgoAsUEAfKN2xzkUewyecRZSCiqvwfk+eV3Oart45qSwjMb2hdV8suqojgeo4oh6UAPOnhf3pVOuFREkXzFDzrwgHxpZN2NUM2vG5FCfCZDg5oioAgoAoqAIqAIKAKKQHQRCOT5LUzzWSmL1cnsCmZedQUp43Vc1LZdcsklsrQlyxWrZRaBFStWmIULF3qelFXiWD3wggsuMCVKlChQhoVFMj36D3LPBylToDO6QRFQBBSBQiBAfvmxY8ea4cOH+64sWojq9VBFIBIIhOL5tUv4vvzyy+aiiy4yU6dOLdDZIGUKHBThDStXrpTljdHBFCdjaWq3scQnSzQ3btzYOFesc5dL52eWEj355JMNi4MMHjzYHHzwwaZGjRryx/Tl/2fvXeCvmrP//zfGPU2UcTcRo6GSiiQSSheUL5UuUpkuKmNKlNAFYXKNGvp2p4vLTF+DQokuihChiyiVqaYiiX5d+Dfm/3mu+a7z3e32Pmefzznnc/bn81nr0ad9zt7v/X6v92vvs/frvd5rrfc999zj6tSpI0sWe9vFGZ7lo1977TXv7px8jnLPRymTE+WsUkPAECj1CEycONF17NjRdenSxYhvqb8bSjYAObH8QigIaGDp2U2bNgUSoChlihP0uob5rFmz3Pbt2x0+xCVdNmzYIAty+Ak/hPfHH390+++fk7FVIKwnn3yy4+/NN990K1eudC1btnQQYpWmTZvKMto82Bmo4K+E4He4a9cuhw9driXKPR+lTK71tPoNAUOg9CGApffFF18UYxXPUhNDoCQjkBN2ct1117nx48e79u3bh2IXpUzoyTE78Msvv7jZs2fLmu4//fRTkVgR4wABrgZBgpvLu+++6xYsWFDk7gRh7gvly5cXKzCuBIsXL06o3bZtW7dmzRrXqlWrxL5cfYhyz0cpkyv9rF5DwBAonQiQznTSpEnu1VdfFSNC6UTBel2aEMgJ+S1NANJXiF7NmjUdxAV56aWXZBv23549e9y6descRBlZunSpWCy95ZOVgWxv3brVQeQQrOu4GniFuj/++GP35ZdfencnPierXwtRPwRX29H9bGk/LM0Olt8dO3a4bdu2eU+Rz+hOGqGvv/56n2NYYf/5z38mcCHieufOnfuUK8wO9KFd3CG86ex+/vln6R/uBl6hD8uWLXOrVq1y6Bwk//jHP+TaozPX08QQMAQMgeKGALESjz76qJDfChUqFDf1TV9DoFAIGPktFGx7nwTZ/a//+i93zjnnuFNPPdXNnTtXyOHepf7zjbyCdevWdcOHD3cEyGFxZLTdoUMHIZqUSlbm7bfflvPxbx0wYIDr1KmTu+qqq8SfFSKHjBo1ytWrV88tXLjQ3X///a5x48YOIqmSrH7ILi4LuAdQ7q233pJll8k5qPLFF19I/kEILMT/yiuvlL/PPvtMitAvAszatWunp8h22rRp4gPO9vnnn3fNmzd3M2bMkGNjx4511apVE+vs66+/LrgMGjRIBhV//OMf96on3S/gMnDgQAfhB49y5cpJFX/7299ET9qdN29eolqm/jp37iyWa3SgP/RZBSJ9zTXXSB8gvkOHDhX8169fr0VsawgYAoZA7BHAQNGzZ0/Hc+73v/997PU1BQ2BbCGQE5/fbClXHOrBYvjee++5hx56SNQlaTsW0VdeeUUIpLcP8+fPl4cMQVn169cXktyiRQt36623umbNmrnTTz9dArJ4ECUrQ3sEk+Fr+8wzz7gGDRq4J598UiyUU6dOlTYgyTzMSOQNOcWfa8iQIZHqf/bZZx2+yyxsUqtWLXfmmWfKAid8pi2I98yZM921114rllS/zy8uINdff7379ttvE91nQNC1a1ch0/qQhSyjGyT0D3/4gxDfJk2auGHDhjl8qCGptAOJJmH6WWedlagv1Ye77rpL/K4hvhB6iDoEG99fFbCHpBOc55U777xTBhjoyx+rxEDA0QV54YUXBOu+ffvKd+qBHBdVcJ80av8ZAoaAIZAhAr1793bkXOZ5bWIIlCYEzPKb4dWeM2eOkKMDDjhAasIiiBC45Jf3339fdlWtWlW2lStXli37IXZMyUcpw0kEc1Ee4gY55DxSejF9BVlVgokPLJZhyCwSpf7atWsLET3qqKPkHIg2KcK8vrJyIMl/LBjilfvuu8+de+65Cb04hsUVPSHmyDHHHCNbMFTr7GmnnSb7cO1IR7DwMggZMWKEWMDJOMJqTW3atJEgN63Lryf7GcDoteE7AxPS/6j7A1us6gw48BdGGGTYlKFAYf8ZAoZADBFg5sv7HOWdwCwcmXD0/RVDtU0lQyAnCJjlN0NYcXkgewAWTBVW3oEcbdy40R133HG6O0H8eAARgLV69Wo5hiVVRUlrsjJallRetKWCfyw+qscff7xTqyTH0IOHG1bQKPVDzsnziPWZfrDSDOfyVxjB/xj/WTIw+IXVa3Ct8Posk3pMhVWCEPWP1v3pbs877zyHhZZ+PfLII5KPOawOjuOO0atXL7d582b5g/CiIxkscFUBGwg9f1xjrPdBOYTD2rD9hoAhYAgUFQI8P3Hf2rJli8xUYtjArQ3jCbOQJoZAaUPAyG8GV5wArSVLlghB9GYZwCIIKWLqHougCr63LFcIqcICOXnyZMmIwX6VKGW0rFpm9TtEEevv+eefn3DD0GO6jVI/1mzyPOLW8N///d/iPuAl6FqXd0u6sA8//FB8jb37+Yw7AKRRLafe4+DmJ9XeFGnZdCUAF8jvBx984FVhr8/o0q1bN/fJJ5+IXzZ5qnGXuOOOOxLlKIPFhP7igoKLy+233y5LgOMWYmIIGAKGQJwQwEiCwYUAaN5NuJkR6DZ69Og4qWm6GAJFhoC5PWQANTllcQnwEl+qI/iNff6sD+SfhRyRVuaEE04QIubPmBClTJjKkF9cC8jy4Bem/bFcRqkfn2P8jwlyI18xpBVyi+DPq64TkFQlp99///0+GStUBwh5jRo1JNuC7tPtihUrXJUqVYpk2g2iingty6qHbrmmEFuuC8QX8eYAfvDBB924cePE8suKcX369BFM8AtORqq1ftsaAoaAIZAPBAjMJQ0lRpdbbrlF3OZssJ6PK2FtxgGBnJJfTXWl26AO6zHdBpWJ4z4yIkCEKlWqtI96TOVDHvGRZbpfBRIIsYJgQRY5TiCYd0o/Shnqo30vKdM2IGNkIPCuqodfKtZLXB9S1Q/RJTiMh6QKOkJ++WNFNyW8uF1oyjIspV7rMAt9eNOUoRdE17sEMTgQKEbWCoQ+ebd8ph5Eybd8SfKflvdbkyGmuCqULVtWLO9ahbapuqorivYfPDTQjbrpA/uwiKurBoMAsCWLRxTRe123QefoMd0GlbF9hoAhYAhERQCXN2a1eH4zY0lGIFa/NDEESiMC/8dwsth7Mg0QsQ8J48eFbxE+lA0bNpSoeZqKUiaLKmW1KlKJMYomgKBfv37iR8VIGiHfK4t7kPbq8MMPFz9TiDBT4/jOEsiFWwTTUBBgXCfYz6Ig+GSlKkOOWnxn8e3FuozlGTcKzWKANXLChAnuiSeecNOnT0/4FmNtRlLVjw4sD0x5XB8gizwsuZ79+/eX7A+kV0Nat24t1u0bb7xRSDAWBYgh1xnCDTnEFxoLeP0CvzIIOHoRDEi/CSLjHCysWFMJTkM/gtXIyQtuBMOxD2s0D+zBgwdL2/7/qJP7TAcbBK3hYoJ88803jqwc6EUfWHkQIUsF/r3UDwGHCBM8iDsDGR/wh8NSjj8v7TZq1EgsJvhjs0Kc+suhKzjxMkkmUe75KGWStWHHDAFDwBAIQwD3LJ7HvJuDYjDCzrP9hkBJQ2C/AmLz71SdwlpJ4A9+QiVVmOKHoOEXmithapxUXhBmLIUIC0hANiHHkKgoZaLqR6oxyKhmUeC8dOqH5GEp1swLWCH1s+qAhRWiC6GkbBQh6ILzCMyLq0CWWcSCvM0MMviOzgxowAF3EAg8ZQh48+MS136ZXoZAHBAgvSG/n7im2GImi5iNsMF2vjFk1o/0j6zKlq4wC8YzDMNJLgUDBBjGVXBPxGjid1uMi74MVEi1iREojsLsZ+NG37lyZbfGUT03f8Eet3ptpYTB1a9kTt0e/I2V5u9Mq+MiwANBiS94YEFkBI7VEUtwqjJeF4lUeJLGy0t8o+jgrR/LqZfUeT9r26Rbw90hKvHlPFKCxZn4oiP+07i06IOR7xBfBBy4hnxnKjEIFylo/xkChoAhEDMEyHyTa+Ibsy6bOobAPggY+d0HktzsYGod9wQWS8AflxXX+GNkzLQ6bhMkG09VxpvaLF1No+iQSf3p6mPlDQFDwBAwBAwBQ8AQKGoEcuLzW9SdKC7tQXLxO2X53jfeeEPywpKdAX9fDZyLUiaT/ua6/kx0s3MNAUPAEDAEDAFDwBDINQJGfnONsK9+FpDQFd58hxJfo5RJFC7Eh1zXXwiV7BRDwBAwBAwBQ8AQMASKBAFzeygSmK0RQ8AQMAQMAUPAEDAEDIE4IBAp28Pw4cPdvffeGwd9TQdDwBAwBAwBQ8AQMAQMgTwjQEB4wb9YCnnMyL3vX2xMlY3k9sBqZKTd6Ny5s55X4rbknwWoWrVqlbi+WYcMAUPAEIgTAqR2JLNMXHPNLl261L322muub9++cYItocuOHTvcbbfd5p5++unEvrh9uOGGG9yzzz4bN7US+nTo0EFy4mtGn8SBmHwgzR4Ykm4zjvLMM8+45ldtd+WP+s/iVHHTce68n9xXa8Kxi0R+SWfFuuBHHXVU3PqXNX0OPfRQWaigJPcxa2BZRYaAIWAIZIAAix+ximJcn7csWkP6xrjqxzuZ9Itx1Y9bI87X16tfXMkvmZdIhRrXa0z2qAN+tSuDp0BuTyUdqa7UGtTS/kE7i9s+FiAwKR0I2LUuHdfZehlfBOw3GN9rY5oZAoZANAQiWX6jVRVcihXMYN+6QEBQqShlgs7TfSzJe/fdd8vys7ovl9uPP/7YzZ07N9EES/gmW4WFVGasqIMwkmM54MIKU3ELFiyQHMH33HPPXotYsFiffxS7YcMGmb5jVR+s2yx80adPH1nSN4oOTK+xxDA5iU855RTJRxx0Hm0/+OCDUo6FNXIxXUh+ZJaGfuutt4JUyPm++fPnyzLdYEG+Zha4CJP33nvPcZ9gneGasNIe07y6DPb777/vuCZYcFgGev/995cVm8Lqy9V+8KR9vzBqrlixoiMVHyvYZUtI8ffOO++4rVu3ujvuuCOx1HS69RfF/aY6EfPAUuZBwmIt55xzjvvd7363z+Gg3+M+hbK8I8qzNEqZZGoV9fM2mS7F7RgDB5aOZ0VMVhgzMQQMgfwgkBPLLz9wln2dMmWKu/DCC2VRB3/3opTxnxP0/aOPPnIrVqxwzz33XNDhnOzjhceqZizRydLEQ4cODW1n2bJlQgQpB8FJRpJDK/EcOO200xyEdOrUqUIg9BDLNEJOIccqX375pbvssstkWV5e4IMGDZLlMPFvjiqQt+rVq0tuYshamEDwKDdv3ryckVOu8WeffeaWL18epkZO9/PCgqz+9a9/df/85z+TtnXiiScKeWQJyDvvvNOxVPSZZ56ZOOc3v/mN3A/cF5DBdFe8g7BybVmpCZLllXTwgbjt2rVL7mMGFxD6s88+W6bapk+f7lgN6pFHHvFWn9Fn7l8GAfx2IGGFlaK431Q3MEJnrhW/L64jGFWuXNnhG1qvXj0ZDHktokG/R60v29soz9IoZaLolY/nbRS9ikMZlptv1qyZwyDB1sQQMATyh0BOyC8PfogW5IuXvv/lTHejlIkCi64dPmvWLLd9+/Yop2RchmV/mzZt6i644AKxjLFoBZasIIGw1a9fXw5h8b3ooouCikXeh4Wpbdu2+5TfvXu3kBjWfFeZOHGikKqePXuK/xrWPKy/+G9HFcgelm0IQCpRTFKVK8xx8FWLb1j0ZmHqTeeck046yXXq1CnSKZS94oorXI0aNaT89ddf7xo0aJA4l4EK1wXixKxFui9DflMsie0nkLxY77vvvkQ7qT5wP7Zv316KValSxTVu3Nhh2UNfiHubNm1kcJetwSXkt127dqnUinQ8l/ebVwEG8ATHIJDeRo0aCUZNmjQRrAkEfv7552WGRM8L+j3qsWxvozxLo5SJolc+nrdR9Ip7mXXr1slzlMHqww8/vNcS93HX3fQzBEoiAjkhv9ddd52sWqYv1SDgopQJOs+7j6nk2bNnuz/84Q9imfFaPb3lcvUZ6xMk4eeffxZroL8drEWM9smWkU3BguwXCPGaNWtcq1atEof47p2OLVeunPvkk09c165dE2WifoA4R5Eg3aKcl6oM0eG4GmCJzhf5RceoOKTqjx4n8IfgmnQFV6J3331XXGC4D1UWLVqkH7Oyhegh2cQ8mxjm6n7zg+fF2H9MBzVz5sxJHAr6PSYOZvlDlGdplDKp1Mr38zaVfnE9/s0337hrr71W3hW9e/eOq5qmlyFQqhDYl0UVo+7z8q9Zs6bjwY5k8wUdFQasQkyHT548eZ9TmDbGappMeKF8/vnn7uuvv05WTKznWPWC/DM5EQKOFdA79cp+70ubMps3b3Zbtmzh0F7CuRAnvyVxr0L/+wW3iyjlvOcyEMAHltmAwgjXFqvrxRdfLFgx/RokTOGDE0KbQRb59evXO3xy6YdfsKjiqrJq1Srx0/Ufz/V37gf8w7lOCNc7yMUCPdFffckpS18fe+wxPmZN0AfxRs1GwRi9uEbcc6lk48aNgbNDel46904QfljdvL8Lr/7aRiZbdQfCRUQl7PcY5f7CZYxnG9cd3eMicXjexgWLqHpwP3br1k3chxi8mxgChkA8ECjW5BdCRNAAU/LkwiMILYjs5BJqyCVWHgisn5DhDsE0cphMmzZNfKLZMm3avHlzCajyluel/ec//1mmWcnpiNWW6Wiv4D+JhbdatWric4u1GdJNUNWrr74qn5mCx02DqW1yNqswdd6xY0f31FNPiVsB5JL2ggSSAgHFx3nAgAGSozOKpXHUqFEyvb9w4UJ3//33CyYEjUUV2oUE4kpwzTXXyGlBAx0C8+gfvsfkl2R6Hd9s3D8QiART1fQP8os7yoQJE+QY/7344ouSy5qAQtx2mP7/4osvEsdz/YFrjRsE17JXr15u2LBhYi3iM36mixcvTqiAbpRTFwL0bN26tQwMIClcf/7wkc5EmC7nHtdZnFQYQ3q5R26++WYZTOHawR9uAH4ZN26c69Kli9zPLVq0cIML8lr6B3fp3Dth+BHgySAZLPDbpS0scH5M/fpF+c5vnnuIwMDu3bvLKf7fo9aT6v5iMMP9zbMA4svvrE6dOo7BWhwkDs/bOOCQjg4jRoyQ586jjz6azmlW1hAwBHKMQLElv7zoIDDqQ3v11VdLRDbT40UtkA6mX73WXyy5BDExTR8kEHWI7NixY4WM9uvXT/wHIQNqSeI8iCp+drx4hgwZIuWPPPLIvarkZe7tNxkdINS1a9cWgsdnrNAQVfVB1Qp4IeMv3bBhQ6c68KBmn1/Wrl0rmSJY7Y8sAVdddZUQrmQEkcA8iCQEoUePHrJl2hsSFVXoP9cXwc8Tv2X2qVVS64HQ6MCAawEBJoAL4sX9wiCFQDReSLfeeqv43tFnHTARmEZUP9eF8yFiRWmt4V4ho8Qll1wi9zZ5FPG15RpxL0GGVXD3wX9QBZI/c+ZMIXkMcrjm/DEgiircs1wvyBvXlwUICMYDLwYNSDKMsWqSlB0/cQYcWLwgr/ihc1/7rxf1jRw5Ukgv9wf6ewdm6d47yfAjwJDrX6FCBfktKKbpBH+iLwGd3Dv84Q/N/QiJBjOynCD+36PsLPgv1f31wgsvCEZkSqEOdGMwB675ljg9b/ONRdT2P/30UxloDxw40JGz1cQQMATig0CxJb/410F81X9QLYJYqopaICZY4iCoO3fulObJdMHLNkwISsJa5E2XBVHhuxJDovYhYQTb4K+rwgvXLxDeKOKth/IQZI3u5zuECnLptTKyH+FFzJ8K/QN/rMZhApGGHGg/sSJCmoPIdVgdZCHQgDBS5qEjbgFYOP0CyUG4HpBHyArEC/JPVhBIhQpW7iOOOMKpryYEmwh+FdrkBRZE2rRMLrb0AcLjXVGRQDGCR70S9Zp7z0n2mal6Evtz/WmPlzauKl4/cs4Pw/jNN98U0g4BVncbtnwnxRn+5l6BXOvvl+vAfQ5pVktnYe+dMPwIiPViWqlSJcesQjqCZR7XEv4YmOCiAOll9onBhkrQtUl1f3GfMTvCwAN/fQRrMoQ93xKn522+sQhrX2eo9DgDOYwN+uzS/bY1BAyB/COQ8zy/ueoiRJMpR69PLaNrXh48hLKZmzRKH5h+htBhgeWljs8o1rggwYcRv9KgpT2Z2ierAVbHDz/8UE5Px3oX1F6yfVWrVnVjxoyRgD2wgzBCgqL4auIHirtJEAmlTQYC4MDgwJv3l+sD6aENrITJBBJAOilvbmTcOhDuAXyugwRS7xWd/se6plkjOE4wovrXktJrxowZ4nLAPv4gJFyLTAOrwqx3/ml+1fnkk0/eq02smtw3uRSymOAeE1X8GKvbD7p7BWs7wn3in3nwltPgTHXbyOTeCcIvaF+U+9yro/8zzxzybWP5ZWaD+9E/wNRzUt1fDDJIo8fAmD+eYViYGYzkW+L2vM03Hv72GQjhnsSSw5BenqUYEBj0mRgChkD8ECiW5Jdp7CVLlsgDRi1MQIvFhJcGU+Lqf1dUkBMVj4UGSy2pxMjBGiYQIchUkEWR/ugLWfum27D6MtmPRQfLKNHIuAxggQsj7UHtoBtTokECYcOSeP7557uHHnooqEjKfbx0OddrRQcfLMn4M+O/Szt+8S8JSVYFhLRiQWulUyfT9FgnyYkMicElhYUYMhGsiwjWTKypfsGVJGgBGD/ZDiPP/vq83wnsYgCFtTIX4sdY71O/rtqXVORdz8f1JNN7R9vUfqOTWpl1H1u/rt5jUT/zu+faEszJQC1oQBbl/qIM1mOuGS5dDKQhUgweNKNEVJ2yWS6Oz9ts9i8bdXGNeJ6ruxCzYeR0x9fcxBAwBOKHQOzdHgjI8gvTq0x968tSjxP8xj4IU1ELL2ssN4z4ma4leC1MIIRYwAiS8wtT87gW8KKuW7euHF65cqW/WNa+44/LQxoSCfHlAQ5pQvArJWguTCC9WOfCrHlggmsHU+d+wZUhzOrpLYu7gt8aqbmHv//++71W2vOe5/+sWKp1Uo8ToPX222877imIB9PZSl68OZNZva4wou0GLTyBZRnruZ9EFqYdPQfSp4QOfOhXUQm+xoj/vuaeRghETCaKES4E2bh3krWVzWOksvrqq6+kyooFq+IFSZT7iwBALL/gSJAevz9cu7wxAEF1Z3NfcXneZrPP2aiL68T7h4ECAZ/MIPmfW9lox+owBAyB7CCQU/KraZh0G6SyHtOttwxWVCxnvBBUeDhDRNSipvvZ4jIAkWO6CbeCXArEDSuP149RrZNYJb3WPE2p5SVTvNwgBQQUqfCCJHiMTAoIfcRPkMAtHqoI5JTviDdlmb601OeY4+zT/XxH8HvUfdRFkJM3jRWBeJBf/iAjSqQ4F/9Xb+olrg/l+vfvz2ERb/3soJ9ErkN2VXBlwKoaZInTMmzpJ/eFWm29x/DpRTSTgx7Tvnmx5litWrUkqI8ALCX37Cd4j2u5evVqviawABsCsBD6pARO69etFEjyH+QXH20sQRpYR3GsoExpM1XuF+r2148OXr05h33e680+/Lc1bR73ZhQrvmJFfVFEddPz9BwyE9SvX9+NHj06MRuANZMZBQYUes20PAMbFerkehM8qv7hUe4ddFZ9vHX594WV82Oqdfi3io1/loPrOHjwf7JUkG9cXTy0fb0+Ue4v7jmw0kEhAxnvINivk/+7PkN16z/Odz2mW2+ZOD9vvXrG9TOzjjyreC9wLTVINK76ml6GQGlGYL8CcpMylBiLGFYqHu5RBEsakemQHlJa4UcKkSOjgEbPRymDvxTkgGhzCATEhfQ/TIvycGFK8JZbbhGVIGWkY4JYYf3FTw4i7M2CkEx3LJ+8uJmiTyXgcdddd8mLhLZ4WZPWDCHnMFHdkBCm5YlmZzoUnfF9JfgLcoDQP/xtIe2QW8gl/oPgpMLLlowEEBqsqJB6LMe4dhDYQ/Q9RBt/QsgwmSDADN9WtUaBPVYl/Gax1KIz07QQUv5Yax69WGyB24GpOggthHHSpEly/QhGwtqOVR0LHnhjkcYlgXJcD/QGf17euBZAZugbvtBEruPDiEsIRAB9ORYkYAVp1GAk9MICrQMKzp1QkB0A8oW+1IO/HRY4yAMvdtrhuvBCVwFj3BjAgD6gK1Y2UnFBTKmDfbis0DfwgthwHvcZgwTFGSs5gx2udSrhfNrA6gyO4MP9wr3iXXCEfmMtom3KVCywInLP0zb3EBizMhz3z0033ZTAGr9trgvWUvpGvUqC6T++vGFCWVwvwA6yhd8tC7doCjX/eZD4ZBgz0MO1hGvH74/pe4IISXH361//WqrD/5pgOggxgwr6xMCP3x/3nTcyPuzewVfbf7+NHz9eXFeS4ReGKYOxoAE1CuObz6BaQ3niAABAAElEQVSUPvFc4b4Ca4g9vwMIL0F9YAaG+H/qfcLvkecURCjV/UVAI4NhiDNYYEGHTPGM4DcbJlGepVHKFOXzFh9pfhfca3EUBo48Y/n9pyP8Nrj/eb7iu57suqVTr78szz6eATyf4yoYbsAwroKlXlM5xlFHnhu8H3iOxlG41xs3+s6VK7s1juq5+Qv2uNVrKyU4p1/JnJBffyPF4Xs65Dfb/YG08iKFHIcJxAiSAqmEEPPSZbocQpHKghpWp3c/L15ItQbrQCD1s7ccBAw9IKTpRqETqMb5mhLKW29RfoZYQsAhQpAYr4AtEfzgzIuL71wbJd7esul+pk181XHbYMAQlBEg3TqDyqMvJJ7FV7im+RCuM4Mvgsy8ZNavC0SPew+8vTMQ/nJxuXf8eqX7Pdn9xW+OQRWkkHuQwWLQbzDdNuNYvqSSX54tEwoG5mS00awoucDfyG/mqBr5zQzD4k5+f5VZ9+3sbCAQhURCDDRgCjKhn7PRPnX4rYNhL10sWxCVwkiuyF66ujBYCBtNQ4a9FkC++wlyuu1peXArLHZaR5Qt5DqKu0OUugpbhvskDGNvnQyi+Eslcbl3UumZ6niy+0t/cwy01PUjVX12PF4I8GyJOkMaL81NG0OgdCGwf+nqrvXWEDAEDAFDwBAwBAwBQ6A0I2DktzRffeu7IWAIGAKGgCFgCBgCpQwBI7+l7IJbdw0BQ8AQMAQMAUPAECjNCBj5Lc1X3/puCBgChoAhYAgYAoZAKUMgUrYH0paRqsjEEDAEDAFDwBAwBAwBQ8AQOPDA/XOWzi9TdEmDWqtW7dB0t5GyPZCHk5XASnIUK6uysUrPeeedlynmdr4hYAgYAoZAEgTIS80CISxqEkchFzV52snnHkch1Rn5v8nfHlchhzj55uMq3Hvk5M5VLuZM+00OeTiXN/tQpnVm83xyo1/ZdJs7sty2bFabtbrmzf//3Oo1p4bWF4n8kr6F5O78lVQhlRgpxEpyH0vqtbN+GQKGQPFCgHR85IKO6/OWdwHvhLjqRz5hfS/H9cqT7jCu+IGZ6hdX8ht3TkLaxv0KrnFcZf+CPP1c4zAJPxJ2hu03BAwBQ8AQMAQMAUPAEDAEiikCkSy/mfTthx9+kBF0shWyopRBh0WLFsnyn0H6sJIVS7OyXG1RjTbnz58vS72iP0n4WZqWxQVYSlSXcUZXfE/iOroMwjKdfSz7yhK8LN9b2AUcPvzwQweWQcIKdiT8Z9npfGLISmQs0cwyyCwF3aVLlyB1i9U+lh9PtqognYlShnLDhw+XJbz57BfaOOecc+T36T9m3w2B0oQAK/yxnDyrL7LCmIkhYAjkB4GcWH51Cc8pU6a4Cy+80L388sv79C5KGf9JLBcJufzrX//qHnjgAVkm9uyzz3b8lSlTxt1zzz2uTp06oUTKX18m36dPny7rbuOX88orr7h7773XzZs3T5a1ZGlSFdYOx2f6tdde010lavvmm2+6Z5991g0dOrTQ/TrhhBPkuj7//PNyXamIa8q1/v7771337t1dgwYN3MqVKwvdRqYnHnbYYULgpk2b5t59991Mq8vb+ZB3BpEMVpo2bRqoR5Qy/hMht/hw8rvkXmeAwDWsXLmyW7p0qatXr54MCPndmxgCpREBluhu1qyZ27Bhg2xLIwbWZ0MgLgjkxPIL4XvjjTdkdLtp0yaxfPo7HKWM/5yTTz7Z8Qfhggi1bNlyr/XTeZlXrVrVdezY0X300UcOq2GuBKKNw7wuQwqBe+yxx9y6dev2anL37t1u165djgCFkig33nijO+qoo+R6F7Z/WAb5e/31193q1avdtddeK9eZ+rim4Ewg4vXXXy8Dm2wtN5yOvvhfXXnllW7ChAnpnBa7sj169JDBGL8fZiSCJEoZ/3kMcgnMIHAU0tuoUaNEkSZNmkhbrAV/0kknub59+yaO2QdDoDQgwHuhRYsW8izr3bt3aeiy9dEQiDUCObH8EuU5fvx41759+9DORykTdnLY9Hf58uXlxYsbwuLFi8NOz3g/U+Br1qwRVwdvZThX+zNitG3bVsq2atXKW7TEfMYi2rhxYwf2mUrYdWVgcdZZZwkx/vTTTzNtJqPzCTIpzoJ1/cEHHxQCHNaPKGWCzg27fpTFco/MmTNHtvafIVBaEPjmm29kQM/g3Yhvabnq1s+4I5AT8puvTu/YscN9/vnn4g5RvXr1nKlxxBFHCNl75plnhJB5G8I3lSlflZ9//tlBxr3TvViD8aVkmhjZsmWL+JLqOWw5vnPnTu8u+cy5TJtRL7Jx48ZACx6W5k8++UQs4LRDfX7Ztm2bHNe6vMf9On733XeB+nAOafCw1noF1w/cA2jXbw33lov6Wa2UWGBVwJUpfLZ+IZKc6Xs9xgwEEdJeSXa+txxY0v9kQnvce19//XWyYimPJauHY1yzzZs3Sz30J+i6pmwkDwU++OADadVSCeYBfGsybwjwm+3WrZvMXHnjQPKmkDVsCBgCgsD/MYliDggEbuDAgRJ0w4Ic5cqVy1mPsHARrDBmzBh38cUXi58vvsb169eXad1OnTpJ23/729/cbbfd5iDlWNMuu+wyR248/GPxZR09erTDLxpf5lmzZsm0+k033eT4I3iPwLmGDRtKMBEVPv744+6pp54SAtShQwchwcccc4wjJ2XdunXd4MGDJf0NLiWTJ092WJuxUt98883y8CVgC4FAYYGAkJPbeOTIkTJgYMqawMEwHd966y2x4BHcpPLVV1+J2wPT3gh9xeLPIIAAOPI8Tp061S1cuNCdeOKJelpaW6bolyxZ4hjQVKtWTfpEjkt8grG2d+7cWaYT77jjDqkX0kvw4apVq1ybNm3c9u3bxe+U60ZgHcQ+2fmqHG3269dPrg/T9Vj7169fv0/gFn7A+LpyT/Cyg/TjOsDU/+233+5mz54tuJDe6f333xffcK4JRB5fdayhWNCT1cO1uuSSS9yXX34p91Ht2rWlLggwPrVcb/xu4yi4IOEucu6554r/dhx1NJ0MgVwgMGLECBn88/w3MQQMgfggUKzJLwnIscJCfLEAYnWDuIUF8mQTdgLcmM4i2I0APP4gYhDfP//5z9IUPl6QWEivCm4R+ETiB8nKeX//+9+FqM+cOdO1a9fOrVixwkGaIe+6j4AvrMkQVggOvs6Q50mTJgnZxbJKG5A86iQIj+TnZL5A8MUkqTyCBfWGG25wxx13nJSBEHbt2lX8pMlggDU7lY6Qc9wQEOrG/1kFsgsBVL9OMCAjhFputVyyLb6/FSpUEJKKNRU8wOuhhx4SjF988UUZLEAga9WqJdjge8xnptfxQX7vvffc5ZdfLknM6RP7n3zySdEt1fnoBqmHQDOgoG4E8nvppZfuRX7nzp0r+DEwUP9vBiP4B6P3ww8/LCScQBfIOoMLrJ9gxDHaQFLVwzkQd9yF6BtEmATtCH3jutPPOAiBn7feequowswEgzgGWQRGQvJNDIHSgAAuWrwLMC6QN9jEEDAE4oNAsXZ7wMJLkBmjayyLZJX405/+JNY+rHu5FIKuINoLFiyQB9xVV12VsJqqhZX2SYHmF6y1yDXXXJOwUJ922mmyD8KmVmtd2QUCoQKxQyBk6n+KVRJLMNY/LJMQTbCBkBFsh1VafS4JFoQ8QYDVR5Mt3wlSxFUCSaYjLgRhAqnjWkA0IYsI5B0yG1WoA5IIDuiNZRQfcsUSqycDCMUCzEhv5/fzxqKOtZWBAQMLrK7UG+X8++67T+r0+q2TtUMJrvaFclg0vfuxTvMdSz3CtWUw8s4774gVn4HB008/nSC+lIlSD+XoE9cXa7cK9Se7JlquqLZkduB3yR8EHRcY7icGbli3TQyBkogAz2mvaxWzPjVq1LDMDiXxYlufij0CxZr8+tHHOoalEReCRx55xH84q981nRmWXSylkBusd7zksSxGEciUimYwCNqnvsFaNmirU95MuWOJxfpIlgQINBZdHsIIU9AIWTO8oi4J/jRe6eqDqwXEFDLH9YAIYqVOJ/cy5AmLKH+4khx77LFeVSWjBy4nECkCCknbhfU/yHcZXfxWFzKCpDqfmQTSdOl1UQV0wMB3rsuyZcskq4ke1y0DEgYB+jLEDeTuu++WlHgEB+LOopJOPZzDtfOuXIOOUe4Rba+ot+DPPYm7De4gbE0MgZKEAIM83LIY8CH89hmMe2fFSlJ/rS+GQHFHoESRXy4GJAPRABv5kuX/yNdIxLxfKlasKOQbv8woZMRLYNQtQK25/rpTfcdaiuzZs0cII+QNi/jVV18tFkcIOqLkTduTnQX/qS5+vXU/5fzn6LneLQQUUooVHh/cI488UvxeGZBkS7AEQ5AJ9iJ9FkQ2LK2dWoe9bUc9X7Hynuv9DB7go9h7j3Gun4xjDcbyDD7cQyrp1uO9JtQR5bpoW/naYvnHQs1MBD7KJoZASUIA4wHPAWa81q5dK7EZp59+uqtZs2ZJ6qb1xRAoMQjEnvwSsJWOMKWPeC2W6ZwfpSxkgylsfGz9wtQ8lj2/tdFfLtvfNQUY1gdcMCAb+IcSIIdVAncGgqbUDxhfWq/ga4xkmiUDCzj+z7TTp08fCfbC3zObgxGyS/BiwZ8On29eOpAqhOAy3BuSSZTzCSDE79dPbL1EEyKLRd2PJW2DZ5UqVRKuKcwU4A4DDvi9Yo1Xq3A69STrV1Eeg9j7B0rJ2sc/HjwRBokmhkBJQoBnHAGvuNsR9zFjxoy93JpKUl+tL4ZASUAgp+RXpzd1GwSYHtOttww+rEzbQ6a8oqTTb1mDWFC2bNmyrlevXt5Tsv6ZdFME3Hl1gCiR2YCANBUl7960ZbpPt5TVPnn36WcldlonW6/vJKnP8InFzYGpeiwPrECnwrQ4LghsNSsFmSY0/Rp9wIJKxgYCuhBtW7fsUx2D9OE4AgbUpcQOKyXWbMhkKtH6dRtUnvoJbPSmPMPdBJ34W758ecISiu7+xUWink9QH+d7VydkAMGfN+0ZBB+iy2BIBb9qgvwGDBggu7DCkwqO4DkNNGRalO9KpqPUQ2Xo5L0m7AOvZNeEMn4hzRvY6HXyH+d7WBnOYXCD9V31p7xeN72v2IdAkukr5zEDoS42/zlq/xsCJQMBXL3I3sLMBs8ZgnRNDAFDIJ4I/CoXahHdTfQ509I8DLA+MhLGz1FzHUYpgwUVy97hhx8uapLCi7rws0SY0ld/UCxLvHRpo3///oF+mHJSFv7jhY9urEoGYSRwjel9lnWF3GjKLSyu+B5j6YMIQVogArgjsI+gNKyGWDEJjmLfkCFDZB9TxLoPSyUPVLYqEFyyNGBFg6CRQJ1+I7gATJw4UbINsEAEREt9zyDAEwrSTuF/SjAXbWMthzSjD9P1WG+T6YgepAGD0PgFokv7BJnVr19f+sJgBKIUJmS8GDVqlKTx4n7hHkFvBjLo6xXINGnF/vKXv4j1lLq5Htxv9J+MD82bN5f2SXVGfwiIYzBEFpAo52O54VqQnYCMDOBH4BxZNSBufCcQj0wf9JHAR6y63J9YfrDCM3Dj3iDVGuUZYGCRxjf7448/Fj2on6BE+pOqHtxZ8IEm7RskkhR7YEbKNtxseNlqHRoo6cVNP2Nxph+cA25cJ64Xgyd1EUlVBgwJvKNNFQZ8EH6EzCIMCLh29Ftxwx+SwEMTQ6AkIkC8B89+nq08vzUOoyT21fpkCBR3BPYreAEGr3Hq6RlWRiyd6jfqOVRiPjKFDnlQn+FkHQMyyCiBU1jcIIJYI/HpZKo7l0IgG4QFwgjRYzodFw+vJRTLJOQcnSBKv/3tbxPT717dIC9MRRNAlS03DSz4DFgggejGYECzV3jbzsZnMhzgMqD107Z+jlJ/1PO59yFykEOyaSB8hiB7hcVKIHsMijKRbNWTiQ52riGQSwRIA8gzgkF7HIUZHp6xQQP8ZPryvJ1QYFzA9YwBYq6EWRtmp0h3GVfBOAWGcRXcVDBYpIrtyJf+ZAvBwIWBKo7CDG/jRt+5cmW3xlE9N3/BHrd6baWEwdWvZE4sv/5GStp3fiwQX4QsBrgU8FcU4h2rQFiDfhgQXwTSm0yw4AWdn+ycVMeUfGKt96b/SnVeYY6r1V/P1bb1e6pt1PM17Rv1JZuyTyedWzLdslVPsjbsmCFgCGQfAWa+SrKRKPuIWY2GQH4Q2D8/zVqrhUEAdw9dKQiXAA1yK0xddo4hYAgYAoaAIWAIGAKlEQGz/Bajq850OFPqBFbg34yfs4khYAgYAoaAIWAIGAKGQHQEjPxGxyrvJQly4s/EEDAEDAFDwBAwBAwBQ6BwCJjbQ+Fws7MMAUPAEDAEDAFDwBAwBIohApGyPZCiKGhFs2LYX1PZEDAEDAFDwBAwBAwBQyBDBA455FcFmaT2y7CW3Jz+yy//dtWq1dxrTQRvS5HcHn73u9/JalolOYo1nVRnXgDtsyFgCBgChkB6CJTUVGfpoVD40pbqrPDY6ZmW6kyRKNy2uKQ6C+uduT2EIWP7DQFDwBAwBAwBQ8AQMARKHAJGfkvcJbUOGQKGgCFgCBgChoAhYAiEIRDJ7SHs5Cj7f/jhB1l9TJco9p/D9M3333/vTjrpJP+h2H5nOWCWqGXVLxa8YOEJVvaqU6eOq1mzZiz0Rqdcr1zDcs4LFixwrCjH8snexSBy1f78+fNlqWzaZBnkZAtpfPjhh47yQcKSviw/jEtPXATMxowZE0kdVsZigZVkEoRV0L5kdeTrGEujh62UB04smXz00UenxCBf+lu7hkAQAqSoZGl2FiBi2t3EEDAE8oNATiy//MBZ2nbKlClCMF5++eV9erd161Z3ww03uGuvvdb16dPH1ahRQ5aSZMnduAurfFWsWNHh83LnnXfKMsKQqFwuZ5kOJizZyJLHkFOvQBi2b9/u3ZXRZ9av37Fjh5s6darjeqqEta/HM9ny0jjooIMci3xAkJLJCSec4M444wxZGOSBBx6QomeffbY766yzHIOuHj16uHPOOcfNmTMnWTVJjy1fvjzp8XQPsrrbypUr5b4aN26cLNfMoILllH/66SdZLpR7bs2aNSmrDsIqaF/KioqoAPfQokWLXM+ePV3Tpk0DW2W5VJYgv+uuu2Q5cpaRZSlaE0Mg7gh8++23rlmzZm7Dhg2yjbu+pp8hUJIRyAn5hfwMGjTIffnll27Tpk1iGfWDyAvuiiuuECveiy++6O644w4ZEfNij7tgpUZ3CDvSqVMnd/nll8fGer179263a9cuIXheLB999FEhVt59mXyG8Ldt23afKsLa36dgIXaAPXhHESyHkChdepqB1qWXXirX6pZbbpHBAdb66667zs2aNStKlXuV4SXGgiPZEiz1WIM0sLRatWquZcuW8qJE95tvvlkiV8n1zOAylQRhFbQvVT1FdZzBCAMpyD/WXb989NFH7vHHH5fBysSJE93bb78tg7kWLVpEGgz467PvhkBRIYDh4corr5Rnz8MPP1wQIX9AUTVt7RgChkAAAjkhv5CJ8ePHu/bt2wc06RwrlUE2cHdQ4aV/xBFHuBdeeMHt2bNHdxeLba7dC9IFAUKKZbBVq1Z7nYobQLZl//33vYXC2s9W2+m+OMKuDxbk4cOHi7sGLhRYg9MRrJS5kCBMtR360rFjR5n2133JtkFYBe1LVkdRHWPpblIqMmsRJDwbtm3b5nbu3CmHcaW65pprHK5Vr776atApts8QyDsCrMTJ4BVXpd69e+ddH1PAEDAEnNuXuRQBKkyVI0xhquA/i/8mBGTt2rW6u0RteXFjvcI/2C9YS5nGZ2obwadVX/L+snxninjz5s1yCFeGN954I0GIqB9CgPuJCpYyLPFBQpsbN27cSy/dp9fKex5WOaye//rXv7y7E5+D2k+nf9S/bNkyt2rVKpdrNxiIYLt27WRA9tJLLyX6wAcwhOCy9Qv4k/86mSQ7P9l5QcewHE2aNEkOYRFWy2g2sYpaF/cxuHBNi1L4PfAb+fTTTxPNggWydOnSxD77YAjEBQGeX926dZPZJwbYJoaAIRAPBHIe8BbUTfwO586d68qXL584DGFasmSJO+ywwxy+miVJIAuM+CGjF110kRs5cqT4reKGcMghh7ixY8e6oUOHiiV89OjR4iuN//Bbb73lGjRoINZJxYPpbh6mHIesQJLLlCnjjjzySLG2M01+2223iS8ulrTLLrvMDRw4UNxLqIMHMGWrVKkiuZvxKyXHMVb4CRMmiDuHVx/dx7noj84zZsxwdevWFcLst1KSv9Pfvre+VP3DBYb6a9euLfcIJBvfanx3cyVVq1aVqufNmyezFT/++KPDLYI26V/nzp1d69atxTWHgl988YXg+PXXX8tAjelMBL9iyFiq86Vwmv8xaNLBy8knn+y6du3qsolVlLroF/75zCpcffXVcp9ybz/99NNyj73++utyjzCDM23aNLlHGzVqJC4aBx98sMzqZHId77//fnfjjTeKn7bCp9b3008/XXfZ1hCIDQIjRowQowTPYhNDwBCIDwJ5sfzS/TPPPHOv7AC8OPFT5aWeKoo9PvCl1gSCSmAfU+xYXyGuo0aNEgt3ly5dxLKJjyfBgciwYcPkOA/NJ554QoK1sIKqQF4hZM8884x79tlnJaMDbiKPPPKI+J/i//jKK69ocdnee++97sknn5TPTPNDTCC8CGQCP0uvePXx7r/99tvFWo+FdMiQIULaIdJeCWrfW1+q/uHzTX+4DyZPnizW5VxbTLQPWL8RiCBuOQ0bNnT9+vUTXCH96hcMgZs5c6Zk9rjgggsETzBVK2Sq8714Jfu8ePFiGTRBvhlQ+CWbWEWpC5/czz77zPFbxf8Yn3fcDWbPni2DN8gpLk0Eo2nwJ/cxg1wGFpkQX/pOhg7aVDcW7hPaJxiQ35iJIRAnBJih4DmL8YHBn4khYAjEB4G8kV8vBETBEvDWuHFj17dvX++hYv/5zTffdKRG4+WsL222fMdVQSPVNU0YPozlypWTfpNNASFoEGEK7YMPPhCrrewo+A9C8f7774v1V9N2kQIqHYFU+EXJi+4nqwFktEOHDgn9OBYUlR/UfpT+UR8WxcqVK/NRhOhoXiK5dH9QVxMs6AhWZ7JCQKoQghkZkEFGo0im52sbXH8IZ/fu3SWzgd4/ejybWKWqi9R+WOQZyOCihBAs2Lx5c6eWcyzgFQuyoHitXGTSgLiXLVtW1c7algEJVmhmL/T+ylrlVpEhkCYCDJ69rmAYCxis8QwzMQQMgXghkBe3By8ETKXfdNNN8iJleltfrN4yxfEzPppYyHBLQJiq9grp0pB33303kTWC795gH8VCyRkWX8iukmHKr169OmOLmp9UUa+KHtNgObVu6vF0t8n6R11YsCFZvXr1Ep9m/JohvrxU/C4W6bYdVl7xJAUaApkj3y7p1BYuXCiuOLjl8BdFMj1f28B9QKfzyXABLl7JJlap6tJBWqVKlRIq8Nmbl5h7hcERGTBwz+Genz59uuCYOClLHyDVuNM899xz4oKTpWqtGkOgUAhwH/LMYqAH6eW5wWAZA4eJIWAIxA+BvFp+cQlgSpsXPC9RyB7+lEUdSJOLy4KrAqRNySN99YoSOSW2ekz3891/DvuIGMYXmOk0ppmxfGEBS1cgD/62vXX429Z+6NZbNp3PyfoHuYTkMQuA+wQvFILRci28qBDSoCFgU69ePQmuYkDGvRlkHZfC//sfLjtM7SOFOf9/qwnd1KpVy+Emo5JNrKLUpQMxr2VLdfFuyfRBWdxyWAAFK7ie6y2XyWdmAnBHwf0G33PuVSXnmdRr5xoChUUAYwbPe9zL1hYEbD/11FPyXovLokeF7ZedZwiUVATySn4HDx4sqzhB5JQUkcczWZaD4nIhyGRBnll8QpHPP/98L9VXrFgh36tXr77X/lRfIGoEC5Lo/5JLLhGXiih1KL5KatFPLZma+kqPoYOSCd0HyUDIwZorwUUE31myKLD6GuJNP0YarGwLQWtYeJn21z6So5oBGfcl1ldeapBbBP9W3EwQMFV8CBhEfyTq+VI44n/4DJKjVyWbWEWpS7HR+1b1IOCN+1EFVxGmefFhZ9AQlu5Qy6e7hVgQdMfASC31zH6QBs3EEMgXAgQyk64Tw43O0pAL3sQQMATiiUBOyS8vRkS3XgiIEMdXjzRdTBMxXYRvI9Hb6mvpLR/Hz0rMlESiI58JKiOI7LjjjhN3jvr16zuyHGjqMcpgUYTgqbWRSHpEt3zW1diUeLEPEgS5wr8M1wqCsCAEXtE6vIMI0shhgYPsIeSehNghBCTh00p9KpqGjgAmhCluCCJBdmqZhxTyHdFyfA5qX/fplnL+/kFikF/96j/eONRPYBlCWSVeWodupUCS/7Qdr6WbPoAdK4Sde+65ErBFFbQJRqoD+yB3XAP+8H1WwotfsOLJYAGXlHTOp+4gUX2T9S8TrLRe3Uap69RTT5WcugRren/PJOz33mf0h5c/9wP71b0nqJ9h+0gRx2/Lb2WmTq4XzweeHzw3br31VnluqHtIWJ223xDINQK4+xA3QNo9ngNNmjTJdZNWvyFgCBQSgZz4/LLyElH95OTkYcAUEP6KRM/j5gBZg8BBIiYUpNfyilpKvfvi9hmrE1YtzcLAVC/p2ciJi9uGklzIL4STPt59991iBeMlTQAcQV24LeBGwCCAqHjSvLEPKzHlsIKzD6xIA4elnBRlfIeEQRAgIuBISjSmmiHd+G9y3oABA4SI4jrAdSB4igc0EfIapAS2EGoi9CHoEDz8NQnUwApLpgi9XlxHppupD8JI/0nVhuC3TTo3Fh7wtw/pjNI/0ovhW0zmAVK0YWWG3NBvUmZxHOy99YMV5YMELNBZlyBm8RWs8Vwf+siAAEzILKGWcbakLPvLX/4ibgYEaoEv93P//v0d7geQO4T0Z0y9kzEDEkxAYDrn+3XmhUkAGX7OXC8szASBMjihbq9wDQqDFT7Xfvy4dqnqom2uIfcJCfuxdEGa8QH3v+S5N8CWzCbpCG4dDMBI6Qbm3AO4m7BgDoSX+xn/bPXR9tbNb8LEEMgnAgRd4rLFs55gVZZONzEEDIF4IrBfwUtmb2fUAD0hQbyQifQuqcIUNxZa3AlyJZCbr776SgKBCpP6hhRmEL3XXnstEUCHdYzACrJHYD2HiCUTriNk1B+AxzmQQnyIOQaphYSQBozsE16/TVJMQYixBnIOhAVyAlFRF4pkOqQ6puSU+hkc8B1rOcS6KAWSBQ6afYOBhn5WPdALzMhdrQMBPRblfC1b2G02sYpaF/ccxLdiQWYH732hfeD+IGvJyy+/nPB512O2NQRAgHzgzL4QwxBHYSaH2S8G3ukIvw2MHcxQ+DPmpFNPqrIYPhi06sI3qcrn4zgzhTqDmI/2U7WJm8r//M//xPYZxcwWhpm4zmoxe9240XeuXNmtqaDOy/H5C/a41WsricE1SIGcWH6DGrJ9//ERzeRGxoKJ5dFLXCGb7MOSS8q4VJIsJRRERtOlUY/3s7deXAI0DRskXj97y2TyGT28WQX4HkSyMmkjyrnHHnvsXsX8xJeD5G8Oy18b5fy9GijEl2xiFbUu7jn/fYx1FrKPdZw8x6TAyzQ4shBw2CmGQF4R4LdRko1EeQXXGjcEsojA/lmsy6rKMQI8VFlkgGl5rL1Y6tjimoBFGfcLE0MgHwiQgYGZCWYEsPgaAcjHVbA2DQFDwBAwBKIgYOQ3CkoxKcPiEfgLY/nFukaAIGnPLr74Ykmz5c0GEBOVTY1SggAWX3x/yZyBn3U+LPWlBGrrpiFgCBgChkCGCJjbQ4YAFvXpuBnE1U+uqLGw9uKDAO40LONqYggYAoaAIWAIxB0Bs/zG/QqZfoaAIWAIGAKGgCFgCBgCWUMgUrYHVhAjG4KJIWAIGAKGgCFgCBgChoAhUKbMgQU58eNpQ92z55eCRAC1JBYl6EpFcnsgmh3yW5KDWIoi1VnQBbB9hoAhYAiUNgRKaqqzorqOluosc6Qt1VlmGBaXVGdhvYwnZQ/T1vYbAoaAIWAIGAKGgCFgCBgCGSBg5DcD8OxUQ8AQMAQMAUPAEDAEDIHihUAkt4dMuvTDDz8U+IT8KnR1ru3bt8vqcSeeeOI+K2Rl0m5RnDt//nyH6Z8+kobsiiuukAUPWN6ZZZzjICzg9+CDD7rvvvvOEZHft2/fvKo1fPhwxwpgQcLSwywJGra4RtA5ud7HEt3oFSSs2LdhwwZJ6+Vf0CKovO0zBAwBQyDuCJCze8yYMe7xxx+Xd3fc9I27fnHDy/QJRiAnll9dJnXKlCnuwgsvlKT3/ua3bt3q2rdv73r16uWefvppV6NGDdezZ0+3Y8cOf9FYfp8+fbosPchywyT3Z6GJefPmybKW//jHP2KjM6tsVa9eXXQjJ7AKy3Bedtll7vLLL3cRVrjW0zLeQm5ZXpmFOlim+cwzz3Rnn322q1y5slu6dKmrV6+eDBy4h1SKWlfuzUWLFsn9yEplQUI+W5YwJadtt27dZJW9GTNmBBW1fYaAIWAIFAsEJk6c6Dp27Oi6dOkSS+Ibd/2KxUU2JQWBnFh+WS/7jTfecL/97W9lydMgcnXXXXfJ2u7czAjO5/wdeuih7pFHHpF9cf7vnnvuca1bt3a///3vRc0TTjjBPfbYY27dunWxUxsCBzFbsWJFQjeuyY8//uj23z8n459EO/4PDIZYupgMIpDeRo0aJYqwSAJ6YU1nwQ61Uhe1rj169HCnnHKKW7lyZeDAYNWqVUKMIe8sLY00a9bM3Xjjje799993zGKYGAKGgCFQnBDA0sviSazQyEJKcZO46xc3vEyf5AjkhPlcd911bvz48WLZDWsekjhnzhwhx5SpUqWKFGVKI+4CaVyzZo24Onh1hUjGNSOGn+TiivLuu++6BQsWOKzDRSnJ2mvQoIGowr2hUtS6Pv/88+IqAgEOElwdIOTMbKhw//7888/u888/1122NQQMAUOgWCDwl7/8xU2aNMm9+uqrsSS+cdevWFxkU3IvBHJCfvdqIeTLsGHDhDyor6SSBqbF4y5HHHGEK1++vHvmmWfc6tWr91L3/PPPl6l8706I0rJlyxwWQ/xE/bJ7926HbynuAMiWLVscU+9e4fjOnTu9u+Qz50LGIF7Ixo0bA62VctDzHzrhYrJt27bEXnTj++bNm2Uf7ga0Gyb47jKIUb1xW3jzzTfDikfa/8EHH0i58847L1E+SFc9iL81Lgpsg4SUQJ988on76KOPRM9k/Qk6P2gfy0mPGjUqYZmmDPcvpB5rtokhYAgYAsUFgXfeeUdm4iC/FSpUiJ3acdcvdoCZQpEQyInbQ5SWTzvtNMcfAnGDDB933HHutttui3J6XstAcnDRICgAIoTvZ506dVz9+vVlur5Tp04J/ZhGwuWgdu3abu7cuUJUmdYndzIyduxYN3ToUPf999+70aNHy4DgN7/5jZs1a5a78sor3U033SR/BIERSNewYUNH0BjCNBA+pxDWDh06SN0EtX322Weubt26bvDgwe6AAw6Qsv7/Lr30UiHkDDbQDx/bSy65xH355ZfiC4y+TOFDgCG1kydPlmA0rYd2If/0H+sxbh/UhW74QKs7gJaPsoWgTpgwwZ177rmue/fuiVP8unIA6/stt9wiOGLV7ty5s7ih3HHHHYnzcL9B71atWkn5m2++2UGqn3jiiUSZwn7g+qvwcMaKTttcOxNDwBAwBIoDArw7iLUZNGhQwoUvTnrHXb84YWW6pIdA3sgvakJ6b731ViFZWCGnTZtWbMgDAW7ffPONED2Cn/iDhEF8vavhERAHEe3atav8XXTRRRLQNXPmTLlSuElgLcTflQHA3//+d1euXDnH8Xbt2omfLgnhvfsghgSK9e7dWwhny5YthTwzcofsYo0lmI1MGtQZJLNnz3bXX3+9+/bbb+XwgQce6MhegcvKe++9J0T4ueeek2O4IlAPZBehHA9L+gzhh9S3aNFCriW+r6effrqUS/UfAYJcfwSLNeQefJ599ll32GGHJU7368oBBhUMECC0EG3wwOeWz+o6Afbjxo1zF1xwgdSFr/FLL72UqDfTD0wR4rOOfmT30L5kWq+dbwgYAoZAUSDAO+TII4+Ud0FRtJduG3HXL93+WPn4IJA3twcgOOigg9yIESOEPDVv3lwIl9fXMz4w7asJZBGrLVZPyC7W30MOOUT2eS2LV199tWQy0Bogh/g1e90fsNYi11xzjZBcPqtVnGwMEF8E8oZAFFWOOuoo+QjxUysvwWJYgrF6rl+/XovusyU9m1+wXOJmgCVVBV02bdqkX2WwwpeqVavKPjI1IFiKzzrrLLmusiPFf2R2IEiQP4g2WTLAAgsyAyGv+HXFMs2gQfsPTgRLLl68OHEa/bj//vsdWS527dol1nklxolCGXzgmkPCcfXAT7ht27ZiQc+gSjvVEDAEDIGcIICbmvc5jvGA5yzB2/ruyEnDESuNu34Ru2HFigkCeSW/ihFWvj59+ohPKyQOohJ30XRmuCNgvcXCiAUU8gYhUiFzBWncSOnWpk0b9/rrrwvxxZ3AL94AK8g1ErRPfWz953u/q+800/HpCpG+3gA5dPG2qRku9EGqfs/qypFue1r+4IMPlgcxU11kXGAbJhBv3E54eEM6mbpjJkF9nzmPhzouIGTlYOBA+h6uRbaFVHIQYUgwgzkTQ8AQMATihADPb1zU+NN4ElzXmCFk9i7fEnf98o2PtZ99BPJCfgncYoqYdGgqONpDUJiqJ0ApzoKrAAtH+KVixYoy/Y/fLD9miBhuEPiC4haAdRNXhjDxEk6slkhhR+RqWQ5bUCJMB/Z79eC76sJnpHHjxo5ARQg9pP/uu++WzB7sz1S4D7A0MwDC1zhMmCHAckwAGz7UEOFf//rXexXnoU4wHIQUCzy+uQxUMhVSnNF3L9HGEo3gymFiCBgChkCcEMCwQJA2xPe+++6TZyvPQwwDcZC46xcHjEyH7CKQF/KLzyi+kmH5fMuUKZPdXma5NsggDw6Iul+Ynuchw48ZSyCWSab1yW+LkH1AJYhA67FMt5oyTi3AmdbnPZ/8t7gPkH6GQDeIJ33MhuBH/dVXX0lVDCbCBJ9jfItxOSH7BmRfZwzwwV24cKFYYyHT+DFj5WDwwcDKu4BGWP3J9tNXXEqCXHTifu8m65cdMwQMgZKLAIHVpI3k2UWwMG6H2XQDyxS5uOuXaf/s/HghkFPyq9PWutWuq68owUoqX3/9teOPfKkEL8VdSAfGQh1e6x8EbOrUqY4ANETdAXjgIBzXQDeIsy46QeYCRLd8VmLt3aefleRRTsXrI0vqM/IsexfhoD49X89hnz99GmWCynnbxLeZ9iD3ZKnAzxaXD69rhLYRtNW++Uko55OhApcQLLTexSK8uoIj94riShu0j478LV++XKzVa9eudazEp4L7Btke1KVE94dtSZ/GYMXvolKzZk136qmniuVZz6V9hMwSJoaAIWAIxA0B3NVYjRLjzZIlS+T5FafBetz1i9v1NH0yQ+A/rCyzOvY5m6h9sgMwJc2PC6sb6bRI00VUPCnNsBY+/PDDklrr+OOPdyNHjhTiS7qvwk7176NIjnbw8MC6i95YdAlUI2KW6XD6pum2cHH48MMPHVkH8K3CYoq7BwSPlc0YfeM2wLQ8fs8EZ5EvFosmaczYN2TIENmHK4Duw+qJSwBbFYgeGSWwlrJCD5kc+vfvL4Qb3FmUAxJHOrMJBenE8K3WfaRUI3MDrgHoSDl8w8hli464cUA4cSMgyK9s2bIShPfkk0+KhRsCTL5h9IV0k5osTBgYfPHFF3KYzAsMACCjDCLIUgHhxbKq7iG069UfXTmP5ZGxPOPHiz5cE+45+kzGBwL+cINghoFsGViosQbjB5xKqBNd6Df1cu2oi74RYDdgwAAh36ShAydwRKeBAweKtTlV/XbcEDAEDIF8IHD77bfLs4p3sxpp8qFHWJtx1y9Mb9tf/BDYr+Dl/h/n0iS6Y+XD0pkNf0lvM1jzyO3KVDeEr1q1ankjvkyfQ+5YpCKVABnkEws2lkZG0VgiGbnqSnXeOrBwEiCHtZAcwXyH7B1++OHeYoX6TEAX5IwUaZA+2iFIzmsVLVTFSU4iHRmp2fr165e4XlhJIaTk+NUFS5JUkbVDBN1hidaMGMwy6OfvvvtOBilcGwg9y21nc2BFP/ljgId7iT8jRdY6aRUZAiUMAQakDJgZpMdRcI/imYqhIo7CjBSDb9JbpissJMRzkgw5uRSMKWCYrhSVfuRqJxd8shVH09U9m+UZCGDQipo6NJttR6mLWJvGjb5z5cruvSBXlHOLosz8BXvc6rWVxOAa1F5OLL9BDQXtw1cTwlnchB+Lum6QXoupdO+KZP7+YNnUNGUc43vUqXd/Xf7v3rELfsa5/qHgJgGZ5MHmJZJYRrEk8DDGfQFdikJ0hUBtS4kv37HOI5DeXAiDHf5MDAFDwBAoLggke1fFoQ9x1y8OGJkOmSOwf+ZVWA35QoAlk8kvi+C2oEFuudQH1wYyHeC+gnsF1lX+GOHj0oGbRFER31z20+o2BAwBQ8AQMAQMgZKJQF4tvyUT0qLr1ZYtW8TvmNQ1uFLgPlIUAsnFD5ecxaSrw/rNksT4xHot3EWhi7VhCBgChoAhYAgYAoZAOggY+U0HrZiV1aTl+VALtw91/chH+9amIWAIGAKGgCFgCBgChUHA3B4Kg5qdYwgYAoaAIWAIGAKGgCFQLBGIlO2BxShIQG1iCBgChoAhYAgYAoaAIWAI/PrXBxUE7x8QSyD27PmlYM2ImhKbFKRgJLeHypUry0pa2U51FqRQvvalk+osXzpau4aAIWAIlAQELNVZZlcxk1RnmbUc/ezCpjqL3kJmJS3VWWb4FZdUZ2G9NLeHMGRsvyFgCBgChoAhYAgYAoZAiUPAyG+Ju6TWIUPAEDAEDAFDwBAwBAyBMAQiuT2EnRxlPyt/sdpYqtXMSNW1aNEiV6dOnSjV5rUMei5evDilDiz80KpVq5TlohRgMYsHH3xQcuoec8wxrm/fvlFOi3WZ4cOHuz179gTqyNLRrJr2u9/9LvB4PnayJCh6pRJW/6McSyGbGAKGgCGgCPCeY1l2Ft5h2j2OQr74MWPGuMcffzynK4UWtu9x16+w/bLzihaBnFh++YGzzO6UKVPchRdeGOpw7O0qQXXkqy0OcuSRRzpWpxsxYoS78847HaQIQsof+7///nsHseNYtoRV5apXr+7mzZvn3nrrrWxVK/Ww9C9LJLPcpXfFuKw2ElAZ5JbV4FgW+bXXXitwTj/TnX322Q4fcwhkvXr1ZDEN7ieVotZ169atMijr2bOna9q0qaoRuiX38rXXXutYdtrEEDAEDAFF4Ntvv3XNmjVzGzZskK3uj9N24sSJrmPHjq5Lly6xJL5x1y9O19J0SY5ATiy/rJfN4geMbjdt2pSSUEF0HnvsMVkoIbm68TjKQg78zZo1S4g969P7F3dgTW4Wfvjxxx9d2bJls6I45GvGjBluxYoVWalPK4Hwouf+++dkLKTN7LNlYARujz76qJDeRo0aJco0adJE7huc6k866aSEpbuode3Ro4c75ZRT3MqVK1PexyjPyncQZhNDwBAwBBSBdevWuRYtWrjWrVu73r176+5YbbH0vvjii/JOO/nkk2OlG8rEXb/YAWYKJUUgJ2znuuuuk9W+2rdvn7RxDjLtPWjQIFetWrWUZeNWAGtsmJQrV04sgDz0sim5IKi4pbz77rtuwYIFLlmfstkPrStZew0aNJBic+bM0eJijShKXVk+GncTCHAqmT59uqy0l6qcHTcEDIHSgwArbzIbhJEkrsQXV4xJkya5V1991cWR+MZdv9JzN5ecnuaE/KYDD64D+MX+5je/See02JYdMGCA++qrr0Q//Je3b9+etq6//PKL++KLL9yaNWtSnosldNu2bY4pNRXdhzuGV0iP88knn7iPPvpI3A30OOV37Ngh9XjL8xldPv/8c/f111/7D8kx2t68ebMcwyVB69yncCF2fPDBB3LWeeedlzg7ma74l+OPzTZIwvofVDbdfeCAn9xtt92W7qlW3hAwBEooAjw/u3Xr5niGMSsUR3nnnXdk9g3yW6FChdipGHf9YgeYKRQJgbyS3y+//FICx7AUlwTBf5UfKg88pHnz5u788893t99+u6tVq5b7/e9/L9P7u3fvdjNnzpRgLvxceTDu3LlTzmE/vr34Nv3973935EpkX5DgC4tf7Omnny5TapRh30UXXSR1t2nTJnEarigdOnQQUv3xxx+7+vXrJxYuufTSS6V8u3btEuX5MG3aNPHZZosFlP7gdoFo2wSk9erVyw0bNkwsG3ymT1ECAqWikP8g6BMmTBDXke7duydKBemKywZ+ak899ZT4Q7PsM3mbvZKs/95yhf08cOBAd9ddd7mDDjqosFXYeYaAIVDCEMC4w+wfrl1xFAbtxDMw+8r7KW4Sd/3ihpfpEx2BnPj8Rmkegnj33XeLH0+U8nEuc+ONN7pDDjnEQeaxLvrl4YcfdqtWrZIghzPOOEPKQnjBgGNXXHGFnAJhxFXkiSeeEN8wdo4bN05IKsFofjnwwAOFbHMOAYYI++bPn+8YUOBvrULwHXVdcMEFsgtf25deekk+z549W4ir13o8d+5ch98ywXX6UCSI68orr3QkqEd/bee9995zl1xyiXvuueekPtwVIMPPPPOMNp9ySyDfrbfeKuU2btzo3n77bSHxzz77rDvssMMS5wfpip8a/tc333yzDDIg31wTBhzqOpGs/4nKC/mBtsnsQXsMLEwMAUPAECArAYPwkSNHuoMPPjiWgOCGQQA3LhlxlLjrF0fMTKdoCOTN8jtq1CghfSeccEI0TWNcClKJRRTyetpppwVqyn7KYRkmEwSpyp5++ukE8eWkhx56SEiUNz3aDTfckCDCgRUX7IR4+eXoo4/eaxfuAvfff7+Q2V27dklKOSWGFPSXJ/MGAXtKfCmDXzbfCTxQwV2Fujt37qy7BAMv8U4cSPIBCzZBj/xBoiHzZM8gIwSWZ6/4da1du7ZY1DW1GAOFQw89dC/rc6r+e+tP5zNuLdnO7JFO+1bWEDAE4oEAg3Zcv1SY8atRo0ZsMjsQX+N9LjNo59l6zz33uAMOOEDVzts27vrlDRhrOCcI5IX8rl27VlJ2QexKkhDk5s9T3L9//0QXcYHA2n3vvfe68uXLu4YNGyaO8QF/XAKrvEFtPEBJO5NMwoLGvPt5wGG5JdoYqy918mAOEtw3li1bJtk6/MfJvLBw4cK9HvIESHh1xvpMHZkIlhJ0ZtqLjAtsw6Rq1arib8uDvG3btjKN9/PPPzv+VNLpv54TZcu15BpBtk0MAUOgdCLAgB13NQbvCM9IjCE8d+IgPI9xB+NPs9HgJkaKS1zg8i1x1y/f+Fj72UcgL+SX9FUEULVs2VJ8VUkBQ6ASgVV8Hj9+fPZ7WkQ14sag1l+Cv/ykDcspLhIQNa+bAeqRdcFrOchEZSydXuEBB8b4oOFHjAX6D3/4g7dI4jPnQmbVdzlxoOADhNpLKjnmJb5897fNvsIIwRdgiaWadHhhQjYILMfgzb1F4JnfGp5O/8Pa8e/nJYIvNC4e3Lf86eIjvPT4rr7c/nPtuyFgCJQcBE488UR5Xj755JMO4w7EkliMmjVrxqKTGBMwuPDMYlaP5ynvAIwhcZC46xcHjEyH7CKQF59frGV+YoUVFOvZ5MmTYzEFU1iYvdNH+Mbi46vCVD7+vGQxgIBifZ06dWqiv3Xr1hX3CYLJsJ6qQJTJe+utW4+xZb+fcGJFhkwjYH3VVVeJNQJfYP5IF4YO/rYoDznHKsxgxC/kGK5SpUqoLv7ymXwnRZBmzqhYsWJoVQRr8KLRIDf6C2FG8BHmviLSGmtMlP6HNuQ7gJsFvtxeef311+W63nHHHQ7CHVdfP6/O9tkQMAQyQ4AgY1ZsI46iU6dObvny5e6WW27JrNIsnz106FBHwDDvWPyRCc71ur5lubm0q4u7fml3yE6INQI5tfyq1VO3igTEDlLg/cNCBmFhn5I2LR/XrQa3+S2h6MsiH1gBdHlerK7kehw8eLA77rjjxP8XMsZ3Ja5kNeAzvsAqrAaEf7QSX3xMyW7gFawO69evT+xiQQaC77777rvEPqwR5KFV4RoQtKYkm3q9Vso+ffrIYhpYB1TefPNNyRZBOjcVdPHrQ11KPrVc2JayCCTcK0yDgQ2WcCzU9FHFqytEl1kE7z1DsB7t88dLCExT9V/rDtuSPo3r7bfMe+9hPqu7B/3hu4khYAiUDgSwqJYpU0asqjyXMFjESZh1JO0az8MlS5bIbBn6xkXirl9ccDI9soPAr7JTzd61EKnPVDDT0Py4mAIiIAzrrj/X4YSCdFak9VIXAHyQyDKAhS6ugn8XU+v4xSL4mWrgHoQLMqa5ZiG/pByD6EKS33//fQniIisA7gJkMyCjAkv8Yikk1+KQIUPk4UQULnVhLeZhCn7k/oWAkV2Bc/HBJdsD1uGbbrpJ/HkhfOD3wgsvSKoy3EhwAwBnrNHoij5MzfvrJZsD1gt0GTt2rLRNmjDSs2EtwGrAymwEJ5ClAqKNPviSQdKxdkC8qVfr8K9+p9cVtxfyGSO0iVUZMg5OpAeC8OJDpynYwnQFO5KgY0lnNT0e7tx/+FuTgYEUb2H9V13CttSJLvSJerk/qQtMNcCOc8GHQMXVq1dLdgqyS4wePVr65XcLCWvL9hsChkDxRYAAXWZ8iOvAXYtg3bgJ8Qk8a3k38/yNm8Rdv7jhZfoUHoH9Cl7oezuHBtQFsWIhgzAf0YBTit0upswhawSlxUEYDED2eKBGFc6BhEGIt2zZIpZcCPQRRxwhVmB8viDTkFWWnlZrcqr6qQtCevzxx6cqmtfjRDLjskHgIcKMg37GCl7Y/ue1U9a4IVACEWAQzrMqrim2cBsjzzqzT+kIz1YMOriZ5XLhJmahMHZgLElXcLvj2RiUPjPdupKVx60ODNOVotIPNxUMO97A8HR1zWV5BgIYAnHpi6MQX9O40XeuXNmtcVTPzV+wx61eW2kfg6sqmxPLr1Zu28Ij4E/nFaUm7zn+lXogfgikN13x15Xu+UVV/thjj92rKSW+7Myk/3tVal8MAUPAEAhBAINC3I1EuLvFWeKuX5yxM92iI5BTn9/oalhJQ8AQMAQMAUPAEDAEDAFDIPcIGPnNPcbWgiFgCBgChoAhYAgYAoZATBAw8huTC2FqGAKGgCFgCBgChoAhYAjkHgEjv7nH2FowBAwBQ8AQMAQMAUPAEIgJApGyPbBq2UMPPRQTlU0NQ8AQMAQMAUPAEDAEDIF8IlD+qEPcQQcfkE8VQtv+6ad/uTPPrCWp/YIKRcr2QPJpUoHFPYo1qINR98Ut1VlUva2cIWAIGALFDYGSmuqsqK5DJqnOikrHwqY6Kyr9LNVZZkgXl1RnYb00t4cwZGy/IWAIGAKGgCFgCBgChkCJQ8DIbxYvqX+J3ixWbVUZAoaAIWAIGAKGgCFgCGQBgUhuD5m0wzK/v/rVr9zhhx++VzUQxR07diRW4OIgq4ixPDDLxxZHufTSS2Vpy0aNGhWp+izSp6vUvPHGG+6dd95xW7dulaU2C7OoRa6VX7RokegY1A4rtLEk9AUXXOAOPfTQoCJFvo+lQINWt2PVOFbQ8y5f/M033+R0Zaci77w1aAgUIwR4r7DUOc89prXjJnHXD7xYxn7MmDHu8ccfl3d33DCMu35xw6u46bNnzy9u9JhlBSvVlnFXXnFKztTPieWXH/g//vEPN2XKFHfhhRe6l19+eZ8OLFiwQJbtq127trvxxhtdixYtXNWqVd3ixYv3KVscdnz00UduxYoV7rnnnkuq7rp169z27dsDyyQ7HTyyuQAAQABJREFUFnhCwU6WZzzllFPca6+9JkVYU/6nn35y+NQx8MiWFEa3sLZZ9vOMM85wf/3rX90DDzzgDjroIHf22WfLX5kyZdw999zj6tSp4+bPn5+ogmVDL7vsMlmSM8KK3InzCvuBwQMkvWfPnq5p06aB1bRv396deuqprnnz5nIPX3zxxSXaLz4QBNtpCMQEAZZ3b9asmduwYYNsY6JWQo2464eiEydOdB07dnRdunSJJfGNu36Ji20fCoXAli27XJt2b7iNm3a4Jo0rFqqOqCflhPxCyAYNGuS+/PJLt2nTJhdEViAzyOrVq93rr78uhHD06NGufv36sr+4/adrmM+aNSuU3NKnRx991K1cuTKwe8mOBZ5QsHP37t1iLScAAoH8tmvXTj5n87/C6BbW/sknnyyEkoEP0rJlS4fVnD8I5UsvveSwoPIQVgLPPfTjjz8mvofVna39PXr0cFOnTpVrFXT/0g6zFMxWvPvuu47BXL169VIOfrKln9VjCBgC/4cAg/Mrr7xSBsdkJ2KZ4ThJ3PUDKyy9Tz31lBirqlWrFif4RJe46xc7wIqZQhv++f9c6wLie0n9E929g88v+A3vl9Me5IT8XnfddW78+PFCZJJpf9dddwn5/frrr92MGTOEPCQrH9djv/zyi5s9e7ZY/bC6qhU2SN8PP/wwaLfsS3Ys7KS2bdu6NWvWuFatWiWK5OLBXxjdEgqFfFBXDf/h8uXLixUY4qszAbjOKMkMO89fTybfn3/+effggw+KVT2sHlx5eKkxmPniiy/cfffd57BcmxgChkDRIcBA+dprr3XXX3+96927d9E1HLGluOtHN3AVmTRpknv11Vcdxom4Sdz1ixtexU2fbwssvjd0mOlatTzd9eheNAOvnJDfdIA/4ogjZNo7nXPiVhZSVrNmTQfpR7BcBglTNljDgyTZMSyMTOUhkGum5FWwPEIScTUJk40bNwZa36mLY9Shovvwx1ZJppuWWb9+vXvvvffEj1v3FXZL259//rncF9WrV5dqsL6yf9u2bftUS/9xUVArsb8AVvFPPvnE4ZpC//DhzZYw0ChXrly2qrN6DAFDIA0EMDx069bNnXfeee6Pf/xjGmcWTdG46wcKxIgwswf5rVChQtEAk0Yrcdcvja5Y0QAEfvnl3653n3dcjRq/cV07VwkokZtdeSW/BAzh33nDDTc4rMBYz4qjQHYJrjjnnHPEB3Tu3Ll7EVT6NHDgQDdixAjpHg9ppujuuOMO+Z7sGFM9VapUcZDAZ599Vlwa8JeFkOLXS3AYU1Tz5s2Turz/jRs3Tny3yMeHT/XgwYOduptwDB9rzn3zzTfltLFjxyb2zZkzR/Yl040CWD6bNGkieaAhv7itTJgwQc4tzH8Qcdrcs2ePu//++xPEEpcI+up16cANAtcIpureeusth88t+Zq9ggtOhw4d5N76+OOPRb+hQ4d6i2T0GZedm266yXXu3FlmO8JcJDJqxE42BAyBQAR4pvIMgrzFUeKuH8YE4hpwUySff9wk7vrFDa/iqM/oscvchvX/zw25t06Rqp/zbA9hvSFCftq0ae7pp5925557rgRuETgEkYzjjzCsH1hcIX26Ah6JvR977DH3yiuvCDHT8+699153xRVXCOkdPnx4wSinhh5yyY4xjQdJbdOmjZs8ebLg07hxY/H1xT8WQkggWJiMHDlS/N8IsiMLBYQR/QgyBHdIpQqLmBB4BplVSaYbfcftonLlygliT7+wgBN4ctRRR2k1SbcMfJgBgPhiwcUNBiLuDTTDrYRpTYJGVF588UWHj/XNN9/satWqVbCay5nSLz43aNBAit15550Ook/2CKRSpUqhlnkpkMZ/6Is1eciQIZJtA/2WL1/u8Dk0MQQMgdwiQNQ/g12ecQcffHBuGytE7XHXjy7xfiFjDc+uOErc9YsjZsVJp6XLvnPDnljsHnvkooLfcNH66efN8lu3bl3x8z3/fBybD5CgJ9JcqTW0uFxALKQXXXRRIsDimmuuEdWxOGZLyI6AQFQPO+wwsfISjYscffTRsg36j0Ay9f+FXGIBxWKMiwISlFJO2wqqz79v+vTpkuECq7IK1lfaUsux7k+2xcILIcdKsnDhQgm4+NOf/iSEn4A+FX9fCZiDrCvJvvzyyyU9mvoJcx6WWOrHMoz7CFkklBhrvYXdQtDvvvtumSrET5nBCFZvgt9MDAFDILsI4KKlM1fUfPvtt4sRgYF2HCTu+jGbRgC6CoYDDFDMvup7Qo/lYxt3/fKBSUlrc/PmnQW/4X8nujVw0MKC2ecKOc/skGjQ8yFv5JegJT/RIm2U+mV6dIz1RyzVED3cGPjr06ePWCEgcTwMsymaHaGwdWIlRvBRRpIFjiU7JicX/PfZZ5/JxxdeeMH17dtX/vr16+dOOOEEt3nzZi2W9hb/PQg1D+dHHnkk9Hws4uSj5AGOBZrpO6yx/KnwYEfP1q1bi9WXQYPX6q7lCrM99thj9zqN+xfxpmjbq4B9MQQMgUIhQApJXL8YJCM8Xxnk8vuOg8RdP2IdMEzwpzEjuIsxa4irWr4l7vrlG5+S0P7U/1nlLqr/N/fU0//hDYsWbXafLdni7ux3bl66lxfyix8Pfqt+Ky/WM34ERMcWB8EquWTJEnkQQ8D0DyKIxVHTn4X1BdJMf4Mk6JhaOIPKR9mnhJYRdphE8VlV3TSzAdZP3D70D5/n7t27hzURaT8zAsgHH3wQWh49SC9GABt+zRBhvzWbBzuuFFiVcUkheAL3jkyF6VZcKNSKTn3cv4gGJ8oX+88QMAQyRuDEE090BI89+eSTbu3ateLnf/rpp0ugccaVZ6GCuOuHWwjPJ4gvWWmWLl0qz0KMAnGQuOsXB4yKuw7HH1+m4Df8bzdy1JKCdSC2uzHjlrtKp/66YPY2P0GWeSG/O3fulFy4/shSSAyEigdJcRACxZhqV1KpOhP8xj5/1gddCUwJJuRYrZTJjmm9mW7xR0UIzEN0qkv1YR9ZERDvvjDdcF1BsNZ7hcHN22+/7d2V9mf8qBEW8AgTgjR4AUJEcbXg5YhrA4KPMNahq666StwS8EPG0oGFhj4my44R1p53P1Z9sjwoNhxT0osPtIkhYAhkDwFcy3iuYnDo1KmTuMwRQxEXibt+4ESgLykjiR255ZZbJJtOtlzAsnEd4q5fNvpYmuuoc/6xsmLbTz/9y/X84xz39ux17vKG+Uurl1PyCwlCdKsXnqViSQ0GMVH56quvhERhMfSTSS0Tpy2BY+SBxfrnl5NOOklIGdNyy5YtSxwmkO/AAw+UgC52YuGGtCHJjtEWogtZyJf//U+PMaDwCz65KpQjWwQjfQ0oxBLAEsJES6uotXrLli26K1Q3AssaNmzoRo0alSCdnESQnNc3L1GR74OudKcDAD2MtZfV38qWLet69eqlu2XApP2E6BIYx8NcBYsz5Jc/iD4EHiuRFwfwx62CbRQhfRq4+/tD8CAvPO+yxwTgMaDz5lyO0oaVMQQMgdQIaB5trJb8/r2BuanPzn2JuOvHc5+0cDwXmbFk1kxn73KPTuoW4q5f6h5YiVQI3NX/XFfm8APd5yu2ihW4QYP8kd//Yw6ptE7jOFa/YcOGyXQ0Py4sbixiAVHSXIzsI0UUJPi4446TiHwCsuKYpNzfdcgeo1TcB/BxhSgykkYgkgQ+MR3OIgj4rmKdJPsDWLByGA9Jkonjs6oSdgycmNIn0I2sBjwgGLkjWDHxieXYgAEDJJODpgLDKoubBCm4sJ5ipSZLRP/+/bVJ8U0m0wIr60EYWZIaf1jcNyCwEEesq2G6YTkmkwLuKwTX4ZPHghtkVuBahwnBgPRLBwa4I6j/LAMCrLKcj66//e1v5UXHd+qGhOJbjVWdpZFJfo4fL0SZhzr3HedBzLmfcIPQtHD4ImMNjuInSJ1cS/IyUy++cdTF4i3gSiYKFv7g+mI9IY0aFnAGGP4ZjTAcbL8hYAhER+CYY46RZw1uVqxkqTNY0WvIbcm460fvCRLk2cksK8/suEnc9YsbXsVNn6OPPtT1+lN1N+SBD92pp/zaVauaH5cHcNuv4MX+f6F3IUhChghgyoavpL8JSAMkgwdZPleWYeoc/1D1NfXrmc3vYImvb1B/kx0rjA5YfInwJRjLayX11gXZhFiiDxk3IHykv2Fa32shTaYbpJSlqitWrLjXOd52cvWZ/qG3LjbBTIN+Jpc0Fm6sxOgImVZ3j2zoQ1tYnAne5B5GDxNDwBBIjgA5ynFhSDfFFr/hCRMmyKyhP2A6eYvpHcU1ilkwcqOnI0WlH7NRGI9YmCJdYWaN5xYue7kUjBo6k5hOO0WlH240GGLiOtPMQKBr165iPEsHv6Iqi1GucaPvXLmyW9NqkmwPU577osAY91t3dIVD0zo3ncLzF+xxq9dWShhc/efmxPLrbyTZdyyN2Yq+T9ZOnI5hIQiTZMfCzkm2H4sof8kEgquZICjn/ew9L5luEEos3PkQtRpr20p8+a5BaJDeXAhtkZ/axBAwBHKPAM+ZXBhhsqV53PWjn7h9xVnirl+csSsOuh1wwH6u/fX5j4vJqc9vcbgQpqMhYAgYAoaAIWAIGAKGQOlBwMhv6bnW1lNDwBAwBAwBQ8AQMARKPQJGfkv9LWAAGAKGgCFgCBgChoAhUHoQMPJbeq619dQQMAQMAUPAEDAEDIFSj0CkbA8PP/ywrN5V6tEyAAwBQ8AQMAQMAUPAEDAECrIcHVqQ4SjveRMCr8Tu3f9ylSvXclOnTg08HklrcsuSCizOUbaBvUtjZ1GmOktDLStqCBgChkCJQ6Cwqc6KCojCpjorKv0ySXVWVDoWNtVZUelnqc4yQ7qwqc4yazX62ZrqLOwMc3sIQ8b2GwKGgCFgCBgChoAhYAiUOASM/Ja4S2odMgQMAUPAEDAEDAFDwBAIQyCS20PYyVH2//DDD7KyGEv9hgmr4rC07oknnljkq4OF6ZRs/3vvvSfL2bI4BKvDsEjezz//7OrUqSPLNSc7N+jYG2+84d555x23detWWb6zsAsyoMeDDz7oWNWMBSn69u0b1Fxi3/Dhw2WJ5sQOz4fjjz9eViwLWvCCdvKxKg5LcqJXMqHv3E+5XP0pWft2zBAwBAyBMARYTZMl2XnGM+0eR/n000/dmDFj3OOPPx66Kmgc9TadDIF0EMiJ5ZcfOGR2ypQp7sILL3Qvv/xyoE4Qxn79+jl8g5555hnZQgTjLpB0lvHF5+XOO++UpXMhiYUlXKxTz3LH+MExWCisQEirV6/u5s2b5956662U1bAcL+0+8MAD7rXXXnNnnnmmO/vsswucxCu7pUuXunr16snSgFxPFZaDPOWUU6S87svllgHBokWLXM+ePV3Tpk1Dm3r//ffdZZdd5u677z43dOhQ16ZNG1k+NfQEO2AIGAKGQBEi8O2337pmzZq5DRs2yLYIm47c1MSJE13Hjh1dly5djPhGRs0KFkcEcmL5hSBBYhndbtq0SSyjfnD27NnjrrnmGnf00UfL+tpYUevXr+8ee+yxgjWfG/uLx+r7SSed5Phj3XJIfqdOnRwEtrDCue3atZMBQGHr0PMgiDNmzHArVqzQXaFbBiaVKlVyjz76qJDeRo0aJco2adJErhsEn76qFXn37t1u165djoCLopAePXoI2V65cmXgfYQO3GvdunWT+6hmzZru9ddfdzfccIObP3++a9CgQVGoaW0YAoaAIRCKwLp161yLFi1c69atXe/evUPL5fMAlt4XX3xRjFUnn3xyPlWxtg2BnCOQE8vvdddd58aPH+/at28f2gFGmEyvYKmD+CJYLS+++OLQc+J6IBsuAKwJny3Zf//olzWZ7koc58yZk1Ctbdu2bs2aNa5Vq1aJfbn88Pzzz4srB9bmIMFy3b9/f3mpQHwRXD5q1KghxD7oHNtnCBgChkBRIfDNN9+4a6+91l1//fWxJb64YkyaNMm9+uqrzohvUd0Z1k4+EciJ5TdKh9TaiAuByrBhw/RjidviJ7t8+XJ38MEHu1NPPdWlIqgbN250xx57bKhvLaRv2bJlrkyZMi7ILzcbAH7wwQdSzXnnnZeoDlcVXDMYsOighYNR+oeVfP369eIygl8uFuVM5YUXXpA6vS4REF+s3yaGgCFgCOQTgV9++UVmpXiG/vGPf8ynKqFtE2/C+3j69OmuQoUKoeXsgCFQkhDIC/ndvHmz469u3boOwguJw/KJNfHSSy8tSfhKX5hKgozVrl3bzZ07V3y+cCc444wz9unruHHj3I4dO9wJJ5zglixZ4qpWreoGDBgg+GjhUaNGubFjx7oOHTo4fF3BcvLkya58+fJaJOPtRx995CZMmODOPfdc1717d6kPn+TbbrtN9MMii48tkqp/9IdZgPPPP1+IP4SVxNMLFy6UIEeppJD/MXuAbNu2zfXq1Ut0O+644yRw8LDDDitkrXaaIWAIGAKZIzBixAiHywPPyzgKz03iKQYNGuTI529iCJQWBKLPj2cRkVWrVkltEMKzzjrLjR492t1+++2ua9euMu2SxaZiURVBcfg40z9IKlbPZFaAkSNHusGDBwv5nDlzpmCjHYE08qCCmOIPy5aBA/5amQhBcrfeeqv8ESyGJZUAOAgvbgQIPmuvvPLKPs2k6h9kFwsIfsPU8cQTT7gqVaqE+vDu00CSHXovvfTSS7IKIfcSZBvfOrYmhoAhYAjkAwEG5iyeNHDgQJnxy4cOqdrE//jII48Ul4xUZe24IVCSEMgL+WW0iWCha9iwoXwm8Ap/X/w3S5qQzYIMCipE/PJghBD6pWXLlgkr7xFHHCHWXfyjcRdAmJ6ClOooHZ/dq666ys2aNctfVVrfyexAsCF/zz33nATyQXrJCDFt2rREXQQo+iVV/+gnVt4nn3xS/IU5H2tyNqbY9F76/9k7F3ir5vT/fxG66abcGZVMLqWhUDSKrmrKL0IlyuSSLkou5Za7QSJMDJWE3H4x7ikqVCLlkm4uaYYm0eU3NRj+Mf/zfsyzrbNae++1z95r73X2eZ7X65y191rf9V3P97P2Xvvzfb7PpXv37m6nnXYS1ZhkkI4O4m5iCBgChkA+EMBVDcOGCgYdXLB43sdBMMAQgK7CbwbP9muvvTbxm6PHbGsIFDsCBSG/mqsVNwCvkD6MJfyPP/7Yu7tcvmapC/cEZMyYMfIQZFkeqyrZCCCE3gdlskGqP+/8+fPdd99957B0kssWK6r+zZs3Tx5e+OPmSvBN5qEIucTCrCQzqP9048OdhRRqBDfi+9a0aVO3adMmV6VKlaDuMtqnnyWvXzKfI4RsDyaGgCFgCESNAAYDArYxHiBM9t977z15hkZ97TD9EyOCcYk/0kci48ePF9c1siyZGAIVDYGC+PxqkFudOnUC8WYGraQvsEE52IkfMwQXQkoaLmrFU1SC9GL4644cOTLUKDQbA7N2AswqV64svrO33nprqPOzaYRlljRsTEbI+4vufgkzPtpgYVi4cKFYZHGdwCrC50AzSvj7DfteP0tef2cNJuRzZGIIGAKGQNQI8Bziec/qFqt3EMtGjRqVqehRFLpizOAZybMcI8Qf//hHKayEm5iJIVARESiI5RdSRaQ/KbO8smXLFnlb3okvgyAHMFbJmTNnCvHDIqDk0Zsjl4psqYQMEQjuB5BfAtAWL168zSkUEgljSd7mxBQ7SNHz2WefSQu1pvqbhxkfQXxPPfWUa9WqlRsxYoSbPXu2a926tdNsEv4+M3nPsiLi/SxpoRB+fEwMAUPAEIgaAZ5nVGwjDzp534ln6dKlS9SXzah/iv9UqlRJ4k6GDh0qbmLZGh8yUsAaGwIxQiBS8qtL5brVcWPNHDx4sCwNKeGlcAKZECiugC9weRAlsV53A15j4SUwjXGsWrVKhsJDB8E6QBAbwtj9xShIN6OyefNmN2XKFAneUh9fyCNlfr1V8yB+WJM1VzD9cm4YUfy9Vdw4j2Uygu4g1FgJ1MKq/eKCgYQZH2Mmu4WScyyz6Eq2j7ACoQVv7UPPI4BOJxm6j6IX9N+vpFKRiSFgCBgC+UAAiyqpJ1kl45nHb1mchN8QViFJS0kmIeI80NfEEKiICETi9jBr1ixJYQZJ48vFEhAzYYLbNMsBqa+wYFI0AZ9QyCIBVgR0xV3w76L2Oa4NCGMgNRnZBVauXOmUSEJ+qdzGcj8ZEUgNRqUysipALKmoxgxcBTKIK8iAAQOkqhlWVardeYMAsZ6S4YGMCRBllrIgoCQp54ELxpBhSGLbtm2FPCfLp8vyHPoiZEuAiGNdhsDjswzhxWLNGBDGjX8vKcRIvwYRDjM+gixq1qyZ8C9bvny5q1Gjhjx8peMU/yiziS4s1/HQBkP6oogKWKEvxPr8888Xws7yHkuP6I2fsYkhYAgYAvlAgN8v3NmuvPJKcRdjtS5ugrsZz3p+m3n+mxgCFRWBSMgvuXrT5euFtJAD8cMPPxQCRvouyIr6a8b5hhC0xl9YwXoLIabIAwUusHwz64ZkVqtWTbohCAxXCQRSCWG87LLLAuurs1TFH7XiIbyaioxzX3vtNTahBFeETCTZuNOND8s/hJ8lQTBgUlCrVq1Qlw7jk0b+YKrQEWQCHmxzkUkilILWyBAwBAyB/yKA4YJVPjLwaLxGnMDh94ZnKs/kDh06xEk108UQyCsCkZDfTEYA6eOv2AWyTzo3Fd7zFyRYRflLJ0Fpx9KdE9XxVONTosuDV903cq0H18BKbmIIGAKGQKEQwN0KN7E4izczTpz1NN0MgSgRiNTnN0rFrW9DwBAwBAwBQ8AQMAQMAUMgUwSM/GaKmLU3BAwBQ8AQMAQMAUPAECi3CBj5Lbe3zhQ3BAwBQ8AQMAQMAUPAEMgUASO/mSJm7Q0BQ8AQMAQMAUPAEDAEyi0C25Wkj/pPOu1vu+02l4+KYun0sOOGgCFgCBgChoAhYAgYAoVHYM89q7mqVQqeNyEQiO+/3+oaHdjc/e///m/g8VBaE6H/pz/9KfZRrIEjDLmT8VHjnLRZJoaAIWAIGALRIcAPEqkPzzjjjOgukkXPlKMn9ST52OMoFPwht/kjjzwSR/VEp5NOOimRvjOOSlKR7+mnn45lSjrwIifzueeeK2Wy44gf+fU7ddzgatXYGEf13Nx5W92q1b9m2PIraW4PfkTsvSFgCBgChoAhYAgYAoZA0SJg5Ldob60NzBAwBAwBQ8AQMAQMAUPAj0Aotwf/SZm8/+c//ykVb7SSmZ5L/XPK0+611166q9xuqVL33HPPSbnm77//3jVp0sSxpIILBUtTd999t9tpp51iPb53333Xvffee2l1pLQw5ahVcBmnqhwlrdetWydLmSeeeKL0RUni3XbbTSr5Va5cWU/JyxbMt27dGngtPnOUHj3wwAO3Oc54ClGZiXKj/u8CJaqpXEdJZxNDwBAo/whQ6ZNS9L/5zW/kNyKOI/rggw/chAkT3B133BFYYbTQOpt+hb4DxXH9SCy/Wsp36tSp7thjj3XPPvvsNmjxAGjVqpX42Xbs2FGqc1Ghi79hw4Zt0z6OOyBXBAN269ZNCBMPjJdfflkI77hx49xpp50mPkX4tsVdateu7XbZZRchqpdffrnUfqdsMn/s37Rpk5B4jnmFEszXXnut69+/v5s4caK05/5RPvO8886Tew8xzoUsW7YsdDeQ2x9++MHddNNN7qWXXnIHH3ywlM9u3LixY+JFeekhQ4ZI2WntFP+v+vXrS3vdF+V248aNjknHoEGDHBMGv1AK+vTTT3ctWrSQctb6/dAt55oYAoZA+UCAcvT8VqxZs0a2cdT64Ycfdv369XPnnHNOLImv6RfHT0351CkSyy8kYvr06TK7/eqrr1xQQgmsghArrGyQZZUlS5YIadL3cd5ed9117t5773UQ3d69eydUbdCggYP4U9+9vAill/l79dVXhbASiOItx8w4cL6HiG3evFnKL0NwH3roIflr1KiRDPWoo45yPKCwDh9//PFu0qRJrm3btlnDwA/G9ddf7x577LFQfTHpQv/bb79dSC8TLJXOnTvLZxKH/X333dddeumlcohJCpZ7gknyIRdccIGQ7U8++STpdwRLe9WqVd3PP//sfvzxR1Hryy+/FCtxRSgLno/7YNcwBKJG4IsvvnCnnHKKTGaHDx8e9eXK1D+W3ieffFKe//vtt1+Z+ojyJNMvSnQrXt+RkF8snvx99tlnssTjhxUyjBsEy+VemTZtmiyf4zIQd8HqBnnq2rVrKeKrem+//fbuxhtvdO3bt9dd5WKbasm/Vq1a7uSTT3Y8yA855BCHZRJS5nUf2H///WWcuH5UqlQpZxOAslg5U42lXbt2cv9wK1DyywSGCGXIZj7k8ccfl8tgIcdlxC9MEFkh8RJ3CDCTqrvuuiv2rjT+8dh7Q6AiIvD111/Lc7Nv376y2hRHDHjOkDnilVdecXXr1o2diqZf7G5JuVcoEreHdKhg6R0wYECpZhCq8ePHS0q1Ugdi+gZdIX480JJJs2bNxLrtPQ7xX7p0qfv000/lfO8xXrNUv3bt2oSVz7vv22+/LdUc8jl//nxxUQA/v2AhfOutt5z/PH+7dO+vuuoqmcjQrmXLlm7Lli2lTgkimUH7GNvixYsdpC5IwHPlypXu888/L3UY94CxY8eW2pftm3feeUe6OPLIIxNdQSzxUfeuRHAw3T2jTbp7QZtM5be//a3g7T0P6zdWdY6ZGAKGQLwR4JnG5JbnDG5WcZQ333xTVsggv3EkvqZfHD815V+ngpBfgr/wffIKfqL8sONfWh4Ep3sEgptKCLxSSyJLSpD+efPmudGjR4tbAGRPBRcBLKYsZ8+cOVN240er+7BSIpDZHj16OCyHBErdcsstQpIguwhEmKV9chdDfslfPHnyZDmW6T8IKw8fHuJI9+7dJZAPV48LL7xQ9vXq1Uss4FjB1YqKhZj3WP+R+++/X/xsFyxYIBZx/FY3bNggx/g3Y8YMwRKXCfJrYoFlH/jg9/q3v/1NiD598keQYVll0aJFggcuHAMHDpRuyDuKBRvs33jjjUTX6e5ZunuR6KgMLzp06CDuJXoq2DFx+uMf/6i7bGsIGAIxRuCee+6R5zHuV3EUXNeIOeD3iHz+cRPTL253pHj0icTtIVN4sMJhbSMArjwIlk8sfVg3cQVIJV5/V4LFjjnmGPGdxX+2devWYg2A5CFnn322+NTiK6sC0TnssMOEzOq+J554QsioEk18ySCJWCjBkeV7Art48CKHH364uKEw4SDDRhhBFzI0YKUN8oGF+DI2MhFAbNX/9O233xZyCtlWP2DcWXi4EvjGAxbCCYHFh+uGG26QzBBY0CHUEF2EiQCkHtcY8IFMM2kK6/PrHSNk9qKLLpJdWNXRA+ynTJmSmJiAIeTXn1kh3T1LdS+8OuTi9ZgxY1xc/QVzMT7rwxAoJgQwkGCAuO+++9zOO+8cy6HxPCHYOa7FRky/WH5sikKpglh+/chBgs4880z/7ti+hxTi06tkM6yiWDMhpSqQUR6QalVlPwFOfiFdmFdojxUQv091EYBQsmT14osvuhUrVkhwhZ5z3HHHiUVdLce6P9UW8on/F+nPDjjggFRN0x7D6kG2BbUsMGnAb5XgOoTS2f4UanwelAinvUCaBmR2wG2CP8gzExeCLckI8cILLyTOrlevXuK1vkh3z1LdC+0jF1vuAxZ9SLuJIWAIxA8BJtakJ1ShQheGB/8qpx7P95bsRASgq/D85flHtp4ddthBdxdsa/oVDPoKeeGCW35ZxuVLSEqq8iI77rijIxp29erVDlcDf1YE7zgeffRRIXE8XLDcQShx8SDAiT/IEw9MyDQS5Cur/ekxfD6feuopcRPBVWTPPfcUy2aVKlUS7gBYJL0BhXvvvbdcj/ZedwP6vvnmmx3nBgmWbfx8vTJq1Cg5x7sv2evvvvtO/JvJYauWatryQwEm+NlSSpQUY4oBx/nhiEqwwvDAx9WBjAtkhkhmwU93z1Ldi1zqf+edd8oPaS77tL4MAUMgNwgwqea5fvHFF8uzC+MEE1ayHsVBcF9jRXH9+vXiCscKIHErrHThFldoMf0KfQcq3vULbvmlOAQSR0f7VB8HfG6RdDlsWfJXkkcu3JEjR4pVlodlnz59Ul0icQwLs1cgjMzYyZ9MfyxbQRaZRFSvXl2aXnnllWJRxarK3+uvvy7uBviocr73z0s6vdfR1+QyVusvPsb4YYUVJgpYyin4obqwxbcX32dcGcgK4bWYpOubdGRev9x07YOO83ljTPRF3t8gAaN09yzVvQjqsyz7uEZco7DLMh47xxAoNgT22WcfMWSwGodRBGKJ29cRRxwRi6Ey4d91110dwcMYQHjmEcuRq9W1bAdp+mWLoJ2fKQIFJ7/kOIUclpdANwUYNwNcGHDZIJVNkGDV3mOPPeQQAWwQVpbesTQiXl9arK8IWCBewotl1LsPlwQsv/hIjxgxws2ePVuWw/GdxqcYIajLKxBWiDo+aDyYvX/p/NHQSa3OWEszyTQA+SWwjCwPfoG8Q3rRmcA4f5YF8FJSrG4m9EHBDQ0I9PcZ9j33TIPxND2b/9ww9yzVvfD3V9b36AkOyazTZe3XzjMEDIHcIIA7Eik6yRXOhJnJapcuXXLTeY56IYYCQwOrkUOHDhXDAykf4yKmX1zuRMXQI1LyqxZC3QZBCvktb8SXcUBEyASAVZNUNv4x4g4BMSVNGLJq1SrZ8vBBcHfQQDcC6PDTRZid44LgTV1G9gOEJSuEc8kx7CWGEFRIZPPmzSW3MEFoWDVVKMih7XVf0FYJOdZGv7CEh2VD8/pS7ALRrfe19sM+cMBi7K30h68ymSzQm4kEZJ+CISoUtWAMOhkg6I+MDwiTgTAEXFOy+Uk1S2zXXHON4EFAIVYbRMeBqwYS5p6luhfSSYh/pFcDr2T3h7R4SI0aNUL0Zk0MAUOgEAhgUWXlDasqzwUy7sRJiLngt4pnLcWkiIXQlcI46Gn6xeEuVBwdIvH5xcKIjyKEhy8XVkZmwhR88Oc6xIqnqcDKG+z42uLWgIsBy1uk/KJmOxkSKMVLmjPaILg4LFy40JE9AD8rSD8ZCCBhFDFgJo5ghb3iiivcAw88IOSV4CyCJrCCQmBZUgMvAsTUX2v58uVCjHiYYaHFGok7RM+ePSV9GEQTK3Gqghu4YVCeGWs1QsYI/IQRSDTEE5KGQH65p5BTdBk8eLBksIBsYlVgHyndSAMHweXak0uyP5DNgYA8CD7EksTlCMSWHJNkfuChjBsH16O9CstzzzzzjGTE4BjXSSWMXdPIcR6TC6zQkHomFhBerPDqesL48e9FdyYsEOEw94wAkmT3IpV+HKOEKLrweeEHiftJXw8++GCprBwsVSLoZmIIGALxRIAgWp67/B7gUkVAbdwE9zieh/w284yMm5h+cbsjxavPdiU/uqUdSgPGCvEiOCuK/KIQN5a0w1jyAlTL2S7cAXD8xze1LAKJgWBBAEn7RRCcugp4+8MKCaGlBDLHeQ8ho+KdV9gPaSWwTlOOQQqxOOO3i7WcJTb6gmAHLYljSYRksqwP8YuDUN8eqwg/FEGS6jg4gQkTDDDJl6S6Z1j8w9yLbHTl+kwoCViJy33MZjx2riGA+xTPr7im2GJ1iRU3jBOZCM9cJvpks/Fn6cmkn3RtWSk6//zzxWiQrq3/OO5xPLfIIx6lkClHVy0zuU6+9MNN5emnnw78nU6lb770YyJASlRNGZpKp0IcY/W5U8cNrlaNX4wzhdAh1TXnztvqVq1uuI3BVc+JxPKrnYfZavqrMG3j3Gbfffd1/KUTyIs3OwTvgwgN+9S9gD69r5XoQphT4YfLQNy+OEHpxLyYpTpOcFwhJkmp7lnYe+EdY6avub63xHGm51t7Q8AQyA8CPHOjMBLlUntvVctc9purvky/XCFp/aRCIFKf31QXtmOGgCFgCBgChoAhYAgYAoZAvhEw8ptvxO16hoAhYAgYAoaAIWAIGAIFQ8DIb8GgtwsbAoaAIWAIGAKGgCFgCOQbASO/+UbcrmcIGAKGgCFgCBgChoAhUDAEQmV7IPk0aaBMDAFDwBAwBAwBQ8AQMAQMgX333cVVq1rwvAmBN+Jf3/6/kpSDzaUgWFCDUFofcsghUhks7lGsQQMMuy/bVGdhr2PtDAFDwBCo6AgUa6qzfN3XbFKd5UvHsqY6y5d+ZU11li/9LNVZdkhrqrNkvZjbQzJkbL8hYAgYAoaAIWAIGAKGQNEhUBTklyIAJoaAIZAeAfuupMfIWhgChoAhYAgUNwKh3B6ygYCSuJUqVdqmghn1z+vUqeP22muvbLqXc6l8RUnJQhUC+PDDD91zzz3nFi9eLKWAmzRp4lhSoVocVXgoc0yBhlzLd9995x5//HE3c+ZM6ZqS0skqp+X62sn6e+mll9y8efPchg0b3LXXXltKH4oJBlW9S9ZXtvvfffdd9+abbwZ2Q4U4CodQerlKlSrbtMm3rihQEb4r2wBtOwyBCoQAk0/KulOlkt+IOMoHH3wgpe7vuOMO+e2Om46mX9zuSPnUJxLLL19wyu5OnTrVHXvsse7ZZ5/dBh0eABAPSgpDWjt16pT4GzZs2Dbtk+1YtGiRlBV+7LHHkjWJbP/WrVvdbbfd5rp16yakbsKECe7ll18Wwjtu3Dh32mmnSflEynhGISNGjHBPPvmkY/vqq69KzfYorpNJn9S0p/zytGnT3MaNv5Y9pIxk/fr1HeQ4X0J5USrCPfXUU+6mm26SCchhhx3m+KtevbqQ85YtW7q5c+eWUimfulaU70opgO2NIVABEaB0O78Va9askW0cIXj44Yddv3793DnnnBNL4mv6xfFTUz51isTyC3mYPn26zG6/+uorhxXNLx9//LFYBbEEepdilyxZ4s477zx/86TvtXY45G/Lli1ul112Sdo21weuu+46d++99zqIbu/evRPdN2jQQIg/9d2jEjB7/vnn3RVXXOGaN2/uHnroIZlMRHW9sP1iTQWLRx99tNQpTAC+//57R6BGvmS//fZz/GEZ/+STT1zPnj0dhFjlxBNPdFjpedgziapZs6YcyqeuFeW7opjb1hCoiAh88cUX7pRTTnGnn366Gz58eCwhwNKLMQVjFc/NuInpF7c7Ur71icTyi8XzwQcfdH379g1EBzJcrVo19/bbb7vZs2e7WbNmyd+gQYPcqaeeGno56Oeff5bzyULxww8/5NWqyJL6X/7yF9e1a9dSxFcHvP3227sbb7xR3+Z8+3//938yZsgbApGrVatWzq9Tlg4Zu18gxJ9//rncX/+xqN8nc7XYddddxQqMu8F7772XUCOfulaE70oCWHthCFRABL7++mt38sknuzPOOCO2xJeV2EceeUQMKnEkvqZfBfziRDzkbVlKxBeke6yWAwYMKHUlZsbjx4+XlGqlDqR4M3/+fHfEEUeIewHNnnnmmRStc3sIXSHfyQg+V2vWrFkpn1fVAOKKpfHHH3/UXYktVsd//OMfQmzZie8svr3JJIjYpeqfScLatWtLXVv34a6gkqkeTGhYzvvpp5+0i1JbxgrJ9Fr5M70GbhTr1q2TfrHys7rA56aswniXL18u7hDcK5UgXTnGGJcuXeo+/fRTuffa3rvF3YfPJfcwG920z2L4ruhYbGsIVDQE+I1gJfPII490Q4YMieXwiYu4/fbbhfzWrVs3djqafrG7JUWhUEHIL8Ff+D55BT/f66+/PiO3BcguQQO/+93vHK4Gr7/+eik/U2//uX6N0z3iJU1B1yDYrWrVqnIIUtq/f383ePBgh+UYSzd/kEBk4sSJrmnTpmKNxHcYK/jo0aOF4HsfnMzQsSIgF110kVifIVzp+p80aZIs83MNDZLjmliP2TdnzhzpM6weNIackSOZoENcQM4991yxiEtH//1HTk/cIbjGG2+8IXszuQaEsnPnzmI1Ifdhly5dZPKEy8vFF1/svVTo1xDcq6++2uG3jYVereZButIpy4FM2Ajm454w3pUrVyauB5Hu0aOHBCBCfCkMgz/xl19+mWhTlhfF8F0py7jtHEOgGBC45557ZBIMuYyj8JvBbxDPtIMOOih2Kpp+sbslRaNQQcivH7133nlHSBQBcGEF0vXWW2+51q1byykk1IbIkHUhasHqCCHD6qqkKdk127ZtK4EDWA3PPPNMsTLitI814P777xcfWIILsBDgvkGQIELmBo7z8MSnmKwOWB0RiC8EGMHv+IUXXhCila7/s88+WwLR5MT//vNeU/d796XSg/aQUUgoE5EbbrhBCHzt2rW1K9ni6+a/L5lcA+KPKwV+zVOmTBHcuddUHWTCFFbwj2aywOTj97//vWANxvj8qgTpyrHLL79cPl+Qe/yZsXB7JyRPPPGE3MNLL71UfPu4Z4ceemigv7teqyzb8vZdKcsY7RxDoBgQwECCYYBJ9s477xzLIeF/zPNajSlxU9L0i9sdKR59YkF+cWSHuGUiWCkhvjvssIOchtUNIYAoaiFNFmQMQutdxk91XSytkHXGqa4KbHnP8v37778vp2uqMsajxJoMCgjBg8kkbP8a1OXtxxsEpvvD6LFs2TIhgmeddVZCV87H/9gv9erV8+9KuISkGiuTAggfRFKFDA74i5OxAYtyWMHCO3bsWJlQLFiwQAI7LrzwQterV6+E9Z2+gnRlctW4cePEpVi54McN/RC29HnXXXeJbzP7Bg4c6HK9jFjevivgYGIIVAQEcCfzun1hGDj88MO3WeUsFBYYDLy/IQSJYzghJaX+jhZKN65r+hUS/Yp37YKTX6yZfAnx3c1EsDRCgAk44490X8yuISA8hKKUHXfcMRENm25ZW62E+Pgi/mCCffbZR/bjtuAV0oKpcD0E39xkErZ/Jd5B/QQdS6XHwoULpRvcGbKRVNdgkgHZ9T60V61aJfuyuSbn4oeHpZfPH1bkVMJxfshwz4Es45YC4dUfO1xUSKGGJZp+wWTTpk2BOYRTXSfVsfL4XUk1HjtmCBQLAqTaxAWOyTXC7xBBtBDLOAi/Hccdd5z8aQpK4lZOOOEE16ZNm4KraPoV/BZUOAUKTn51OTwTCxk+sqRE4wHDzFX/WHLGGqvpz6K8m2ppJlNFKiHfLbNqJZbo5xXNjOAntrqftv5zvOfr60z71/PYpuo/lR56Td16+8zkdapr0A9Lcq+99posIWK9JWtErnzoKESCYF1OJvgH46s9cuRIIcv80PXp06dUc9rwOSRNEO1YSsTyA7HOlZTX70quxm/9GAJxRQAjBpNhVn5Wr14twduNGjXK2KgT1fgwDJHdBuLLBJ0iUwSSkXotDmL6xeEuVCwdCk5+yb8KOUyWn3fz5s3b3BGW+Dt06JAglNqA4DeIWD6yPrCkzTI4y9CksgkSLHV77LGHHFJ/ZrILeGXFihXyNl3gnPecoNdh+9flLS/hVZcL776ga/j3HXPMMbKLexilMMkhmBGiig817iPZ4qX60hfitT7rMd3yeYPYYtWhaAvizVd88803O4IJKabBfWAVghR+uOWkItXaf9htef2uhB2ftTMEyisCfNf5/cEww0T5lVdekcDcOI2HIFyqrbIaOXToUIk/adeuXWxUNP1icysqhCKRkl8iNRHdBiHKD3oy4suXtGHDhkIq9FzIMGSD/X7Zd999HbNtlps0OMzfJlfv8cclAwD+vwSv+ceIOwQk6KqrrpJLEvnP8tIDDzyQ8BPGWkiuYAgV2QMQJfu6ZR8BdghFIlT0uB4L2z+zf8r5etNwqaV8/fr12n0oPbgH+MIShKYZK7B+8B4J6s+btk3HoFvO0fF4x4pVgGhk3FnQG2sq1pWwon2Ct1cgphDWGjVqiDuDHlN9VFfcLBB+OBDGOGPGDHlN30xg2Me9VDcIrNlMNHSCII1T/NPPj26DmpbX70rQWGyfIVBsCGBRJQ4BqyrPAzLUxEnI5sBvFUYOVk4J+kXfuIjpF5c7UTH0+OXXPMdjxRWALAGkfOLLhW8RM+H27duXipDnsvhFaiowvxoQNYgxBTEQIvOZHeIYf9lllwm5YgaLQIrIuQvppD2+nBBhXSqWRjn+t+eee0r2hCuvvFKWt/AFpWY71esIBiPNGW0Q/HYnT57saIue6IbVEesxS/lYrLEekt0BPNiHlZh2WJfZBwHkoeXdh08ZZJMUXen6Rw+IJFkPIOEQTLJW4MuKZZPMEZBKJhFh9Ljmmmvk3nIvcANo0aKFTDqYECDnn3++pCfjfuAzyxiYDEAucfMIew2C3Rg7mGJxhSDyAMdqQQYI0oEFCcGPfPZ0IgRRV0s81nqCFflMjho1Su4bfeDS4NeVseHfTMYHfOQgoWSNYPyU5uYziE8ywYTqQ8e9g1TzA5NKKsp3JRUGdswQKAYECBLG5YlnPEHKpOCMm+CKxcoov81UvIybmH5xuyPFq892JSSitBNqwFghRhQXID1VrgWSgJWMoKZCCilpsMyqD2imukC+sQBiCSTYCatoMl9YrAKfffaZBL9BRnMtYfqH+OE7SwAeZBXCjp8qFm0NsMtELyYkEGfyLdM3eNSpU0cIobpaZNKftmXyAul86aWXEsGCWFex7pMpgzy/pHDLhzAuJguMkXvLe6zJkHsIORM1LOC0YdKj2TpypVtcviu5Go/1U3ERYLLOdyWuKbZwBWNFjAluJsKzCSMEpe2Dsuhk0leqthgBMC5oystUbf3HWPHieYXrYJSCsUFXFTO5Tr70w00FA0my3+lkOudLPyYCpNbE2BVHYaWzU8cNrlaNjXFUz82dt9WtWt1wG4OrKhuJ5Vc7D7ONY2LtMHr722At5S+MQPaj/ECH6R+C600T5n0dZgz+NrgEaEo2CL2+9rfL9D3W3ubNmyeIL+dDptlHcY5vvvkm0y7L3B7MvO42vNeJghJdiHBUn+mo+i0zIHaiIWAIlEKAZ1MURqJSF8nyDdlo4iymX5zvTvHotn3xDMVGUowI8EPy4YcfuptuukmsvVhbsfriooH1vHfv3sU4bBuTIWAIGAKGgCFgCESEgJHfiIC1bnODAAUn8I3GPYMAQ7JskPaMnJWUSg5rbc+NNtaLIWAIGAKGgCFgCJR3BAru9lDeATT9o0cAN4q4+gZGP3q7giFgCBgChoAhYAjkEgGz/OYSTevLEDAEDAFDwBAwBAwBQyDWCITK9kAZYaqnEUhVrEKGBKI+M438LFY8bFyGgCFgCESFAM9bJK6/KSRB4i+u+oEdmSWyyaRDH1GK6ZcduuDH5y+unEQ4k/uP2y6mtJBHzODBQyQrVNCdCOX2wEOAtFgmhoAhYAgYAoaAIWAIGAKGQNwRIAVrMokpZ0+mru03BAwBQ8AQMAQMAUPAEDAEyo5AKMsv5m2SLdevX7/sV4r5mRSoICk5hRlMDAFDwBAwBKJDgEqc/K6QxSWOQhEIqqAdfPDBcVRPqpwuXrzYxTkn7vz5812rVq1iiR9KxV0/UnxSUClOJai9N3PVqlXu6KN2cHvv9UtFV++xOLxesXKz++nn5BQ3+RGP9pTB5SbEPXm3R+WMX1LhjVK0Za3wlvEF7QRDwBAwBCooAuWlwtuAAQNieYeo8DZ37lwXV/0AjcqwcdbvxRdfFE4TV59aKrx16dIl0oJY2Xy4qfB22GHxrfD21VdUePtn0iGa20NSaOyAIWAIGAKGgCFgCBgChkCxIWDkN4d3lOpjJoaAIWAIGAKGgCFgCBgC8UUglNtDNur/85//dJUqVXLVqlUL7ObHH38U36rf/OY3sU3pEah4wM7jjz/eXXnlla5jx47bHCVjxs033+w2bNjgdt99d0kdt02jGOwgvQouIBs3bnR77bWXGzFiRGRagUm2S07vvvuue/PNNwN1rFy5sjvwwAPF76xKlSrbtMnF9bfpNM2OivR9SAOFHTYEDAFDIGMEPvjgAzdhwgR3xx13CLfIuAM7IdYIbN36s3tgwtKS6q3VXdcu0cWZRWL5xQL697//3U2dOtUde+yx7tlnn90GbEjW1Vdf7f7whz+4u+66y5144onuiiuucJDh8iiLFi1yBM099thjgepD8po1ayYleSnPm08B6xNOOMF16NBBcld6r71s2TLvW8kb2aJFCzd79mz5K3Uwh2+efvppCaB86aWXsuqVIMXf/va37qmnnnI33XST22mnnUr8kA6TPwIFrr32WteyZUvxj/NeKFfX9/aZ7HVF/D4kw8L2GwKGgCFQVgQefvhh169fP3fOOecY8S0riDE+b/36712vPtPd2q++dZ077R+pppFYfiEW06dPd1hzv/rqq20IFyP685//7OrWreteeeUVGSBWuGHDhol1dPTo0ZEOOorO//rXv0q3r776qtuyZYvbZZddtrkMBJ/xQpLzKWC7efPmbRK2r1mzxl1//fXbEHZIMuNhAhOV/Pvf/3YEUhK4kY0QLc7fzJkz3SeffOJ69uwpWTu0TzBv0qSJPDCZoNSsWVMO5er6ep1U24r4fUiFhx0zBAwBQyBTBLD0Pvnkk2JMi2uWkEzHZO1/RWDNP/7lzuo/0/U4qaG7YGDTXw9E9CoSy+9pp53mHnzwQde3b9+kahMJevjhhyeOYxn9n//5H0k/kthZTl6QsgdLKdkwfvjhB5fKmlmIikG4nZDWZd68eaXcDHAZSCZRVw7q3bu3FE459dRTk6mQ0f5k7hO77rqrWIFxN3jvvfcSfeb6+omOA15UtO9DAAS2yxAwBAyBMiOAseyRRx5xzz//fGzT45V5cHai+6bE4nvmWTPcqT0b5YX4Ankk5DfsvRw+fLj79NNPE83feuutWOcFTCjqewGxPOKIIxwkB3nmmWd8LdK/pRLJF198IeSZ1h999JFYM71nQrKXL1/u/va3v3l3y2usqFhyEQg4PrsqWH6//fZbR+5KFY6PHTtW36bcevv2NkQf+ly3bp3sxr2CMXgD/5Kdi3sLhNTbVvumT4g51tlshXGDGe4QuJ2oJLs+WC1dulQ+l4wvSLCIc8/JA8p4cyXF8n3IFR7WjyFgCBgCxHTcfvvtQn5ZLTYpLgR+/vk/bviIN0uMobu5cwccmrfBFYz8kv9v9erVrk2bNu7OO+90jz76qJszZ44U08jb6HN0IcguVuvf/e53kg/59ddfL0U+011m/Pjx7phjjnF33323I2gOaygz3LPOOktIIOdjKcd/mu3jjz/uunfvnnAZYTno0EMPFXI3ZcoU16dPH/GDxT8KoU8Cv9iPrFy50p1++ulCoiFxXbt2lT+SavsFP9pTTjnFQcxI+K7WU0greZHpF3cV7uEZZ5whAXJMBOgr2bnk+OS8pk2big+0XhPXDHy5uN6CBQvc5Zdf7s4+++zEhEDbhd1CcPErZ2Jx4403ulq1asmpya7PkhqfSyzkuN6AG1ipQKR79Ogh+EN8b7nlFvEnJmF/tlJM34dssbDzDQFDwBAAAQwhgwYNkufxQQcdZKAUIQIPTFzq1nz5L3fDdS3zOrpIfH7DjACC980337hrrrlGiAnL1rgL7LnnnmFOj00bSCAW61tvvVV0Oumkk8Si+txzz4mfaTpFSVQO0SJgi4kAxBnyd9FFF7lu3bpJgmv2UWGPQDl9AEAuIa0QOYgpfq29evWSSQRkvFOnTgnLKS4ZEFPwRggQmzFjhjv55JPFIposSA/rKwGJJANH2rVrJyT3oYcecjvuuKMEkWHtZvxt27ZN+A7TDreCoUOHljp33LhxbvLkyTI+yC9BeF654IILxG8XTOifZS7GxmeF8YQRgibxt4b4oj9W8okTJ0pApZ4PvkHXh2wzCQFr/lq3bu2GDBkiWHHuE088IVWpLr30UumKfiDHWIuzlWL5PmSLg51vCBgChoAiwPO/du3a8vul+2xbPAh8tHSDu3Pce27smNOER5wAAEAASURBVNZu5513yOvACmb5hYhBcrBGNm/eXAgERAvSWJ4EazUkSX1ksQwiBDmFkbfffluaQV6Rxo0by5b9hxxyiJBTgtLIwKDElwZYTXmP1Rch6wGCtbJq1apiUcWKqlKvXj19GXq78847iyVWTzjggAMkgFHfs+W6kD9vJR/aEfTn3dewYUO3du3axKl+fSjVSTAgftMQX4QsDVi4FZvEySleYOHFneOee+4R6zGZRi688EKZGHjdKPzXp0smLoo/75l8kFZH3R/YYpEmO8nnn39OEzdw4EAJ3JQ3Wfwrlu9DFhDYqYaAIVCBEWCFjgB5FYLHWekkY4/+vuox25ZPBNat+8799NOvxqKrRy8o4TJ1I8/sEIRWQcgvH3KW3VkeZ7kcyyJLyPhlXnzxxeILGqRsHPdhZYUAq+sAeXEhjZAkL9lLprsSWv3SUy8bwTqL4L+LDyqZM/yy7777ynXwtVU56qij9GXWWyJqvQF6kFL08UtQu6B9WGOTyfvvvy+HIMkqvCaf49577627Mt4eeeSRYmnmQTpmzJiU53OcIEzcOLCiv/zyy0J8FV+ss6RRYzJCv0xANm3a5IJyCKe8kO9gMX0ffEOzt4aAIWAIpEWA35XjjjtO/jReBXdAVgdZETUp/whMe/pT17rN/7rx9/7iXvnuu+vch0vWu8sva1GQwRWE/EJ0CHRjSRmBYOHbic8lZCLI97Qg6KS5KJbEJUuWCAFlhqp/LItjDdX0Z6m6YTl/jz32EMI1adIkKZJBlgxd5qcf8FHro7cvXEX8hLJOnTreJqFfE5j2xhtvlGrvJb4cSLa8H9QuaKae7Hz6VmuvEk325UqOPvpo6eqdd95J2iU49u/f340cOVLIMq4g6iOtJ9GGe4w1mXYsx1F/HWKdjRTL9yEbDOxcQ8AQqLgIYDAiMw/EF+MCAd8EumEkMykOBPbaq3oJj/mPu+/+JSVpVLe4CZOWuYYNapYYlAoTxFgQ8ktgE8vlfOC9gtUSIhiUI9fbLi6vyS1LTlx/mi2C39gXJusDuWnxkSWVCxZOLJ3eLAxUKcMaScYCv5AvmEC3IKLpbxv0HtKqhJRJB+MplOBri/hzIBPwgM9zNoJPMlK/fvJqMYwdYgv2BBYi3hzEVOdjcoJvdqtWrSSwD19qXF5SkWrpKM2/Yvk+pBmmHTYEDAFDICkCrP6SlpPgd+JFWAnmt9GkOBBoefQeUrHthx9+coOGzHGzZn/hOrTfr2CDi5T8QlwQ3eoo8V+FbEEevEImgRo1agih8+6P42sIC4TIu0yveuKO0KhRI8mMgMuCV/CF5VwVyC2kC/IFJmAA2fO6F+BKASn0lvGlPcFWV111lXSlfXoJm16DLdf97rvvvLtkCV/TpmF9VFcLGtGf9qkn0QcWYq8ka+c/l/fec/W46tSgQQPJpHD//feX+rzcdttt2+jtvb6+RjfEbwmHmEJY+VzhzqDiv766m/DwRbC0ExSI0Df4s+8vf/lLic/SL24mTB6YeChxl8Yp/un3QLfatBi+DzoW2xoChoAhUBYEcAE877zzxCDDiirZhKjSaVI8CFwxqoWrXm1Ht3zFRrECt2tXOPIbSbaHWbNmiS8v6aD48OK7QzBT+/btxdUByy5puJjdYTmFKLLkTp5aimMoAYnrLYegMUvFV/Oyyy5z69evl7GgL3lfcVsg/VW1atVkCZ3x4QLB+AmUgjyRHYG0ZASnkYKLICos4RBg3CnYDxYEsLVp00YyFpAtgUA6jhOIxQwZKyX4Qso4Z/DgwRIIxzEEwua9Lr7JWKRxM2BJide4nECCOYcxdenSRbIuoCd+WIyXe/Xxxx9Lf+jDPtxWsFwna5fsXCzjOnbIO0QUFwOC1MjWQBYKLKoQUvxqO3fuLGMJ+gcejF8nGQStsXqAfP3115JHmPGPGjUq4TeNSwP+veDlvf7ChQslvRp+ZoyLjBtkI+nYsaOMH79sKsSpHxrWeEg1D+lUUuzfh1Rjt2OGgCFgCIRFADcyfpPgDlTrNCkuBOrVq+KGXdjM3XDTQtegfk3XtElhXB5AdbuSZe9fQ++S4IxlkkIGROLnUrDSaWAYlj/y5BaK+P7pT38Skqn+obkcZ6q+IHmQO0i0ui9Q/IEcuWS+8Ls7QLTBba+99krVbehj9AUhJ6AOK3QcBDIN8d1///0TvsD50ovUdRSx4POI6wrvwYiJDBZbJm5MPmhDWj7NHZwL/eL0fcjFeKwPQyAZAqRo5HtECsY4CithGCyY/MZRWOE7//zzJR1kHPVDJwwRYeJe/PqzWsezFsNYlIIRBuOJ320xymtm0jcTAVJuYjyLo2Bw69Rxg6tV49eCWmH0JNvD1MdWlsQ1/cbVq1slzCllajN33la3anXDRGyZv5NILL/+iyR7j09POqtZsnOLYT9L/lhceUgo8WVcWBeZ9ZLnFvcHr290rivccA+87g5xwBUsCvWFxyLudWXhvQbjKdGFCGuWjlziVdG/D7nE0voyBAyB8okAmXRMiheBHXbYzvU945eUroUcZaQ+v4UcWHm4Nsvu+KHiPkAGgQ0bNsgfs2WW3HE18BLf8jAm09EQMAQMAUPAEDAEDIE4I1BQy2+cgcmXbpBcfFLJKTt9+nTJGUsAFP6+XgtkvvSx6xgChoAhYAgYAoaAIVDMCBj5jcHdpYJZJlXMYqCyqWAIGAKGgCFgCBgChkC5RCBUwNsTTzzhpk2b5qjaVaxC0Q2SbFO4wMQQMAQMAUMgOgSofklg6z777BPdRbLomaBjsrvELR5Ch0RWHopBkQM+rkL2HFYx4ypx12/ZsmUSiE6MSRyFeKU6tb8rWa1OmzOhIOq//8E617x526SVXUNZfjUn7+67716QQeTjogSWkWnCG3iWj+vaNQwBQ8AQqGgIkEUFoZJXHAViDsEkE04chSRNZMsgnWNchYBu4ljiKnHXj/u7evVqqfAaRwzJTtS7V8OS4lE14qheCZf7JUtTMuVCkV9m56QCy3Wqs2RKFWJ/oVKdFWKsdk1DwBAwBAqJgKU6yw79Yk51lh0y4c+2VGfhsQpqWdZUZ0F9RbGv7q57lqQ6S55H2LI9RIG69WkIGAKGgCFgCBgChoAhEEsEjPzG8raYUoaAIWAIGAKGgCFgCBgCUSAQyu0hmwsTOIAvbTKnbXy/KAm87777JooJZHO9fJz71ltvucWLF4u+VIehhDA+w+TlRd5++21HlRqKFuA7tv3220s1nnzoptdAH0oQowPXx0cMH7bGjRtLyWRtZ9vcIXD33XcLxkE9UpGPCoYHHnjgNoe5N/muMlSM38ttgLUdhkDMEOD37s9//rMEMrHsbmIIGAKlEdi69Wf3wISlJZywuuvapX7pgzl8F4nlly845V+nTp3qjj32WCng4NeZNtddd52UFL733nvdMccc4x544AF/s1i+xwea0rv4vFx++eUSFXzwwQcndN1tt92EcFKi+M0338xZKeLEBUK8gExRhWzNmjWiI7pSwnjvvfcOcXbpJkSdxlWCdGPCccIJJ0h5zBDVu3M2NMgtkw7u+0svveT4TBx22GEy4SCwh2qGFDThs69Cec369etLe90X1bbYv5dR4Wb9GgK5QOCbb75x3bp1k2cyWxNDwBAojcD69d+7Xn2mu7Vffes6d9q/9MEcv4vE8ssPOgUbIFukiwkiINRMf+aZZ9ycOXMcZJG0GZADLMCdOnXK8TBz2x068kclNkg+9em9BSkgM4MGDXILFixwI0eOdIccckhuFQjRGxbfdu3aSXo6JhfNmzd3Xbp0CXFm6SaQ5+uvv9499thjpQ/E4F0y3fi8bd68Oe9Rskz0+BzcfvvtQno7duyYQKlz587yPWASwmfn0ksvlWNE9H7//feOAJaopdi/l1HjZ/0bAmVFgNXNU045xZ1++ulu+PDhZe3GzjMEihaBNf/4lzur/0zX46SG7oKBTSMfZySW39NOO00qlPXt2zdwAOvWrRMrLyQX4otAlFu2bOnuvPPOwHPK487q1au7GjUKmwYk2+X0d999N7bQJ9MNN5v58+e7efPm5d2dIBXeTEYQJnwqvXv3lnRKp556qu6KbGvfy8igtY4NgaQIkI7s5JNPFiOJEd+kMNmBCozANyUW3zPPmuFO7dkoL8QXqCMhv+nu4dKlS8UKtueee5ZqShGNRYsWOfLvFatg4Xv//fdlnCyR/+Mf/yg1VPbhT/zxxx+X2o9f8caNGx2+mggWdZb3yypYHLk210PIx+jHneuNHTs25SWy0ZexQGB1TEEXYtwrV67cJt9mKt2w/H777bfu//7v/7bpkv6WL18uKw3+gxzjHCZnCPj674//nEze4weOHHnkkYnTyJXI+L2uEBxkDHxPKL6CXkHCqgMkHx2xLGUrFfl7mS12dr4hEIQA393zzjtPvvO4PJkYAoZAaQR+/vk/bviIN0sKtuzmzh1waOmDEb4rCPmtWrVq4JBY/kVYzi5GYdn5rLPOEjIHwW3Tpo275ZZbEkMlQA3XD9wlbrzxRnH/gJRC9PCJptrQVVdd5fr37+/+8Ic/iKUc8pSpTJw40TVt2lSW5l9++WWH1XH06NHuiCOOEJ9U+oNwskSHOwoEq2vXrvJHVSGVsuqLS0K/fv3c+PHj3WuvveaOO+44ySOt/ep2xowZrlmzZu7hhx8WF5OTTjrJsS+dbscff7wElvXp00e7ku0LL7wgPuhsH3/8cde9e3f3yiuvyDHIJ9gTkDZs2DBZgcCdhdf47r733nul+sr0DZO6yZMnS8WjgQMHyunkOuV63Is33ngj0eWTTz7pBgwYIJZr7gvjYcwqEPsePXrIGCC+fIZYNfnyyy+1SZm2FfV7WSaw7CRDIAQC99xzj0xMcYUyMQQMgW0ReGDiUrfmy3+5G65rue3BCPdE4vObTl9IVpUqVcR66W0LIUT4QW/UqJH3UFG8Jjhu0qRJrlWrVjIe/EPxe0YoHw3RmTVrlgSqQZAgnHfccYe74YYbHBkmOnToIL63Dz30kPjz3nXXXUmtgtJpkn8UKyEQCz9U3EzwXa5Vq5YQSwjj+eefL37KEE2W6/Af9vv8ZqMv5O7VV191gwcPFl9kyOXZZ58tr9U1ALKJ28y4ceOEhDMUsIPoQZhT6TZ79mxZYiTAROX111935557rpxLICACkQdjSCjW2Llz5zpcA8C6bdu2iTGjEziBe1iBzF500UXSnFKu3NfWrVu7KVOmOCWZ+ABCfgnO8wqfEyY76Msf52E1YswI5caxKKnfMP1AjoN86739pntdUb+X6XCx44ZAWRD44IMPZFJ/3333uZ133rksXdg5hkBRI/DR0g3uznHvubFjWpd8R3bI61gLYvndcccd3QUXXOBmzpyZCPRZsmRJYmm7WEsMQ06w6ELesHJjrVOyh2UAEqjEDN9RrLuQRBX8oyGikCVIKinVKleurIcz2mqpaiyIEF/kgAMOkC0uFekkG32POuooId916tSRy0DqmQx5rau33nqrq1mzplilVZczzzwzQYR1X7JtvXr1Sh0iaI8684ovB7G48p4JhgoYc5+wvKqASxhMtD1brMi4jPDHxAEXBTAnIwSWZxW/nuzHwk1KOhUiw/khVfcHtqwOMPnR8qtMlurWTV7NRvtKta2o38tUmNgxQyAsAkxyva5ol1xySclS7uGS4SFsH9bOEChmBNat+67kO/KfxBCvHr2g5He4buSZHRIX9LwoiOWX65MFASLHEj6+v+Si5UceiyLZEsqTJLO4eR+EjOfaa691PBBxJ4BosJx98803i68tvp3kglVrHu15mDIRwLUBrBAstl4rAi4JWFK9ghtB2BySXqzRCVE/YG+f3tf4BpdVX/pp0qSJmzBhgnvqqaeExGEJZYxeFw78otGNz4UK2JVFGA/+rD179tzmdDIvMBnhXumkC99z73XBJR0m23Ts28E94/5jZWbiR2YInXT4mroxY8aIOwYuF/gf8wfhRUf0wk0F7CD0/PH9wcrMBCJbKabvZbZY2PmGQFgEmODyfb344ovlGc/klMk8WY9MDAFDoGR1++lP3agr5rshgw5zQwYfVhLvs859uGS9m/Zk5lmocoFnwcgvyuuyMMFXWDAhJ2RIgASWB9H0ZvhaqtXUq/fq1atLFffAx5cArzkl0f4sw7/44osOFwS2jP/oo492WDxTiVpLvW28pJH9yci49xx97SV56c7DWr1w4UKxWGejL+M/55xzxKWC1F+77LKL+DOrTmzJ2OCfPHiP+1+rblhc/cK4GKdaTr3HsbD78fNiQtt0uHj7S/UayyyfE4IZyfsLAfYLuhAgA/mnaAZt8NGGlKrQBusx9wIXjeeee05+cMk/rSsJ2rYs2/L+vSzLmO0cQyAbBPju8XxhNYbfMeIZcN3DlcjEEDAEXAmvq17yHfmPu+/+Ja57twZuwqRlrmGDmiUGvexWLMuK7a9mtbL2UMbzsFY+8sgjcjZECvKCDyaW4FTposp4uUhOwy8TCSq0gLUOAqdklQcjbgwQIPxKeThiLYDkICzJq8+z7Pjvv2effTYlCcR/mL68f7gy5Eoggkr+Nm3aJK4qWELLqi964dvMD8Of/vQnIb5gw/1H8NfFnQNsP/vss22yIED6lBQH6Sad+P7x+WL5kSwPflmxYoU79NBDE1Zf//FcviflEWNC9i8pkhIkuAIxRtwllBx7cwCzUoDvM5Zf7v2IESMEM/yCNZtEUL9h9xXD9zLsWK2dIZArBPj+sdqGIYffMAJpy5JXPVf6WD+GQNwQaHn0HlKx7YcffnKDhsxxs2Z/4Tq0369gakZKfjXVlG69o8TP0mvlxAII6SUIqrwIBO3EE08U4klGBhWWyLGesbztFSzBWHlVIJEEWrGFxBDoB9lVwZ8Tq58ux5MlwUuEtF2qLecgW7ZsKdVM9+vW20aJKPtwsyDjAwJRJ+MEUlZ9Ibr0x8RABSs41+SPiQRkGx9WthToUCELCBkmFI9kutGe8XpTt6EvRJeKeyoQTQLFyKChAh5eTNhPX15MtG3QVnH2py7jM3HNNdcIccfaj6UI0WuprqtWrZL9ig94aaAbfTMG9vF98U4CwEQnY9JBin/6fdStt2kxfC+947HXhkC+EMAFiZVLVnX4jhJQbGIIGAK/InDFqBauerUd3fIVG8UK3K5d4cjvrwzkV/2yfkVkO9HxkDkeBlglmQm3b98+kUoLv1fIB5HrLN9CSigJq5bSrJXIQwdYHiEhVHPDf5c0ZhAS0odh3SWTgFcI4CJtF36flBnGLww/UAQr3uSSVFhkN4Ag77rrrg4iRB14iDVLafjZMkEgQAz/Moh3MuEc9MECzT3Amkp7rMLoTQoefG0JwMMiiiUW4sM+LLMEIELWuE9kpCAbA6T10UcflUuWVV+uTflfxoXrA0VAILl8XkaNGiUZH7CcoAcrA2S6QJfatWvL9cFHJUg3fnT4nDFx4F5wD9C/TYnLCRMJziflHBYagsgYDxbWrVu3iqXmk08+kfPwm4ZoDx06VNwU6Ff7UHcX1UO33CNNScY1IapMbHBTIA8vhBeLrqZgw/KPfy9jhYBDhDnG94GMDwQ2og8TKe4FFePQh+A7PkscRyfuHzgGuXyobmwryvfSO2Z7bQjkCwECWnFPuvLKK8W9ieBWE0PAEPgVgXr1qrhhFzZzN9y00DWoX9M1bVIYlwc02q6EePwaeverjqVesQwLicJilUuBKDBLJrAJK55a9HJ5jbB9sQQPkcDvtiwCUYWkEZhGKeGgKH5y9kJqIZEQM6raBY2ZFF2QLc3IUBZ9cnkO5A0yib64EPilrPpC4uhPA7+wROpr7zVS9Z9ON28/+nr9+vVCSOPsW47lmAwRDRo0kAkP7xlrtWrVpBAHftIQeNoQ8BaEm443022cvpeZ6m7tywcCGAD4/JJLO47CKhcpIJl0ZiI81zFi4OKm1UszOT9sW1YASUmproNhz8tnO7LWgGFcBTcVDCFxdbMkwJtUl3FN+4rhr1PHDa5WjV9XvcPca7I9TH1sZUkdg9+4enWzD9JOds2587a6VasbJgyu/naRWH79F0n2niV0XUZP1qa87Iek8JdKIL4IJDKVBBHnVO2jPgahT3WfyqrvHnvsUUr1ZAQuVf/pdCt1gf++yTYlWFCfud6HxdhrYeY9f4jiBBH2pm7LlQ7F9L3MFSbWjyEQBgGMGbk2EoW5rrUxBMoLAjvssJ3re8avqTwLpff2hbqwXdcQMAQMAUPAEDAEDAFDwBDINwJGfvONuF3PEDAEDAFDwBAwBAwBQ6BgCBj5LRj0dmFDwBAwBAwBQ8AQMAQMgXwjECrg7fHHH3f8xTlAKFvgCELDl5IoehNDwBAwBAyB6BAg5zVBvX6//+iumFnPBJQRaOutgJlZD9G2JrCObDKHHHJItBfKonfy9lNCPq4Sd/20iirZgOIopB6tWfN7V3nntDkTCqL+h0u+Ksmi1V4yLAUpECrgjSj8efPmxfZBEDSwTPeRZ5XUbBpUlOn51t4QMAQMAUMgHALkvSbRENUx4yikPkRHMvTEUcAuk/zjhRjDP//5T6loWohrh7lm3PVjAsbnLygjVJjxRd2G3Pd9ejVw9RvsEvWlytT/rrvu4CpXSW7MDEV+yU9KKrBijmLNNtVZme6OnWQIGAKGQAVEoFhTneXrVlqqs+yRtlRn2WFY1lRn2V01/NnVq9UtSXVWJ+kJ5vObFBo7YAgYAoaAIWAIGAKGgCFQbAgUBfn1l5Ittptk4zEEcoGAfU9ygaL1YQgYAoaAIVDeEQjl9pDNIPGrqVSpklSmCuqHH2RKv+67775l9reltDAlJSn/mg+h/OzcuXMDL0XAHIUHqBQX18oxgYoX2c67775bShYHDYvATUqPHnjggUGHC7IPf/NUAaXZBgg9++yz7q677nKvvfZaQcZnFzUE8oEAvyeUTqeQEMvacZO46xc3vIL0oSz9hAkT3B133CHcIqiN7TME0iEQieWXLzhlV6dOneqOPfZYxw+vX2hz3XXXSUnhe++91x1zzDHugQce8DdL+37RokUS9frYY4+lbZurBnvvvbdUPCMDxk033STdUp6ZylibNm1yAwcOdO3atXOffPJJri6Zl36WLVuW1XWCzicq+YQTTnAdOnSQAJesLpDByZBbAla4Py+99JI7+OCDpYR248aNpaT273//eyl7yOdQJd+6bty4UQJCBg0a5E488URVo9SWMqutW7eWyd3FF1/sOnfu7IiyzVT4fhDdHHSPMu3L2hsCcUSA7AzdunWT7wfbuEnc9YsbXkH6PPzww65fv37unHPOMeIbBJDtC41AJJZf6mVPnz5dZt9fffVVIOmhZvozzzzj5syZIzXQSTUGIcEC3KlTp9AD0Nrhr776qkS/7rJL9JGHWOj4e/nll92qVavcySef7Pbbbz/RGRJz+umnuyOPPFLq1mMhLg8ZJCBU119/vSvrJCLZ+UQlb9682W2/fSTzrKSfEyZdlAe+/fbbhfR6VwUgkOiFwz6ft0svvVT6ybeuF1xwgWRQYZLEtf3CigjWq/POO8+NHDlSDkOAzzzzzIwsuJBstfjynWMiYGIIFBMCfFdOOeUUefYOHz48dkOLu36xAyxAISy9Tz75pBjT9Pc2oJntMgRCIRAJIznttNPcgw8+6Pr27RuoxLp168TKC8ndbbfdpA3LVC1btnR33nln4DlBO8kTOXv2bMlCgZUPC18+JZlbA5Zh8i9CjFmiKQ/y7rvvZqVmsvNxeZk/f76kykuGV1YXTnFyquthmUeYfKnkW1dWDm6++eakKQRxUyCqG0uHSq9evcSCO2vWLN2Vdvvcc8+JlZtJGOTXxBAoJgRwCcIAccYZZ7g4Et+461cePgu4sjzyyCPu+eefTxiayoPepmN8EYiE/KYb7tKlS8XSteeee5ZqymwONwZy7oYRSNURRxzhINtInH7Y1ZIHoULIiafL1RB1rHF+IeflW2+95b799lv/IXEjYbz4hmJF8Euyc//973/LOVwTIW+gH190GTt2rL/LUu81JyJbv6Q6HxwYD7mi/cLkZfny5Q6rv184xjlMlBBcEhh7ruSdd96RrrDQq6TSNdX4OR+SiosCn1+wzoWuS5YsEb9xbyEAJonIG2+8Idsw//he9O/f3x133HGCNTqaGALFgADPCVZG+B4PGTIkdkOKu36xAyxAoTfffFNW8CC/devWDWhhuwyBzBEoCPlNVrEEgogoSUw3HH7UWRbGv7NBgwbu9ddfDySV6frJ9XGWsSEuzZo1kwo3LNcceuih8n7KlCmuT58+4h+M/xICmWUpnlzDkN82bdq4yZMnyzGIY48ePaTCHoTqlltuEQu5JodPde7EiRPl+vgj46Jx6qmnutGjR8uEQX8oVq5cKUuFEFDIddeuXeUP/1AElwUsj+PHj5elcwgUeqqkO59gRALLGLNXXnjhBfEHZ4sFtHv37u6VV16RJvjh4gLDecOGDZPVAKw6vGbJ/r333vN2lfFryB/4tmjRQvyztYMgXdONn3Nx8znrrLMcWCxevFjuH/cpWwn6nmT6HVm7dq1MHHDv4HOExGmSmC1Gdn7FRuCee+6R5yfuTXGUuOsXR8y8OmEAISaC3y0CyU0MgVwhEInPbzrlsNZWqVLF4Q/sFYgDAslr1KiR99A2ryFIEMVbb71Vjp100klivWSJ17tMvM2JEeyAWDIjxcqKJZME7pBZdMPXlaW4Jk2aOJasH330USEfuHzQnnH07t3bEYjFgxI5/PDDxZpN0AY+zVgP1C8VvzZIFlbKdOdSlATiiy64k9AXJZxnzJghZPT8888X9wzes2y40047bePzi48V/tSDBw92zZs3F/J59tlny2tcBwjyS3U+bikQV4I9VJiknHvuuUKm9YEG2YZ4gx1WHHylsehzj9u2bZvQi2syloceeki7S7vFSnrRRRdJO8ggLgMEkTER8RLMIF3TjZ9OL7/8cjdp0qSSUoqt5Br4GueCYOK3jNUD6/fuu+8ufet3hHGEEe453w0Ef3S+d+wj2DTffthh9LU2hkBYBHApYyJ+3333uZ133jnsaXlrF3f98gZEFhfit7N27dryG5JFN3aqIbANAgWx/OJ7SLDPzJkzZbkYrbCUfv7556JgmHJ++GpCYLStWrWwwuVbIKeVK1cWYgk5Qzd8nuvVq5dQRX2bsS5CuCBkRKy++OKLkq0CUquCdZXAPfqh7wULFkiaKsWHbBKQ7XTn0p+SJvCB+CIHHHCAbP2TD9np+3fUUUcJga5T55dKKWRtgEBlYn314kD3BNZhdVXiyz5qwPMeK7kKmEHyBwwYoLtE9zB6J04oeYEVGbcO/gjoIxMJuLBigOXZK35dw4wfHW+88UYh81hm8V1Xn2Jv35m+7tmzpwRWej/Tah0PS1zJtKKR79WqVZOsG5BprPwmhkB5QkBXMVTnSy65RAwF+vnW/YXaxl2/QuES9rqUlPY+2zG68Hy+9tprE7/zYfuydoZAOgQKYvlFKaLXsTTii4jvLz/mPMSmTZuWNADIOxgsayxfYy1UYfYPUeQh5Pcn1jZRbCFXBLiFEciUV9S94IknnkhE5HOcoDlICu4CTz31lBBGSCPjwooJAU13rvc69evXT7zV7BPqB5w4EPACizU5FdEBbCHuP/74o/wFNE+7i2vi8w2x8wtL82QlwL9XJzX4gXuJHrqH0dvft/c9nxMeqFiZmYRhYdWJgbcdr8OMn774ISbLB/oxwSGQLVsBD6y0I0aMEMyw9GN9517g5pNOmCx99NFHDku9ilrg+f4wbhNDoDwgwKQVtyeynfBd41nEBJysQnGQuOsXB4xS6cAznefm+vXrZbUPYwuudqTJbFPiBmhiCOQagYKRXwaiS9Es/2M5hRBVr149ZbJ/zqM9lmIegN6IfqLjIYgQBqyjcRS1oKpujBehSEcQoeFhwOyXwhq4AODWwcN/n332EaxSnSsd//efl0BiqUwlWC+5HqQe6zMWatwiSA2GRRpXh1TiPd/fjmujCxZtv3AvIdZe8erN/nS6e89N9RrLORbwjz/+WAhiMiIYZvw8nMl2QVtcOrDI43KCO0i2wqQFyy8/DkwWNatGOrcgrgvBxfUGtxoV8MXCTtQ0S8Y6EdLjtjUE4ogAzzueGTzj+Z2AGPEdwIUuDhJ3/eKAUSodMEjsuuuu8jzmN5znJy5fZcn9n+o6dswQUAS21xf53uJLSfQmAvGFMGHJxBLsJbQEHPkFdwmW373taEPwG/ty4W/pv2ZU7ynugfgj8HH0xzcVX1IsffiTYgHELxV3D7IVpDs3E50hmUosKdQBxgiBBvzIQJQgvvwAca8QdHn77bfldbLz5aDnH/can2Z8o/2yYsUKCQxUq6//eC7fk37os88+ky7333//pF2nGz8TsD/84Q/ihoKPMj/KWIHI/IClNhth4oM/MSsA/Djw2WYChPUdK7MKhDbIGg4J79KlizaTLQSa1RLuMUTdxBAoDwjwzOP5juGD3wjcf/yf7UKOI+76FRKbsNcmSJjsSMTFDB06VCb7uXAfC3t9a1exEIiU/Gp6K916ocW3U4PV2I9VkR93AqtU+BIQPAT5U4EMs6TMfr+wTAxRYzmMpfWoZcuWLXIJ3aa6npJ4UmJ5hWXs9u3bu/vvvz9BKjlOQBLL/5BNsOE1AsmEHEJ8051Le72ubtmn+iqJZR+BcZpyDOKGdZdrs0/TtdEOwsR5/FEtTAlz0Pm0R7ieN70aJB6iy8xeBbJNIN9VV12lu0R3r94coC+v3onGAS90nH4SClG85pprBFMsDFhtVLy6hh3/6tWrxdqrfWBNJWgvrFWVNGp8LvQeaz9q+dCJCO0I7uE7gpUE4RwmRljp9V6wn2A+vne6ssA+FZYXEc02ovttawjEGQEsgnyeceXhu0kgb5wk7vrFCasgXViRIm0dzzFWdnmmBT2/gs61fYZApghE4vaAxZKIfLI28OHFGsZMHZKnKbawXPGjjq8rS+z80FOkwusWwA881kYCdRAIIrNDHOMvu+wy8Q9ihoiQ8ouiGqQAoz0BZBBh3ARyLbhVoAtL5oyPMeGjC0kPIjyMHwKLxQ7iwpccYo9AZLHu4gPNch7p0fDVhNCAF0S0Zs2aCd8nLKY1atSQBwOThVTncowMElyXgCzOBRMmHuzDqslDBiLI/cBijn8ohBf9INqUBybBOK4PXJcHE/d21KhRQr6xwiBB5/MDxRgYDyQNiyPXaFPiJkAatnHjxsmSPtYcIqO5Ju4H3F+sOqSM4zwCAMGbew3m9Kt9BE2C0AcsIdMI14Rsc2+wkvJZgfASAKcp2JLpmm78pDjj/kAk8SHmc4A1GD/gdAKm6MKYwBX/NvoiWJLvAVjg80weZfZBfKnuhtuLCveIwED0R8COiZFmg2BSgnVev0Njxoxxk0vSvPEeNw2ugS+lN+BS+7atIRAnBAhS5TmJixguSwSsxknirl+csEqmC882ntdwB57hJoZAVAhsV/Kjm9oBtOTK+Jyy9IqVLJcCOWEWj18jP9L5WO5Opj/L+hCqo48+OlmTyPdD9KgKt3/JMrySaKx3TAAgiGQpIOAtKDgr6NxMFYYYQlQppIB7gleIwmWfXhu99LW2S3W+tvFvWdrnPMpFx1lSjZ/CIUzUmDRwH8AvV59lLML4+WKRJouEJXmP86fEdAuLABNFnmmkQcxE+H4xecPVSDPoZHJ+2LYYHTByYBjIRPKlH88FUlWq62AmOuarLSkWwTBTwaWP3xdcG6MU3GiIp8CIFEdhIkBKUAxWcRQMep06bnC1amyMo3pu7rytbtXqhgmDq1/JSCy//oske8/SerrgqWTnFuN+CJP/g64EE0sdFuNkEnRusrbJ9uMPmux+eKuMcb7q5e0r1fnedt7X5YXMpRq/uiBo9TXv+LJ9zcoCkzITQ8AQ+GWlLNdGmFziynM4zvrlcqxR9eWtuhnVNaxfQ2B7g8AQMAQMAUPAEDAEDAFDwBCoKAgY+a0od9rGaQgYAoaAIWAIGAKGgCHgjPzah8AQMAQMAUPAEDAEDAFDoMIgECrg7fHHH5fUSVEGGBQa8TVr1kikvaVWKfSdsOsbAoZAsSNAkCix1nH1+f/2228lF7Y3DWKc7gnZXchT7o8RiZOOBLQniyGJg55x148AajKI+IPP44AdOpAEYZfq/y7JQR8XjUrrseSjta5t286S3ar0kV/ehQp4I9cq6cjClvANulDc9zFGHngEbZkYAoaAIWAIRIcAeb8hv/6859FdMbOeyUBDPnFSB8ZRwI7fLHKMx1XIUGP6lf3ukPGCHPXePPtl7y33Z/Ld7dB+f9eg/i657zwHPTZoUN3tUKl20p5CkV/SUJEKrJijWOOQ6izpXbIDhoAhYAgUEQJlTXWWLwjKmuosX/oVc6qzfGFoqc6yQzruqc4qVapZkuosOfk1n9/s7r+dbQgYAoaAIWAIGAKGgCFQjhAIZfnNZjyUZMVsrxWm/H1h1qfKFaWJtbCDv42+J9m/tySu7meLX8yBBx4oldGqVKniPZTz1+hBCeV0QrWuU089NV2zCnv87rvvTrqsyGoDFZy4p35hya8QicmpOpSqGMfXX38tldb8OYH9+vO+rGMP6sv2GQKGgCFgCBgCxYDA1q0/uwcmLC3hhNVd1y71IxtSJJZfCC3VyKZOnSrlU5999tltBkCb6667ThL433vvvVKS9YEHHtimnXcHAXc40FNGmLKz+OdSGY4/AtUoKUsVrLlz53pPy/nr2rVrS9U1SgdffvnlUooRx3T+qMa2adMmITccq2iybNmy0EOG3P7www9yLyltffDBB8u9bNy4sVT+o7Y7paP5rKhQkYeKgLTPh1BamMnOoEGD3Iknnhh4SZZIW7duLWVXL774Yte5c2dHAGUqKcvYU/VnxwwBQ8AQMAQMgfKMwPr137tefaa7tV996zp32j/SoURi+YWgTJ8+Xcq8UhYWS51fKBtJDe85c+ZImUoiGyE7WIA7derkby7v99tvP8ffzJkz3SeffCK1v70ZKCAnTZo0cf369XOLFi2S7A2BHWW5s2HDho6/V1991UHsKdHJe69QlrBFixYSlFCjRg3voaJ9DeG7/vrr3WOPPRZqjMcee6zgdvvttwvp7dixY+I8CCSfG/yK+ExceumlcoySqASi5CtQ5oILLhCyzect6HPMqgW+Y+edd54bOXKk6AgBPvPMM91rr72WGI//RVnG7u/D3hsChoAhYAgYAsWAwJp//Mud1X+m63FSQ3fBwKaRDykSy+9pp53mHnzwQde3b9/AAZAiAysvJFfJK6Vhsdreeeedged4dyZb8qbMLFZgXC3CuCV4+yzL62R60Bflf08++WRx6ShL3+XxHCykmUoqDNu1ayfdMUFS6d27t/v888/z5k5Cmr+bb75ZCLDq4N3eddddQsSZcKn06tXLffjhh27WrFm6K3Cb6dgDO7GdhoAhYAgYAoZAOUbgmxKL75lnzXCn9myUF+ILVJGQ33T3YOnSpWJF23PPPUs1xaqLxZY0OGURUpUtX75c3CGaNWtWli6yPueqq66S/It0BJkn3QuCxRKfUZb5kfXr1zuW1L3C8VRj//LLL91bb70lKdm852EJ1WV2+vf3S1v2MelA0AnLPFZLryTr3687OTr9etL/2LFjvd1l/fqdd96RPry13klBxOTG6wpBI6yyfK4+/fRT8bsNujiuOPPnz5f74B97UPsw+5YsWSL+x14/XyZyyBtvvBGmi8A2QWMPbGg7DQFDwBAwBAyBcorAzz//xw0f8aY7/PDd3LkDDs3bKApCfqtWrRo4QEgcokQusFGSnZCiq6++WgKobrzxRrG8Jmka2W6IJwF5JCBHunfv7o4++mg3ceJE17RpU7FKv/zyy2K1xO2jVatWjiVyCBtWzhtuuKHkA3C4+Ll6lYSo4QZAOjbIb5s2bdzkyZOlyR133OEOPfRQB9mfMmWK69Onj/hFP/zww3Icwse5w4cPd5dcconr0qWLGzBggPvrX/8q16ZRqv6DdB89erQ74ogjEnqSLPz00093uK5ALrt27Sp/WD/LKkyCGCOuIwMHDpRuSI9EABxYeonlk08+KWOaN2+eQ7fjjz/eoZMKk6IePXo4rLhMMG655RaZmED2s5Wgz3I2n2P0CRp7tnra+YaAIWAIGAKGQNwQeGDiUrfmy3+5G65rmVfVKuX1av+9GMSJjAz4A3tl8eLF8haCEqZyzRVXXCEBZhBfltwhX5C1ZIFJ3mvl8vXZZ58t2SY+/vjjQF9U8iPjjgEJxa0D4olbxIwZM4SsrlixwkHsvPsgfASAYeFkqZ8gMALsEAgyriXdunUTUoufM0vtjz76qPhR406CtRYhYGz77bd3Dz30kLyHmJK4fcyYMUIE0/WfTvfzzz9fip8wFtw8CEIM6/MrCv33H2T2oosukndr164VlwGCyCD0SjBPOeUUIb8nnHCC91QJOjzmmGMcftb8cR7jRifkiSeekAmJ+g3TD+Q4yIe3VMch3uC7y4QHqzoBj4h+jhlHGAkz9jD9WBtDwBAwBAwBQ6C8IPDR0g3uznHvubFjWpdUitshr2oXxPJLSjMCiQhc08Allo/x5UR22CEcCFh4WWqHFC5YsECCzy688EIhgkr+8oHmpEmT3CuvvCJ+xgcccEDgJZUYYYGE5CLatkOHDol9GjinxOnFF190kGMIm8pxxx0npF99YdVvGosnRBEydc455wjhY/kcy7AK2TLefvttyY6BFTVM/6l0909g9DqZbgl25F7yB3nGYs11yYrwwgsvJLqrV69e4rW+OOmkk2RyoO+ZFHzwwQcJCzyWeD4f+OfqZ4zJRS5Kq/bs2VPSnxHkqcJnAWHSEUbCjj1MX9bGEDAEDAFDwBCIIwLr1n3nfvrp1wQIV49eULKSWzfyzA5BWBTE8osiRMZjJezfv7/D9xeiAGmZNm1a0uCioAF49+EbCkmcMGGCWDavvPJK7+HIX0Nq8fP1yqhRoyRgSveRpktF8xoH7VPfYHUdwHrpzR6w9957J3x4tb+jjjpKX8oWTCG7XoK6atWqUvXWM+k/lZ6lLpyDNzvvvLOkrsMizkQJC6tOGvzdY8WGcA4bNkwwwQoL4f3pp5/kc0WuZdLjkYmCPz5vWJlzkQ+aTBRY8keMGCE+x1jSmzdvLtdr0KCBX9VQ7zMZe6gOrZEhYAgYAoaAIVBABKY9/akbdcV8N2TQYW7I4MNKVuvXuQ+XrHfTnuxSEK0KRn4ZrS5zY6WlSAVWNPL1piokkA4lfGwhvxowlK59ro/fdtttCYsf7hvU5/aK1xqoy+6pLN3ggUDk05GpOnXqeC8lr0nDhn8x/sKQQSyf+NKqZNJ/kO7aj3+L3+vChQslfZ3/WNj3WGaxjuNO8tFHHwkB9p+Lywtpxsi1S+EISDKuL5p2jPa0wXqMPvhMP/fcc+L/vM8++4ivtb/PTN8zKcDyy4SFCZ1mvQjjupPsWmHGnuxc228IGAKGgCFgCMQJgb32ql5ilPqPu+/+Ja57twZuwqRlrmGDmiUuoXULoma4ddkIVCNI6ZFHHpGeIb6QJayQWIK9KaA2b96c0dUhN4jXSplRB1k2hsiq/lgtsbxmI/iyIgRBeQVSnS6VFu1Z7n/99dcl8K5t27ZC/ryZMLLt36sT5FgJPYU+cGvJRqiY9tlnn0kX+++/f2BXXANii7sExBdRVxpek6YMtxQsvwQYYqGdPXu2+AXnYoJE1g6KmWBtxmLLvecziPsJQYAqEHC15uu+VNswY091vh0zBAwBQ8AQMATigkDLo/eQim0//PCTGzRkjps1+wvXof1+BVMvUvKrVk/dekdJloJbb701sYtiBhCHwYMHJ/YRwIUPLMTFK5o+DELhFcgMbSkqwRJ41KIky68H1yWVGD6mWp5XSbxuaaPj8O7T15oxgCX09u3bu/vvv18mCJyHUB0PSy6i56g+svO//yBkZEDAh5isDhTmWL16daJJJv3rdThZdVc92UdQH0GHCJbYMMRf+/GnLoMoYrFmjATdYaVFVAdNtYYbB0IJbQR3Bw10o2/8pdnH50vxgqQzSVHiLyem+Ud6NfDVPrQ5wW7krFaiT7v77rtPPsfknUY4B+KNb69ODtif6dg5x8QQMAQMAUPAECiPCFwxqoWrXm1Ht3zFRrECt2tXOPL7C2PIMYpYJMlqwLI/y+rjx48Xn0xIHFH4CFYxCAO+rCxHQyIoWetduoc8UC64WrVqcg5Ly/RFPleEQCfNr4qlDALFNfCz1Vyr0jDH/wjIwrVC9SAbAz64CGQQAggJQiC/WB4JysMaSJAeuYhZEmcCwD5SnLGPJX7dB2FlqZ8t57OMj1sIVltcFyBTjBU8IHb0w8ThoIMOkqwPcvGSfwS70QdlhyFvTEQgYKRWIwMEy/Sp+k+nO30TrAhR5Z5StY/sF2DA5CWVMB5NScZ5EFX8oJlMQNQhvFh0Sd+GgDv+vYyVfMoQYY7x+cH6ShYIKrHhToM+VIwbOnSo+DzXrFlTjrdp00awZoIEGU0nBA6iC64X4MY16IsiLnxWsTaTn5o8x+yD+FLdjbRyKpBtghIh4SqZjl3Ps60hYAgYAoaAIVAeEahXr4obdmEzd8NNC12D+jVd0yaFcXkAu+1KftB/Db1LgibLyizrYoHLpUB8IHi4KGA1TOX7msvrBvWFTyzECJ/huAoWRCyduABosFwqXfFthRQyqYCgIfRB9TsIGjmGIaoqmfav53m3EFfIOZMP3FnyJUx8yBCBXzQrCLxHFyZOEH4mUfiW04aAt2TBc2XRl0kFfr5Ycgl4zEUWibLoYecYAuUFAVzC+D4SkxBHYeWKQFYm0XEUnjmkmVTXwTjqiHEKDOMqlKXHoKZuinHTEwMKqTuziR2JckwY3Tp13OBq1ShdrCvdNcn2MPWxlSUVfn/j6tWtkq55mY/PnbfVrVrdMGFw9XcUieXXf5Fk71kWD7M0nuz8irafyUEmXwSsvbg1KPEFL/pgH7mBv/nmm1IQZtp/qZP/+wZLciHuKZMBTROHKrzXCYISXYgwlvFcC6sbTJxMDAFDwBAwBAwBQyA5AjvssJ3re0bj5A3ydGT7PF3HLlMABLDUE0R40003ibUXayhWX/yFCSTDXcPEEDAEDAFDwBAwBAyBioSAkd8ivtsUhCDzAJZfsmtQ2IFcwRTJoBAGOWpNDAFDwBAwBAwBQ8AQqEgIFNTtoSIBXaixku0hrn51hcLErmsIGAKGgCFgCBgCFRcBs/xW3HtvIzcEDAFDwBAwBAwBQ6DCIRAq24Om9tK8pcWIEtksCFzStGrFOEYbkyFgCBgCcUCADCyk/vOmtoyDXqoDKStJV6mpNHV/XLZgRwrGKFN6ZjtWsv4UqthUGN3Rj8xJcc32QKpYOBert3GUDRs2uKpVqGqaNmFYQdT/aOnakowSf3Djxo0LvH4otwfSqhA41aJFi8BOimEnRRXIdhAi81sxDNfGYAgYAoZAwRAgzRkEjt+WOAq/B/zFVT+wI4A5rvpxT8uDft9++20cP36iE58/ijmBYxyF73CP/9mvpETxLnFUz727aDf3H5c8j3Ao8kteVPLg5jrPb5wQKw95fuOEl+liCBgChkBZEbA8v2VF7pfzIL2W5zc7DC3Pb3b4lTXPb3ZXDX/2Tz9VLcnzWyvpCebzmxQaO2AIGAKGgCFgCBgChoAhUGwIhLL8lnXQzE43bdqUMqUWyzf43pCOS4sSlPV6+TqPal7ky00nlME99dRT0zULdRx3jJtvvtnhZ7P77ru7Sy+9NNR55b3R3Xff7bZu3Ro4jL322sv97ne/kxLS/gbglU9frmL9rPtxtfeGgCFgCBQSgQ8++MBNmDDB3XHHHa5SpUgpTCGHadeOGIFILL8bN26U8rknn3yyGzFihDv88MOlTCREV4VSupSOPO200yQHbbdu3aQYQ3nwua1du7aUy73nnnukfDCO6RBS/iijC+GHtFFaOFcCkWvWrJnk5yVXb5RCZTi/cL9OOOEE16FDh7z6RUNu8X2iUAdlmg8++GAphd24cWMpjf373/9eyhd6/aIoWUmgBe2jlmL/rEeNn/VvCBgChkBYBB5++GHXr18/d8455xjxDQuatQtEIJJp06BBgxx1vSG2CAUW2IeDNL61CP4iL774opC5KlWqCIE59thjhUDG3beYMrr8vfrqq+7ZZ5+VPLre0rqMj5rcBAhu3rzZ1ahRg11Zy4knnuheeeUVt2LFiqz7StbBmjVr3PXXX+/I8OEVJiWMZfvtI5kveS9V6jWfCbC9/fbbhfR27Ngxcbxz585CxPksUbBDreF8zojWzkcwSLF/1hNg2wtDwBAwBAqIAJZeuAS/uawUmxgC2SCQcyazfv16IYVYP1VwLMci+sQTTySWsCEsEGSIL0Kase7du8tyhp4X922qZfVatWo5LN+ko8mlRE0+cekIEpaX5s+f7+bNm5dXdwJ0SYVzu3btRN05c+bIln+UbcaVJlcuJ4mOfS8q0mfdN3R7awgYAoZA3hD485//7B555BH3/PPPG/HNG+rFfaGck19NHfLXv/41gRy+vAcddJBY4lavXu1WrlzpcBXYe++9E214Qc7CTz/91P3tb38rtb88vbnqqqvcZ599Jiq3bNnSbdmyJSP1yS0JAWUbRrDIkjPzm2++STTXfWDsl1T9s4Q/duxY/ynynj65t1zLL7izLF++PPC+cYxzyKOM4D4RpJe/z7Dv33nnHWl65JFHJk758ccfBT+vKwQHGcPSpUvlM+Z1wUmcWPLi73//u5B8dEw3canon3UvbvbaEDAEDIEoEHjzzTdl5Q/yW7du8tRVUVzb+ixeBHJOfiGwr7/+unvooYcSqEFGlixZ4qpWrSqEV8kh772CtRSBAJdHwTeVL6oSKyzZRx99tLvkkktckyZNZAJw1FFHua+//lqGh/8skwL8VxcvXiy+TOPHj3f49B533HEJF5FkWEDu8Hlt1KiRO+WUU6QZ+1q3bi1BYL169UqcissCvlLJ+mdCcvrppwuBxcLbtWtX+SO/M3L88cdLn3369En0yYsXXnjB4ZrA9vHHHxfrPa4ZiOp34IEHumHDhrk777xTXER4je9umKBB6SjJv0WLFrnJkyeLe8nAgQOlFSmUuF7Tpk3FpUZPZblswIABYrkePXq0jIcxq0Bke/ToIWOA+N5yyy2OycuXX36pTbbZVuTP+jZg2A5DwBAwBHKMAIYTXMt4ZvNbaWII5AqBSHx+ITZeefnll8UHE9KDm4NaQ/3V1HR5W497+4jz67PPPttVrlzZffzxx4F+prfddpsQqfPOO8/xerfddpPh4PoB4XzuuedkOQcf4sGDB7vmzZsLOaRfXuvSvh8DLOqQ7b59+4rFkuPsmzt3rvhbf/XVV4lTIH+p+v/tb3/rZsyYIa4aO+200zY+v7Nnzxbi6rUwM8nBtxmyrg8myDLEGRKKNVZ1eeutt1zbtm0T/TImyLB3kpRQNsmLN954w1100UVydO3atW7WrFlC9KdMmSITKw4wCYD8EpznFYIPjznmGNEXnZkgDBkyRMZMO1xymLSo3zD9QI6xFqeSivZZT4WFHTMEDAFDIJcIDB8+3BFgfsYZZ+SyW+vLEHA5t/z6MYUsjRw5sqTMXKcEsdDUVVRU84ouU6cjHN5z4vB60qRJEoiGJfOAAw4IVIlsFhQLeeqppxLHIY9Dhw6VID8swocddlii3CdWYSYKYayjpFTzS7169UrtyqZ/7cjfJ4FxBPUp8aUdFlfeE5ygAtnnnmJ5VQEnLznX/am2WLlxy+CPgDxcFMiwQUYILM8qfj3Zj385FnYV7gcpc9RKz3bBggXurrvuEn9h2mFNzmSZrSJ81hU/2xoChoAhkEv5yB6GAAAl/UlEQVQE4AXe3wSMNTzXr732Wqm+mstrWV+GQKTkFzJLFRqWjyGImsdXsx/g/+kVjc73u0N428T5NW4bjNUro0aNkrcEjDF7xbqqX3D8ollqR3CLIHchX3YCtljqwV2Ev3SiFnN/O+/+bPr398t7XDzwnw2qLU/mBYik9/4SnesN1uOzQB/ZCDXPeTCyNHbBBRcE+iNr/2PGjJGUe6w+4A7CagSEV3UkOI7JB4QeizUknqBNDcjUfpJtK9pnPRkOtt8QMAQMgUwR4LcAVz/+iD1BcNFjBa9Nmzby3v4ZArlEIDLyi6WPZWX8USF1kB2WkUlDhQUU8WaE4L2S3z322IO35VJwa1DrL76j3gAxyC+4TJ061b3//vtiiVRyRbYCLJucgzsEmAVZdMOC4reel6V/0oXhahAk9A+ZVcuptw2k20/avcSXtn79vOdn8hrLLHij60cffRR4Krr0799fViBwZ8Bq7Pddpg0TD9LosFLBUhu+2lgf0gljqYif9XS42HFDwBAwBMIggCFj1113FeKLAYJnOS59uAWaGAJRIBAZ+aWABRW4yOurxIel8O+++06WqfmgQ/S8QvWyOnXqiBXUu788vcaVQy2u+L3iS6sCHu3bt5eULZNLArXOOussPSQO/UwUwIu0cJBKCB2Cv+3bb7+daOt/wTX9ZBJy7d1HwECY/rlXeh6Tk5kzZ/ovJ+/xcaZ4CVke/EIe4kMPPTQvS1UED2oA5f777+9XRd4zBogt7hIE5yE60eI1lfNYmcAlpVWrVlKYBczxC9ZsErRLJhX1s54MD9tvCBgChkCmCBBkzArpo48+Ku6AxJ4ki3fJtG9rbwj4EYiE/N57771CJghcw3p28cUXi/8kKbwgt5A1LHDTp09PWA5ZfsbKxn4ly35l4/ZeCZTfyomejA3/UYKvvNKvJOMCKbRwGVBfWYgu6d28pRrxB4b88kfFNSWkYErmBq/ss88+pbISfPLJJxJ8x2QCyaR/lv411RwE2kveuTaTFxWq90F0maGrQDSx8JPyTQV9/TrTl5J7bZdsS1tEfcK1HUtlEE8+OxRGAQdEr6W6rlq1SvYrvuCB+wlC34yBfVjc1Q2CzyCfU4LkUklF+aynwsCOGQKGgCGQLQL8HhIUzm8d2aFYCSX/v4khEAUClXLdKXl8sTLyAca66RWsaiq0IZsBZQrJDjBt2jQJLsplSWC9Vq63LJvjlgCBRfDR1ZzFEDrIo+bp9ZNfMh5goWTcKhAtyveSyJv9+ESDH9kQ8Bkm4wNWYvyfKN4AQaMfshzgX0u2Byyb+FdTDQ2yTHU9Mhhg6SSjQrr+cQtAWGZ65pln5N4wDmbhEEMs1npt7hdt2rRp4yZOnOjGjRvnKCmMSwtBZJzDdQlg6NKli4OMozP+XPfff7/M6smMQb/ah79CnmLTs2dPIdO855oQVVxomHAwiYDwYtFVNwbuDf69+I1DwCHCHFu4cKGUmwZD9CFrBMSZinEEHeKHjZuJ+phh0eY+8ABOJhXhs55s7LbfEDAEDIFcI4CxjOc8q8I8+00MgagQ2K6EZKXO5VRyZYgVRQpyXXaYS+PbA1lr1qyZWEnVZSCqASfrF3cDiBh5eaMWLLK4fQQJJAyXAs15jM+wvg5q791HtgEIKISY6mNYPvFdxY1CJUz/EEuILsFs6BJGuB7n4doRV8FyTIaIBg0aiGsK79GZlHvgDE7gRxv80sPiHma8cfqsh9HX2hgCUSKASxjftbimsGLVi4BkJshxFFYdMXZQ+CGuQoYdb7GrsHriasbzmIxHUQqVZzHaFIpzpBsbEwHScuKuGEdhpbRTxw2uVo1fAhTjpuPceVvdqtUNJR4nSLecW36DLpJsHx86shDwV5EkGfEFA3+wXyYEzJviK1mKrjD942vldXcIc2+SXS/Muflqg8XYa2HmPX+I4gwRVneUXOpVUT/rucTQ+jIEDIHiR8BbrbP4R2sjLBQCkfj8Fmowdl1DwBAwBAwBQ8AQMAQMAUMgFQJGflOhY8cMAUPAEDAEDAFDwBAwBIoKASO/RXU7bTCGgCFgCBgChoAhYAgYAqkQMPKbCh07ZggYAoaAIWAIGAKGgCFQVAiEyvZARTLymWZTcSzuqJGBgfRYWnEt7vqafoaAIWAIlFcEyK9NBhQtdR+3cZCJgowKcQ3kJU0kGZi0Wmrc8EOfNWvWJFKAmn6ZI0D2JjgXAehxFDJyVK78o9vpl5jx2Km4dNla163bSe7uu+8O1C1UtgdSZpFflTytxSpE/VNiMWxqr2LFwcZlCBgChkDUCFCgBgIX1+ctxBwd46of2FGEJ6768fkx/bL7FlGUCU7y/9s7EyipqmsNbyUxBtHghBiiQAOKgOCEisogQwBB1lvMMooiCZOCRJFBEAdcEEVcKrCYBNGH6FOWoojMMomIsmQQUQT1YUBeg5oX5MVg8vrb5pS3r7eqbndXVd8q9l6r+1bde+4Z/lvd9Z99/r0PP1E0OFPXLlWlWt5PqVSj1M93N+fLP45VjNulUOSX9FjkwU11nt+4vSqFC5nM81sKw7MmDQFDwBCIDAKW57dkjyJb8vzynKNq5PllS3vL81u8J0Se3xYtopvn97vvfluQ5/e0uIMzzW9caOyCIWAIGAKGgCFgCBgChkCuIRDK81vcQTM7/frrr3XHsUR1sBUwLn42GMgGY6vcdevWBXYVjQ5b+/q3NQ4sXIyTLMc9/PDDgkb5nHPOkbvvvrsYteTWLZs3b5a1a9cGDoplQZ4FW2uXtp6bZ8eWzGxGkqwvbO8Z5d3yAsG2k4aAIWAIGAKRRuCDDz6QmTNnymOPPaa8K9KdTWPn0uL5PXz4sPTq1Us6dOggw4YNk8suu0y3iUSn5MxtNUswHWTxlVdecZcif6xUqZLugPb888/L+PHjtb/16tWT2rVra5DEgAED5NJLL5XVq1enfCws0bAV9Jo1a2TFihUprz8qFUISCYoJYxUqVNDnwRIWz4MAAZ4HP+XKlZNx48ZJgwYNCk1YfvjhB2nWrJluoQkpTbexzSdbZ48aNUq30b7xxhuFLVS9xt8NRH7gwIFyww03eC/Za0PAEDAEDAFDoEQIzJs3T26++Wa57bbbjmviC4hp8fzy5c2+3l26dNEH9cILL+gXOhG0aGsx9tResmSJVK5cWQ4cOKCRv3ohC37hkePnjTfekD179ijJP//887Xn7EfOnutDhgzR8T/33HPSvHnzlI4KYvTmm29qEGJKK45QZY8++qhOoJg4JTOw52fZsmXyySefSKdOnQRC7Ay82EKbP/r33ntPI2ghvH/961/lxBPTMv9zTeuRNpllMxnC43vkyBFp06aNdOzYUftctWpVLcekideMIROEvFAn7Y0hYAgYAoZAziLAdxBcDEej4ys5O9gQA0v5N39+fr4sX75c5Q6ufYTlp556qixYsECOHTumpyHGTz/9tPTs2dMVy7pjPKE8nkfSayBLGDx4sHqDUz24TJC2VPe5KPUhLSmqxXseZ555pnqBkdds2bJFq0Vms2HDBlm/fn3aAx743JMWhqwpGPKe9u3bC/1ZtGiRnuMXKwlIWhwZjl2wF4aAIWAIGAKGQDEReOqpp+TZZ5/V7xsjvj+CmHLyi1cLY5nXGSkxLrroIiWBn332mTud00fSvHTv3l2YDCxcuLDQWEmh8/7778vHH39c6DyyEJa+Dx48qOePHj2qpKlQoSRvqGPnzp3y+eefJykZfJn7IWrkkMSQByBBQKbijH6RwzGeJRqfv260rX5jacaPjb9MUd7zmQQTJiVIRjA8q5ynP36DlCI/4BhkaNmRLODRZaxBY/DeB+mlDForZ3Xr1tWX27dvd6fsaAgYAoaAIWAIpBQB4mFYSYX8RjVvdUoHHLKylMsekDG89dZbgrfN2ffffy/btm3TTSTQyx4vxlI7hj7XebinT58us2bNkt69e8s777yjJBNpBF5LdKCQPvTCzM7wTqJ7ZXn+3nvvlSuvvDIhdK+99ppqXvG0Q2LxbLKU3rJlSxk+fLjKNCCxeOEpizSAa1988YXmEqQff/jDH7QP6GGvuuoq7SMEmDzP/PFwH95SvJcQN+6hv87ijY9k9tdff31g3d56xowZo5IO6sNrfvrpp0udOnVichnXTtgjnz3qZMXhoYcekvLly+utTZs2lR07dmjfkZBg4Hz77berfhjPet++faVr165yzz336HV+IddhzJ07d9bygwYN0ufy+OOPx8r4X9DuLbfcUggnyDVWo0YNf3F7bwgYAoaAIWAIlBgBnDvIUMeOHasOyBJXmEMVpJz8gk2tWrUKQYQ2Fm8hOthkUe6FbszyNxA3bP/+/Xp86aWX9EO4cuVK/SD2799f2rZtq3rQBx98UEkl+lRIGYFbV1xxhd7HB/emm25S4okHPciYcPTr10+D4FyZrVu3av3kWpwwYYIGFkLC0F07TeyTTz4pffr0kcWLF+tuS2SxQJLy9ttvK1mdP3++NoduuVu3bkoOX3/99dg5SN+cOXP0fbLxJap78uTJMnfuXLn//vtVDwsuSEfCaH61cc8vgsog+BBfSCZecCYc3iCyVatWSY8ePYRddJyhh0KyA6EFez7H4MVrp9seOXKkzJ49W7NHcF+1atV+5tl39bkjGUC844CII3c444wzVNfsytnREDAEDAFDwBBIFQJDhw5VBxLfdWaFEUi57KFw9aLkAs9Zq1atjru0XCyJY2QcwFh6gFA5cuq8vRAuZxAiluYd8eX8nXfeqbKDadOmuWI/Oz7wwANSv379WN0UYGmdthC6YxDKKlWqqLZUTxT8IgjrT3/6U6FtRiHGyALwfDqrXr26eqG95yB+jthTLsz44tVN0GOqDE/rpEmTBGK/ceNGFfjfcccdOoEg6NIZKce8hqebDBE8A4zgRSZrTifMOXChfjJtMKEji4QjxlwPY+C0d+9eJdHows0MAUPAEDAEDIGSIIBTxfs9Cq9gpZZsR8gwzQojkBbPr2uCJXYyH0AQ2A0E7e/xZO6DSAo0dJ+7d+/WLBHe3LyQRz6YeCnj7eGN5zAvL09lDEH4QbLxFpPlwG/nnXeeEjWkC7SD3AKijNQBaQVeXFKE+Y1r3qA6nl3QOfqNFWV8QfW4iYK/H6l4j1yEzArkNnzkkUdk9OjRgdUiU6EMeECay5Ytq8/FjZGb+Edy1113qRwCTJBPEKQW1phs4IXGo37ttdeGvc3KGQKGgCFgCBgCgQjw/cl3ETFGrNriwJkyZYqm82zSpEngPcf7ybSRXzxkaDbRNLKED5HatWuXpjaL8n7kqfxAQKAwPpQQJcZNrteJEycWuRk0vN6gM28FYA2+lPEb3mUveUO6gOwBiQH9wtsZNCnxEl/qpI2g2SPnsaKML6hurSTOLwgjE6iS7HEO7hDbTZs2xWnlRy84+Q/JT81kDenEhRdeWKg8/0iQUtAnpCZMHtj2e+nSpYXKBb0h4A3tNQGQTIjAjnMuCC/oHjtnCBgChoAhYAgkQoDvRuKsiBnCucV3EoFuM2bMSHTbcX0tbbKH++67T72cEC1Hdlh+d+mech11dKZ4EMl3jIcPcogsgSwPfiPvHp7ZeEYgFlkyvLpRb1lINdfIaOA3AtUIGHPElRlhu3bthM1FIIMuEM9/X1Hfl2R8/rbc58URazKHeAm8v3yY98yGsURpxNBWM1njMwvxZTKBtAFDI8xkhqBEImbRRTOzxoNL5od4ExO9ueAXz48NXygP8cXIEU0aNDNDwBAwBAwBQ6AkCBDXQ5A8AdkEbrOSXFRJXknaz7Z700J+p06dqnpGMhWwRIymlOAuPGZOT+mAcqmm3NGdz4aj24HMu2SPphStDSQJsssH0hnkh5RX3t3s0H6yDO7IKWXJjIEswRkaUYjgiBEj3KlYFgh3grohut5tftn0AW87mSK8RoAbyyNMRH73u995L+lryDY/XnNZJ7znKOPIIefDjC9e3d560ClDpl26NlK/QUaTmXsefqKMt5eJCBknCLp0Rnk3GYPo0h7/PJzh2aVf/Hz44Yf6DCCxLuCPcvQTWQXHeAbWfB747PO3wd8EOm7+JoKyPZBijXRqiSZE8dqy84aAIWAIGALHHwJ8b5KtCa4Ah2jUqFEs3uj4QyP5iH/6pk9eNlQJyAEeNB7AnH9nAXA3XnPNNe6lkPGACH/IIAFheNFIOdWiRQuVS8QKRvAFWQ3oL4QIwwvIjm94/yCtfAhJMUb2BefFpBzjBxMyJECgWKbA+0cCaq9xnuVxPLaffvqp/rBUDlGCpIERpBlyRPqwZ555RliOh0RTN+m4IOEsqTMLZPtor7nAOP5QvIZgnp3H2GGMuhs3biykLmMWyXIKbQedc20nGl+Yul09BNKBH8s3ZEVwKeO8ffW+Zrw8D3TPGN72ihUr6muIM88FzJg8kIrPjyGBgOCLPIdngfQBosxnmM8o9xGAiF4a/TV5iMmgQdo+vMHogBMZkw/0304D7i3L34oz2iWnMljTNunmaI/NYPyTRnePHQ0BQ8AQMAQMARDAscJ3GbwqKAbIUPoJgRMKvmR/FG3+dO5nr4gYZNMDdCS5aix1Q77QhmbCSLEFCfNH+5OSBI8k3mGIENkGipqYGk8j3k8IeZBBRNlhjDbi7YoWdF9RzsUbX1Hq4DOHV50AuUwaJBUpicsJzKqEe33o0CGdtOAlZoIAmfZ67TPZT2vLEMhWBJg8MkGPagompEzIrZDvRdFYGSKYnNzrUTWcEN7NrqLWT/Lh4zhJ13dgSccLkcWBFrQ6mKhuVjr5ziJbUTqNuJhWLQ9J+dMOp7OZYte9bv0x2fNZtbjO1JR7fovd0+PsRn+aLTd871yETA3FsSCyjPcQUocXk3y25LxN5x99vPEVZTz+iUFR7i1JWec1dnU44st7t3kLpNfMEDAEDAFDwBCIEgLJNsOKUl9Lsy9p0fyW5oCytW08ta+++qpKFZBT4JV1etRUjAkJBPUjS6HuXPbipwIvq8MQMAQMAUPAEDAEchMB8/xG5LmiS0XHi9YVjywkFVlEqgyPL8sUBH6hj00UoJWqNq0eQ8AQMAQMAUPAEDAEooaAkd+IPJFTTjlF2IUsXYaEYMyYMemq3uo1BAwBQ8AQMAQMAUMgKxAw2UNWPCbrpCFgCBgChoAhYAgYAoZAKhAIle2BdFmk0CIlWa4a+WfZJaUku4jlKjY2LkPAEDAEUokA8QwE97LiFUUjBoP83qQajKKBHZlngoKbo9JfMv6kIvA5XeOJev++/vprzW/vzT2fLiyKUy8ZR0466R8FufGLc3f679m58y/SsWPHn6WSdS2H6jYpachfm+7UGa5TpXEkLx65XXOZ4JcGrtamIWAIGAJ+BA4fPqwxDVElb5Bz+hi0CZB/LKXxnjSLpIGMav/ABAytf8X/dBDzU6FCBU27Wfxa0ncnOfS73XSuVMuLplN007v5cvT/KsUFIBT5RS/60EMP5XSGgEzn+Y37ROyCIWAIGAI5joDl+S3ZA3Z5ftngKKpGnt8o9488v3Pnzk1rys+SPJvi5vktSZtFuZcA+saNo5vn95tvzinI8xt/Z1jT/BblaScpS8YGM0PAEDAEDAFDwBAwBAyB6CIQyvNb3O4zO0W3kmizhjBlitt+pu9r2rSpjB49Wlq2bJnppo/r9p544glh17ogY5e7Sy+9VC644IKgyxk9h06PXfvQwbFzX5CFKRN0n50zBAwBQ8AQMASyHYFjx/4pM2buKOCN5aRtm6ppG05aPL9opXr16iUdOnSQYcOGyWWXXabbRHrz1oYpk7ZRp6Hi9957Tz766COZP39+SmqHJLHNcVSNjTj8hg6tWbNmqg2HxGXKILfo38aPHy+LFy+WWrVqSb169aRmzZqyfft2adSokW5x6PXMZ7qvbPPJ1tmjRo3SbbRvvPFGYQtVr4Up4y1vrw0BQ8AQMAQMgVxBID//qNzUfYnsP3BEWreqktZhpcXzO3DgQEHv06VLF+082+lyjsA5tLVYmDJaMEt+uT3Mly9frqT11FPja03CDOnRRx/VCQQTh6jZl19+KQ888MDPiD6El6wZJ56YljlVXBiuu+46qVatmoAZpNfreW/durVGlaNPYgXi7rvv1noy2VcmRo899pisXr1aPb5HjhyRNm3aaCTqsmXLpGrVqhKmTFwA7IIhYAgYAoaAIZDFCHz5l79J7z7LpP1/VJMB/eumfSQpZyn5+fkCAUTu4AxhOWRwwYIFujwdpoy7NxuOeLRXrVqlAYF4IPE+ltTefffdklaRtvs3b94cWDcpWTZs2CDr16/PeBABu+LFs+bNm+slyKezTPaVz/0333wT266a9E7t27eXb7/9VhYtWqRdClPG9d2OhoAhYAgYAoZAriDwPwUe3169l0rnTjUyQnzBLeXkF68W5jyhvGYr3YsuukjQ97Jtb5gy3JctBuG7/PLLY57uhQsXBnYdYrx//34hh6Qzd85hwvl58+bJxx9/7IoEHiFTeAu9dVEQIs61r776Su9jeR8JhXfJn/yVeG/jGaQMgsvRb8hVJk2a5D+t7/GmMg7a9xv92rlzp3z++ef+S4F9JvVcqmzTpk1a1ZVXXhmrMlFfE42fCvgcI1kAf55fsr6S8ocyH3zwQaz9unV/nNkiy8DClIndbC8MAUPAEDAEDIEcQOCf//yXDB22tkAeW0H69a2TsRGlXPZQuXJleeutt+TMM8+MDQKCtm3bNilbtqxUqlRJl36TlYndnAUvILt4t9Ge5uXl6fghiWeccUas97Nnz1bJBx7xOXPm6LL3rFmzZMKECeold+fYgvjNN9/U+wYPHiynn3661KlTJyYXgVgOHTpUyWzDhg1l2rRpBYmmT9Il/zJlysj111+vxBnt7VVXXSXvvPOOQIDRIz/77LPy2muvqWcW7yPEiw1M6DeGZOH222+XCy+8UKULffv2la5du8o999yj13ft2qXaWQgsk5i2bdvqebS2kDkC/nbs2KH1uTFQgDYpA0aQYCYLAwYMUHkCpDxen/3908aK+AuCCrb169eX/v37x+4O6muy8XPzyy+/rJh17txZ8Ro0aJBAqtkEJp6RJvCWW26J4Uw55z2vUaOG3hamTLz67bwhYAgYAoaAIZCNCMyYtUO+3Pc3mTW9WUa7n3LyS+8JOPLaG2+8obvlDBkyJBblHqaMt46ovoa8vf322zJx4kTtIlpnPKOvvvqq3HzzzbFuQ34gYJAuZ7feeqtqVNGlOrv//vuVGEMsyWLg1fzirSSQ8NxzzxXINEv9/fr103Zuu+02zVm4bt069UDTJ0ilC8Bj6b9bt25Kbl9//XVtjnOQNsghhjYbyQqE7oorrtDnSL95TVlI8dKlSzWQEcLt6tabC34h/ejRo4ewc44zJjn0ccWKFer95/zWrVuVOJPrE+KYqM+TJ0/Wcbn6kh3XrFkjd955pxbDy75y5UphkkC+SSZfzoL6mmz83Dty5EjF/pprrtGq0BrH8/S7ttglyvscyUyB3IHJEc8TC1PG1WdHQ8AQMAQMAUMg2xHYvuOQTH58i0x6pGHB7rplMjqclMse/L2HCOE5bNWqVSzYqDhl/PdE5T06UsgVXlcMLSeGh9BvQVtlsoNLWCM4ClILYXIaV468X7JkSSx7AHVClPHcOqtevboG4nnPQdwgiM7wFBMw5jzW7OhHSq4tW7a4IkmP/u0sCYyD9CN7cYaXmPcEgTmL1+cDBw64IqGOZHZg8sEP5JydCdmkBe82Hmiv+fsaZvzgipcWMo98pEGDBjox8Nab7DWBeXv37lUSTd+CLEyZoPvsnCFgCBgChoAhEEUEvvrqu4KV6J8yQY0Zu7Fg1fistGd2CMIireQXr+gf//hHJQh4KtH++i1MGf89UXqP1w8CjKeWH1K7/epXv5KNGzcWIpb02RHWoP4nuubKs4SPnX/++e6UHt0WksgJnFHGm3UB7IPOeTXDF198scycOVNJIl5iMnJw3VvG1R/miB4WGQRSGL+ReQGMkGQ4C+ofdZTEeBbjxo1THTJSiyA9sqs/zPipC881chAmD3jcvV5dV1e8I58V5C4Q82uvvTawWJgygTfaSUPAEDAEDAFDIIIIvPTybmnY5L9kytSt2rvNm7+SrdvyZeTw+qXS27SRXzxkaFbRNEKoIF9oRkl35ixMGVc2ikfGgpYZEodX0f2QTouxeYP+4vWfcskMMgQJdATZf48juV6i6M65urnHeafdOY7eumgHzynBWaQG47kFeau99+P9RGoQZNRNP9D5+o2x+El1UJ/99xXn/VlnnSV4vumrCzALqifM+Js0aaJ63SeffFLT+a1duzb0tt8EvA0fPlxlEhBf8PHn+g1TJqjvds4QMAQMAUPAEIgqAr/9bbkCLvAvmTZ9W8GK7P/KzNkfSrW83xSsNp9VKl1OG/m97777hN21yOvrSA3L3ES1OwtTxpWN4hEZAtIAR0pdHwns4pxfC+rIp5dwOvLjPefwcucg0RBFpzMla4LXCGbDLrnkEu/pIr8eO3asTlZ4ZqSmg7RCGDE0sgTPYfTP9Y0APnAIspNPPlm9ov7+UpY+E8jnMAm6P1XnDh48KJ9++qlWV6VKlbjVJhs/kxw2p4BMk8N6ypQp6sHlGbKCkcgIEGRVAI9v7dq1teiePXs0/Z+7L0wZV9aOhoAhYAgYAoZAtiDQ4OqKumPb3//+gwwcvFpWrvpv+X2LwqvYmRxLWgLepk6dqnpGlobvuusuJUqkwCLC3elJw5TJJBBFbYvMAA8//LAGh/nvZUkfjzdaWZb9HdkhAwYaWlKPOXPeYXIfO0MPi6ecrAqkUIO8QUbRl+J5nDFjhgbOUQZSjJeWjR5cMB1948dr7BbnP8d7R24hurTnUnBxL8FqXOeHHd3oC4Yu2AXNQfwIhHNGO94JDoSve/fugocUbTQGWWYVwKuLjtdn1z9Xf7yj2w3PT0LxhjPJQl5BgKGTiFCPt69hxo+8AYLK2Nu1a6dd4RkQtMcxnvFsIc08Vz73GP3BC83fCBamjBa0X4aAIWAIGAKGQBYiMGpEfVm9ep/s/Oiw9r558xwiv5ADPGh4Buf8O4uAe0bOcxmmjLsnisfp06drijKi9lnGhriQIgyD2Pbs2VP27dsnpBPr2LGjEmGyP6A/ZXtbyCukjmAsCBVyCbI8OFzKlSunqcAIFiMrAFpUDIIFpqNHj9Y2INgEwLGNL0FYECp2Dvvkk0/0dePGjYW+0jfyBkPwgs5BqNGhko7sqaeeUh3raaedps+QbAsjRozQjA99+vTRfkDY8GqTCQLCTLo06m7RooUGctEP9M+UcXWTVQKyi1SEpX3ugbCDYbI+uzrQ2AZZp06dlExzjTbxKruJAc8DwksAHCQci9fXZOPv3bu3ykDIw0ymCtL24Q1GB5zI7r33XiFwLyh4j78VLEyZRG3YNUPAEDAEDAFDIMoInH32r2XIHZfIg+Pflbyqv5G6F5eO5AGMTiggqUlFp5AzNk3Ac5arxlI/JOvqq69O+xDxThLtT4AX0gCIKfl8y5cvX8iDCOZ4LinnNwgcS/lcg1Sn0iBp9Iv+YASJudeuHTzOjIFgNsqGMSYJ3IccJsqWaPyHDh3SHNaQfkg+48+EdCPKeFnfDIGiIsDkkYkwqRGjaKxosSrHqlEUjY12CCYnd3tUjbSfbmUzin1EnohDxi9bjEpfWTUnTajLBR+Vfrl+sOLcquUhKX/aj15cdz7ZkWwP/zl/V0EGsMpy9lm/Tla82NfXrT8mez6rprFnQZWkRfYQ1JCd+wkBvJIXXHBB7IT3dexkwYt4abAog+42XX8UFStW9HbjZ8SXi+T59codCt0Q5w1a2WywRON3m7cEZbDIhrFZHw0BQ8AQMAQMgdJCoEyZE6Rnj5ql1Xys3bQFvMVasBeGgCFgCBgChoAhYAgYAoZARBAw8huRB2HdMAQMAUPAEDAEDAFDwBBIPwJGftOPsbVgCBgChoAhYAgYAoaAIRARBIz8RuRBWDcMAUPAEDAEDAFDwBAwBNKPQKhsD0SU/vnPf9YctenvUum0QB5igrgS5WstnZ5Zq4aAIWAI5BYCZHog0RB5z6NoZOQh0w5pJ6NoYEdu9GQ7cJZm34OyBJVmf/xtR71/5KHn7+MXv4hmXgLy+f/ylz8UZDvyIxuN93v3HtRUsy63vr9XoVAlF63L0euvwN4bAoaAIWAIGAKGgCFgCBgCUUGAPbncJlJBfQrl+Q260c4ZAoaAIWAIGAKGgCFgCBgC2YaAaX6z7YlZfw0BQ8AQMAQMAUPAEDAEio1AKNkDtb/yyitFaqRly5ZJd/7asGGDsO0velu0LRMnTkzYxsyZM3XrWrQmzZo1kw4dOiQsn6sXlyxZIsuXL9ftctHOnXfeebr7Xp06dXJ1yGkfF/oqtlxesWKF6vymTJkSSo+4f/9+3a768OHD0rRpU2nXrl3a+xr1BoqCCTtVsYU2O+fVrl1b+vbtG/XhWf9KEYEXXnhBtmzZop8XtmLPtRiNXB9foo/O6tWr9XuN/6UjRozQ77VE5e1adBE4duyYTJgwQf9Oq1evLgMGDIhcZ0N5fr/99lv9UuKLafTo0TJ37lx54oknYucIhps3b56MGzcudo7tX5MZu5Tt3r1bnn/+eVm2bFmy4vqPbtWqVfLiiy8K20+m0tjC+YYbbpCaNWvqT+vWrXVMYdogOAKyBPnJy8uTRo0ayciRI2XlypVhbg9d5ujRo7pVH1tudu/eXbe2BIv69esLW0kuXrw4dF2ZKgg2DRs2VOF5ptosTjuDBg3Sf7xsJ8lngclFGCtbtqzUqlVLP8Nbt26N3bJgwQKpUqWKrFmzJnbueHkRD5Og8UNe6tWrJ4sWLZL3338/qEjsXKYx5X8Yf3Nm0UGAL9J9+/bJwoULNWAuOj1LTU/ijS/Tn303GgLrdu3a5d6m7Bj0t1WpUiV9pnyn5efnp6ytXKoo3vOI2vdsmYIouMsLRLfwurVr10byEfw/Yy3mWXDTS8IAAAAASUVORK5CYII=;" vertex="1" parent="1">
          <mxGeometry x="-980" y="230" width="703" height="756" as="geometry" />
        </mxCell>
      </root>
    </mxGraphModel>
  </diagram>
</mxfile>
